<svg width="190" height="183" viewBox="0 0 190 183" fill="none" xmlns="http://www.w3.org/2000/svg">
<circle cx="35.0021" cy="40.1874" r="15.5564" fill="#669999" fill-opacity="0.7"/>
<circle cx="163.342" cy="50.5584" r="15.5564" fill="#669999" fill-opacity="0.7"/>
<circle cx="173.713" cy="117.969" r="15.5564" fill="#669999" fill-opacity="0.7"/>
<circle cx="134.822" cy="167.231" r="15.5564" fill="#669999" fill-opacity="0.7"/>
<circle cx="63.5221" cy="167.231" r="15.5564" fill="#669999" fill-opacity="0.7"/>
<circle cx="15.5565" cy="114.08" r="15.5564" fill="#669999" fill-opacity="0.7"/>
<circle cx="97.8759" cy="14.9083" r="14.9082" fill="#669999" fill-opacity="0.7"/>
<mask id="path-8-inside-1_1_294" fill="white">
<path d="M96.5798 2.6084C103.438 2.94627 108.895 8.61445 108.895 15.5566C108.895 21.9572 104.256 27.2727 98.157 28.3281L101.526 83.2822L147.927 51.3115C147.009 49.5323 146.49 47.5134 146.49 45.373C146.49 38.2136 152.293 32.4094 159.453 32.4092C166.613 32.4092 172.417 38.2134 172.417 45.373C172.417 52.5326 166.612 58.3369 159.453 58.3369C155.539 58.3368 152.033 56.599 149.656 53.8564L107.695 90.8545L160.664 106.011C162.728 101.589 167.214 98.5245 172.417 98.5244C179.576 98.5244 185.38 104.328 185.381 111.487C185.381 112.018 185.347 112.542 185.285 113.056L186.946 113.531L185.26 113.257C184.397 119.579 178.976 124.451 172.417 124.451C165.257 124.451 159.453 118.647 159.453 111.487C159.453 110.672 159.529 109.874 159.673 109.1L105.493 100.298L127.22 152.215C128.397 151.864 129.643 151.675 130.933 151.675C138.093 151.675 143.897 157.479 143.897 164.639C143.897 171.798 138.093 177.602 130.933 177.603C123.774 177.603 117.969 171.798 117.969 164.639C117.969 159.843 120.573 155.656 124.444 153.413L96.5798 104.5L69.7927 151.522C73.0603 153.876 75.1892 157.711 75.1892 162.046C75.1892 169.206 69.385 175.01 62.2253 175.01C60.3777 175.01 58.6206 174.622 57.03 173.926L56.363 175.098L56.8806 173.859C52.3877 171.823 49.2625 167.3 49.2625 162.046C49.2625 154.886 55.0659 149.082 62.2253 149.082C63.8686 149.082 65.4408 149.389 66.8875 149.946L87.6658 100.298L32.2244 109.305C32.3447 110.014 32.4089 110.743 32.4089 111.487C32.4089 118.647 26.6055 124.451 19.446 124.451C12.958 124.451 7.58283 119.685 6.63159 113.463L6.21362 113.531L6.62378 113.413C6.53024 112.785 6.48218 112.142 6.48218 111.487C6.48235 104.328 12.2865 98.5244 19.446 98.5244C24.7762 98.5246 29.3536 101.742 31.3455 106.34L85.4646 90.8545L42.7478 53.1914C40.3808 56.3164 36.6314 58.3369 32.4089 58.3369C25.2495 58.3367 19.4461 52.5325 19.446 45.373C19.446 38.2136 25.2495 32.4094 32.4089 32.4092C39.5686 32.4092 45.3728 38.2134 45.3728 45.373C45.3728 47.2487 44.9743 49.0311 44.2576 50.6406L91.6326 83.2822L94.9919 28.4854C88.2709 28.004 82.9676 22.4003 82.9675 15.5566C82.9675 8.397 88.7718 2.59277 95.9314 2.59277C96.1485 2.59277 96.3644 2.59785 96.5789 2.6084L96.5798 2.59277V2.6084Z"/>
</mask>
<path d="M96.5798 2.6084H90.098V8.77878L96.2609 9.08238L96.5798 2.6084ZM108.895 15.5566L115.377 15.5567V15.5566H108.895ZM98.157 28.3281L97.0518 21.9412L91.3321 22.931L91.6873 28.7248L98.157 28.3281ZM101.526 83.2822L95.0564 83.6789L95.7583 95.1277L105.204 88.6198L101.526 83.2822ZM147.927 51.3115L151.605 56.6491L156.306 53.4103L153.687 48.338L147.927 51.3115ZM146.49 45.373H140.008V45.3731L146.49 45.373ZM159.453 32.4092V25.9273H159.453L159.453 32.4092ZM172.417 45.373L178.899 45.3731V45.373H172.417ZM159.453 58.3369L159.453 64.8187H159.453V58.3369ZM149.656 53.8564L154.554 49.6113L150.273 44.671L145.369 48.9946L149.656 53.8564ZM107.695 90.8545L103.408 85.9927L94.5226 93.8273L105.912 97.0862L107.695 90.8545ZM160.664 106.011L158.881 112.242L164.198 113.764L166.537 108.752L160.664 106.011ZM172.417 98.5244V92.0426H172.417L172.417 98.5244ZM185.381 111.487H191.862V111.487L185.381 111.487ZM185.285 113.056L178.85 112.28L178.188 117.766L183.501 119.287L185.285 113.056ZM186.946 113.531L185.905 119.929L188.73 107.3L186.946 113.531ZM185.26 113.257L186.3 106.859L179.737 105.791L178.837 112.38L185.26 113.257ZM172.417 124.451L172.417 130.933H172.417V124.451ZM159.453 111.487L152.971 111.487V111.487H159.453ZM159.673 109.1L166.045 110.286L167.259 103.765L160.712 102.702L159.673 109.1ZM105.493 100.298L106.532 93.8999L95.005 92.0272L99.5136 102.8L105.493 100.298ZM127.22 152.215L121.241 154.717L123.491 160.092L129.074 158.426L127.22 152.215ZM130.933 151.675L130.933 145.193H130.933V151.675ZM143.897 164.639H150.379V164.639H143.897ZM130.933 177.603V184.084H130.933L130.933 177.603ZM117.969 164.639H111.488V164.639H117.969ZM124.444 153.413L127.693 159.022L133.261 155.796L130.076 150.205L124.444 153.413ZM96.5798 104.5L102.212 101.292L96.5798 91.405L90.9478 101.292L96.5798 104.5ZM69.7927 151.522L64.1606 148.314L61.2767 153.377L66.0043 156.782L69.7927 151.522ZM75.1892 162.046H81.671V162.046L75.1892 162.046ZM62.2253 175.01L62.2251 181.492H62.2253V175.01ZM57.03 173.926L59.6305 167.988L54.284 165.647L51.3967 170.719L57.03 173.926ZM56.363 175.098L50.3826 172.598L61.9963 178.304L56.363 175.098ZM56.8806 173.859L62.8611 176.359L65.2879 170.553L59.5562 167.956L56.8806 173.859ZM49.2625 162.046L42.7806 162.046V162.046H49.2625ZM62.2253 149.082V142.6H62.2251L62.2253 149.082ZM66.8875 149.946L64.5558 155.994L70.4344 158.261L72.8668 152.449L66.8875 149.946ZM87.6658 100.298L93.6451 102.8L98.1537 92.0272L86.6264 93.8999L87.6658 100.298ZM32.2244 109.305L31.185 102.907L24.7424 103.953L25.8338 110.389L32.2244 109.305ZM32.4089 111.487H38.8908V111.487L32.4089 111.487ZM19.446 124.451V130.933H19.4462L19.446 124.451ZM6.63159 113.463L13.039 112.483L12.0492 106.009L5.58538 107.066L6.63159 113.463ZM6.21362 113.531L4.41922 107.303L7.25984 119.928L6.21362 113.531ZM6.62378 113.413L8.41818 119.642L13.8706 118.071L13.0349 112.458L6.62378 113.413ZM6.48218 111.487L0.000341892 111.487V111.487H6.48218ZM19.446 98.5244L19.4462 92.0426H19.446V98.5244ZM31.3455 106.34L25.3977 108.916L27.659 114.137L33.1286 112.572L31.3455 106.34ZM85.4646 90.8545L87.2477 97.0862L98.6373 93.8273L89.7513 85.9926L85.4646 90.8545ZM42.7478 53.1914L47.0345 48.3295L41.7969 43.7115L37.5808 49.2778L42.7478 53.1914ZM32.4089 58.3369L32.4087 64.8187H32.4089V58.3369ZM19.446 45.373H12.9642V45.3731L19.446 45.373ZM32.4089 32.4092V25.9273H32.4087L32.4089 32.4092ZM45.3728 45.373L51.8546 45.3731V45.373H45.3728ZM44.2576 50.6406L38.3362 48.004L36.1459 52.9231L40.58 55.9782L44.2576 50.6406ZM91.6326 83.2822L87.955 88.6198L97.4004 95.1277L98.1023 83.6789L91.6326 83.2822ZM94.9919 28.4854L101.462 28.882L101.854 22.4784L95.455 22.0201L94.9919 28.4854ZM82.9675 15.5566H76.4857V15.5567L82.9675 15.5566ZM95.9314 2.59277L95.9314 -3.88906H95.9314V2.59277ZM96.5789 2.6084L96.2604 9.08241L102.649 9.39666L103.048 3.01272L96.5789 2.6084ZM96.5798 2.59277H103.062L90.1106 2.18845L96.5798 2.59277ZM96.5798 2.6084L96.2609 9.08238C99.6846 9.25105 102.413 12.0873 102.413 15.5566H108.895H115.377C115.377 5.14163 107.192 -3.35851 96.8988 -3.86559L96.5798 2.6084ZM108.895 15.5566L102.413 15.5565C102.413 18.7488 100.098 21.4141 97.0518 21.9412L98.157 28.3281L99.2622 34.715C108.414 33.1314 115.377 25.1656 115.377 15.5567L108.895 15.5566ZM98.157 28.3281L91.6873 28.7248L95.0564 83.6789L101.526 83.2822L107.996 82.8856L104.627 27.9315L98.157 28.3281ZM101.526 83.2822L105.204 88.6198L151.605 56.6491L147.927 51.3115L144.25 45.974L97.8485 77.9447L101.526 83.2822ZM147.927 51.3115L153.687 48.338C153.232 47.456 152.972 46.4542 152.972 45.373L146.49 45.373L140.008 45.3731C140.008 48.5726 140.786 51.6086 142.168 54.2851L147.927 51.3115ZM146.49 45.373H152.972C152.972 41.793 155.874 38.8911 159.453 38.891L159.453 32.4092L159.453 25.9273C148.713 25.9277 140.008 34.6342 140.008 45.373H146.49ZM159.453 32.4092V38.891C163.033 38.891 165.935 41.7932 165.935 45.373H172.417H178.899C178.899 34.6336 170.192 25.9273 159.453 25.9273V32.4092ZM172.417 45.373L165.935 45.373C165.935 48.9529 163.033 51.8551 159.453 51.8551V58.3369V64.8187C170.192 64.8187 178.898 56.1124 178.899 45.3731L172.417 45.373ZM159.453 58.3369L159.453 51.8551C157.502 51.855 155.756 50.9978 154.554 49.6113L149.656 53.8564L144.758 58.1016C148.31 62.2003 153.575 64.8186 159.453 64.8187L159.453 58.3369ZM149.656 53.8564L145.369 48.9946L103.408 85.9927L107.695 90.8545L111.982 95.7163L153.943 58.7183L149.656 53.8564ZM107.695 90.8545L105.912 97.0862L158.881 112.242L160.664 106.011L162.447 99.779L109.478 84.6227L107.695 90.8545ZM160.664 106.011L166.537 108.752C167.576 106.527 169.825 105.006 172.417 105.006L172.417 98.5244L172.417 92.0426C164.604 92.0427 157.88 96.6503 154.79 103.269L160.664 106.011ZM172.417 98.5244V105.006C175.997 105.006 178.899 107.908 178.899 111.487L185.381 111.487L191.862 111.487C191.862 100.747 183.156 92.0426 172.417 92.0426V98.5244ZM185.381 111.487H178.899C178.899 111.744 178.883 112.007 178.85 112.28L185.285 113.056L191.72 113.832C191.811 113.076 191.862 112.293 191.862 111.487H185.381ZM185.285 113.056L183.501 119.287L185.162 119.763L186.946 113.531L188.73 107.3L187.069 106.824L185.285 113.056ZM186.946 113.531L187.987 107.134L186.3 106.859L185.26 113.257L184.219 119.655L185.905 119.929L186.946 113.531ZM185.26 113.257L178.837 112.38C178.407 115.536 175.69 117.969 172.417 117.969V124.451V130.933C182.262 130.933 190.387 123.623 191.682 114.133L185.26 113.257ZM172.417 124.451L172.417 117.969C168.837 117.969 165.935 115.067 165.935 111.487H159.453H152.971C152.971 122.227 161.677 130.933 172.417 130.933L172.417 124.451ZM159.453 111.487L165.935 111.487C165.935 111.073 165.973 110.672 166.045 110.286L159.673 109.1L153.3 107.913C153.084 109.075 152.971 110.27 152.971 111.487L159.453 111.487ZM159.673 109.1L160.712 102.702L106.532 93.8999L105.493 100.298L104.454 106.696L158.633 115.498L159.673 109.1ZM105.493 100.298L99.5136 102.8L121.241 154.717L127.22 152.215L133.2 149.712L111.472 97.7955L105.493 100.298ZM127.22 152.215L129.074 158.426C129.657 158.252 130.279 158.157 130.933 158.157V151.675V145.193C129.007 145.193 127.137 145.476 125.367 146.004L127.22 152.215ZM130.933 151.675L130.933 158.157C134.513 158.157 137.415 161.059 137.415 164.639H143.897H150.379C150.379 153.899 141.673 145.193 130.933 145.193L130.933 151.675ZM143.897 164.639H137.415C137.415 168.218 134.513 171.121 130.933 171.121L130.933 177.603L130.933 184.084C141.673 184.084 150.379 175.378 150.379 164.639H143.897ZM130.933 177.603V171.121C127.354 171.121 124.451 168.218 124.451 164.639H117.969H111.488C111.488 175.378 120.194 184.084 130.933 184.084V177.603ZM117.969 164.639H124.451C124.451 162.249 125.741 160.153 127.693 159.022L124.444 153.413L121.195 147.804C115.405 151.159 111.488 157.438 111.488 164.639H117.969ZM124.444 153.413L130.076 150.205L102.212 101.292L96.5798 104.5L90.9478 107.708L118.812 156.622L124.444 153.413ZM96.5798 104.5L90.9478 101.292L64.1606 148.314L69.7927 151.522L75.4248 154.731L102.212 107.708L96.5798 104.5ZM69.7927 151.522L66.0043 156.782C67.6559 157.972 68.7074 159.887 68.7074 162.046L75.1892 162.046L81.671 162.046C81.671 155.536 78.4647 149.781 73.5812 146.263L69.7927 151.522ZM75.1892 162.046H68.7074C68.7074 165.626 65.8052 168.528 62.2253 168.528V175.01V181.492C72.9648 181.492 81.671 172.785 81.671 162.046H75.1892ZM62.2253 175.01L62.2256 168.528C61.2916 168.528 60.4184 168.334 59.6305 167.988L57.03 173.926L54.4296 179.863C56.8228 180.911 59.4639 181.492 62.2251 181.492L62.2253 175.01ZM57.03 173.926L51.3967 170.719L50.7297 171.891L56.363 175.098L61.9963 178.304L62.6633 177.132L57.03 173.926ZM56.363 175.098L62.3435 177.597L62.8611 176.359L56.8806 173.859L50.9002 171.36L50.3826 172.598L56.363 175.098ZM56.8806 173.859L59.5562 167.956C57.2954 166.931 55.7443 164.663 55.7443 162.046H49.2625H42.7806C42.7806 169.937 47.48 176.716 54.2051 179.763L56.8806 173.859ZM49.2625 162.046L55.7443 162.046C55.7443 158.466 58.6462 155.564 62.2256 155.564L62.2253 149.082L62.2251 142.6C51.4856 142.601 42.7807 151.307 42.7806 162.046L49.2625 162.046ZM62.2253 149.082V155.564C63.0569 155.564 63.8394 155.718 64.5558 155.994L66.8875 149.946L69.2191 143.898C67.0421 143.059 64.6804 142.6 62.2253 142.6V149.082ZM66.8875 149.946L72.8668 152.449L93.6451 102.8L87.6658 100.298L81.6865 97.7955L60.9081 147.444L66.8875 149.946ZM87.6658 100.298L86.6264 93.8999L31.185 102.907L32.2244 109.305L33.2638 115.703L88.7052 106.696L87.6658 100.298ZM32.2244 109.305L25.8338 110.389C25.8952 110.751 25.9271 111.117 25.9271 111.487L32.4089 111.487L38.8908 111.487C38.8907 110.37 38.7942 109.278 38.6149 108.221L32.2244 109.305ZM32.4089 111.487H25.9271C25.9271 115.067 23.0252 117.969 19.4459 117.969L19.446 124.451L19.4462 130.933C30.1858 130.933 38.8908 122.226 38.8908 111.487H32.4089ZM19.446 124.451V117.969C16.2077 117.969 13.5137 115.588 13.039 112.483L6.63159 113.463L0.224201 114.442C1.65197 123.782 9.7083 130.933 19.446 130.933V124.451ZM6.63159 113.463L5.58538 107.066L5.16741 107.134L6.21362 113.531L7.25984 119.928L7.6778 119.86L6.63159 113.463ZM6.21362 113.531L8.00803 119.76L8.41818 119.642L6.62378 113.413L4.82938 107.185L4.41922 107.303L6.21362 113.531ZM6.62378 113.413L13.0349 112.458C12.9887 112.148 12.964 111.824 12.964 111.487H6.48218H0.000341892C0.000341892 112.459 0.0717549 113.422 0.212621 114.368L6.62378 113.413ZM6.48218 111.487L12.964 111.487C12.9641 107.908 15.8658 105.006 19.446 105.006V98.5244V92.0426C8.70718 92.0426 0.000598431 100.747 0.000341892 111.487L6.48218 111.487ZM19.446 98.5244L19.4459 105.006C22.1 105.006 24.3956 106.603 25.3977 108.916L31.3455 106.34L37.2932 103.763C34.3116 96.8802 27.4524 92.0428 19.4462 92.0426L19.446 98.5244ZM31.3455 106.34L33.1286 112.572L87.2477 97.0862L85.4646 90.8545L83.6815 84.6227L29.5623 100.108L31.3455 106.34ZM85.4646 90.8545L89.7513 85.9926L47.0345 48.3295L42.7478 53.1914L38.4611 58.0533L81.1779 95.7164L85.4646 90.8545ZM42.7478 53.1914L37.5808 49.2778C36.3847 50.857 34.5134 51.8551 32.4089 51.8551V58.3369V64.8187C38.7494 64.8187 44.377 61.7758 47.9148 57.1051L42.7478 53.1914ZM32.4089 58.3369L32.4091 51.8551C28.8299 51.855 25.9279 48.9531 25.9279 45.373L19.446 45.373L12.9642 45.3731C12.9643 56.1118 21.6692 64.8184 32.4087 64.8187L32.4089 58.3369ZM19.446 45.373H25.9279C25.9279 41.7929 28.8298 38.8911 32.4091 38.891L32.4089 32.4092L32.4087 25.9273C21.6692 25.9277 12.9642 34.6342 12.9642 45.373H19.446ZM32.4089 32.4092V38.891C35.9888 38.891 38.891 41.7932 38.891 45.373H45.3728H51.8546C51.8546 34.6336 43.1484 25.9273 32.4089 25.9273V32.4092ZM45.3728 45.373L38.891 45.373C38.891 46.3222 38.6908 47.2077 38.3362 48.004L44.2576 50.6406L50.1789 53.2772C51.2577 50.8544 51.8546 48.1751 51.8546 45.3731L45.3728 45.373ZM44.2576 50.6406L40.58 55.9782L87.955 88.6198L91.6326 83.2822L95.3102 77.9447L47.9352 45.3031L44.2576 50.6406ZM91.6326 83.2822L98.1023 83.6789L101.462 28.882L94.9919 28.4854L88.5223 28.0887L85.1629 82.8856L91.6326 83.2822ZM94.9919 28.4854L95.455 22.0201C92.1 21.7798 89.4494 18.9746 89.4494 15.5565L82.9675 15.5566L76.4857 15.5567C76.4858 25.8259 84.4419 34.2282 94.5289 34.9506L94.9919 28.4854ZM82.9675 15.5566H89.4494C89.4494 11.9768 92.3516 9.07461 95.9314 9.07461V2.59277V-3.88906C85.1919 -3.88906 76.4857 4.81718 76.4857 15.5566H82.9675ZM95.9314 2.59277L95.9314 9.07461C96.0476 9.07461 96.1572 9.07733 96.2604 9.08241L96.5789 2.6084L96.8973 -3.86561C96.5716 -3.88163 96.2494 -3.88906 95.9314 -3.88906L95.9314 2.59277ZM96.5789 2.6084L103.048 3.01272L103.049 2.9971L96.5798 2.59277L90.1106 2.18845L90.1096 2.20407L96.5789 2.6084ZM96.5798 2.59277H90.098V2.6084H96.5798H103.062V2.59277H96.5798Z" fill="black" mask="url(#path-8-inside-1_1_294)"/>
<ellipse cx="97.2277" cy="92.0421" rx="44.0765" ry="41.4837" fill="#FCF4E9"/>
<path d="M97.2274 53.7996C119.968 53.7996 138.063 71.1033 138.063 92.0417C138.063 112.98 119.968 130.285 97.2274 130.285C74.4868 130.285 56.3925 112.98 56.3925 92.0417C56.3927 71.1034 74.4869 53.7997 97.2274 53.7996Z" stroke="black" stroke-width="6.48184"/>
</svg>
