<svg width="172" height="163" viewBox="0 0 172 163" fill="none" xmlns="http://www.w3.org/2000/svg">
<path d="M45.3731 62.2256L31.113 76.4856L24.6312 70.0038" stroke="#669999" stroke-width="5.18547" stroke-linecap="round" stroke-linejoin="round"/>
<path d="M42.7804 92.0421L28.5203 106.302L22.0385 99.8203" stroke="black" stroke-width="5.18547" stroke-linecap="round" stroke-linejoin="round"/>
<path d="M42.7804 121.858L28.5203 136.118L22.0385 129.637" stroke="black" stroke-width="5.18547" stroke-linecap="round" stroke-linejoin="round"/>
<path d="M106.303 23.3356C118.474 23.3358 128.341 33.2024 128.341 45.3737V59.1637C126.146 59.365 123.976 59.7357 121.86 60.277V45.3737C121.86 36.9164 115.11 30.035 106.704 29.8219L106.303 29.817H22.0393L21.6379 29.8219C13.2317 30.0347 6.48264 36.9162 6.48264 45.3737V140.008L6.48752 140.41C6.69732 148.682 13.3653 155.35 21.6379 155.559L22.0393 155.565H106.303L106.704 155.559C114.977 155.349 121.645 148.682 121.855 140.41L121.86 140.008V121.715C123.977 122.257 126.146 122.633 128.341 122.835V140.008C128.341 152.179 118.474 162.046 106.303 162.047H22.0393C9.86807 162.047 0.00148758 152.18 0.00119019 140.008V45.3737C0.00119019 33.2023 9.86789 23.3356 22.0393 23.3356H106.303Z" fill="black"/>
<path d="M171.121 89.7734C171.134 94.051 169.957 98.2707 167.685 102.089C164.992 106.664 160.852 110.513 155.728 113.203C150.604 115.893 144.7 117.319 138.675 117.321C133.637 117.332 128.668 116.333 124.171 114.404L102.413 120.562L109.666 102.089C107.394 98.2707 106.217 94.051 106.23 89.7734C106.233 84.6585 107.912 79.6451 111.081 75.2948C114.249 70.9445 118.782 67.4292 124.171 65.1425C128.668 63.2139 133.637 62.2145 138.675 62.2257H140.584C148.54 62.5984 156.055 65.4496 161.689 70.2335C167.324 75.0174 170.682 81.3978 171.121 88.153V89.7734Z" fill="#669999" fill-opacity="0.67"/>
<line x1="56.3922" y1="65.4665" x2="100.469" y2="65.4665" stroke="black" stroke-width="3.8891" stroke-linecap="round"/>
<line x1="56.3922" y1="74.5411" x2="74.5414" y2="74.5411" stroke="black" stroke-width="3.8891" stroke-linecap="round"/>
<line x1="52.5031" y1="101.765" x2="81.0232" y2="101.765" stroke="black" stroke-width="3.8891" stroke-linecap="round"/>
<line x1="52.5031" y1="92.6902" x2="87.505" y2="92.6902" stroke="black" stroke-width="3.8891" stroke-linecap="round"/>
<line x1="52.5031" y1="121.21" x2="87.505" y2="121.21" stroke="black" stroke-width="3.8891" stroke-linecap="round"/>
<line x1="52.5031" y1="131.581" x2="73.245" y2="131.581" stroke="black" stroke-width="3.8891" stroke-linecap="round"/>
<path d="M64.8186 3.2406C71.9392 3.2406 77.8926 8.23329 79.3723 14.9086H86.8567C94.3742 14.9086 100.469 21.0023 100.469 28.5199C100.469 36.0375 94.3743 42.1322 86.8567 42.1322H42.7805C35.2629 42.1322 29.1682 36.0375 29.1682 28.5199C29.1683 21.0023 35.2629 14.9086 42.7805 14.9086H50.2649C51.7446 8.23329 57.698 3.2406 64.8186 3.2406Z" fill="#669999" stroke="black" stroke-width="6.48184"/>
</svg>
