<svg width="172" height="156" viewBox="0 0 172 156" fill="none" xmlns="http://www.w3.org/2000/svg">
<path d="M45.373 55.7438L31.113 70.0038L24.6312 63.522" stroke="white" stroke-width="5.18547" stroke-linecap="round" stroke-linejoin="round"/>
<path d="M42.7803 85.5602L28.5202 99.8203L22.0384 93.3384" stroke="white" stroke-width="5.18547" stroke-linecap="round" stroke-linejoin="round"/>
<path d="M42.7803 115.377L28.5202 129.637L22.0384 123.155" stroke="#FCF4E9" stroke-width="5.18547" stroke-linecap="round" stroke-linejoin="round"/>
<path d="M106.303 16.8538C118.474 16.854 128.341 26.7206 128.341 38.8918V52.6819C126.146 52.8832 123.976 53.2539 121.86 53.7952V38.8918C121.86 30.4346 115.11 23.5532 106.704 23.3401L106.303 23.3352H22.0392L21.6379 23.3401C13.2317 23.5529 6.4826 30.4344 6.4826 38.8918V133.527L6.48749 133.928C6.69729 142.2 13.3653 148.868 21.6379 149.077L22.0392 149.083H106.303L106.704 149.077C114.977 148.868 121.645 142.2 121.855 133.928L121.86 133.527V115.234C123.977 115.775 126.146 116.151 128.341 116.353V133.527C128.341 145.698 118.474 155.564 106.303 155.565H22.0392C9.86804 155.565 0.00145707 145.698 0.00115967 133.527V38.8918C0.00115967 26.7205 9.86786 16.8538 22.0392 16.8538H106.303Z" fill="#FCF4E9"/>
<path d="M171.12 83.2916C171.134 87.5692 169.957 91.7889 167.685 95.6071C164.992 100.182 160.852 104.031 155.728 106.721C150.604 109.411 144.7 110.837 138.675 110.839C133.637 110.851 128.667 109.851 124.17 107.923L102.413 114.08L109.666 95.6071C107.394 91.7889 106.217 87.5692 106.23 83.2916C106.233 78.1767 107.912 73.1633 111.081 68.813C114.249 64.4627 118.782 60.9474 124.17 58.6607C128.667 56.7321 133.637 55.7327 138.675 55.7439H140.584C148.54 56.1165 156.055 58.9678 161.689 63.7517C167.323 68.5356 170.682 74.916 171.12 81.6712V83.2916Z" fill="#B3CCCC"/>
<line x1="56.3921" y1="58.9847" x2="100.469" y2="58.9847" stroke="#FCF4E9" stroke-width="3.8891" stroke-linecap="round"/>
<line x1="56.3921" y1="68.0593" x2="74.5413" y2="68.0593" stroke="#FCF4E9" stroke-width="3.8891" stroke-linecap="round"/>
<line x1="52.503" y1="95.283" x2="81.0231" y2="95.283" stroke="#FCF4E9" stroke-width="3.8891" stroke-linecap="round"/>
<line x1="52.503" y1="86.2084" x2="87.5049" y2="86.2084" stroke="#FCF4E9" stroke-width="3.8891" stroke-linecap="round"/>
<line x1="52.503" y1="114.728" x2="87.5049" y2="114.728" stroke="#FCF4E9" stroke-width="3.8891" stroke-linecap="round"/>
<line x1="52.503" y1="125.099" x2="73.2449" y2="125.099" stroke="#FCF4E9" stroke-width="3.8891" stroke-linecap="round"/>
<path d="M64.8185 0C71.2622 0 76.4858 5.22363 76.4858 11.6673H86.8568C92.5845 11.6673 97.2277 16.3105 97.2277 22.0382C97.2277 27.766 92.5845 32.4092 86.8568 32.4092H42.7803C37.0526 32.4092 32.4094 27.766 32.4094 22.0382C32.4094 16.3105 37.0526 11.6673 42.7803 11.6673H53.1512C53.1512 5.22363 58.3749 0 64.8185 0Z" fill="#B3CCCC"/>
</svg>
