<svg width="58" height="58" viewBox="0 0 58 58" fill="none" xmlns="http://www.w3.org/2000/svg">
<g clip-path="url(#clip0_1_469)">
<rect x="3.80249" y="19.9641" width="48.0088" height="34.2241" fill="#FCF4E9"/>
<path d="M55.3123 5.7041H6.95615C5.21443 5.7041 3.80249 7.32149 3.80249 9.31664V20.1543C3.80249 22.1494 5.21443 23.7668 6.95615 23.7668H55.3123C57.054 23.7668 58.466 22.1494 58.466 20.1543V9.31664C58.466 7.32149 57.054 5.7041 55.3123 5.7041Z" fill="#669999" fill-opacity="0.7"/>
<path d="M50.3853 10.4579H6.6545C5.07938 10.4579 3.80249 11.7348 3.80249 13.3099V51.3367C3.80249 52.9118 5.07938 54.1887 6.6545 54.1887H50.3853C51.9604 54.1887 53.2373 52.9118 53.2373 51.3367V13.3099C53.2373 11.7348 51.9604 10.4579 50.3853 10.4579Z" stroke="black" stroke-width="2.16061" stroke-linecap="round" stroke-linejoin="round"/>
<path d="M20.9149 9.03144C20.9149 7.1938 19.4252 5.7041 17.5876 5.7041C15.75 5.7041 14.2603 7.1938 14.2603 9.03144V12.8341C14.2603 14.6718 15.75 16.1615 17.5876 16.1615C19.4252 16.1615 20.9149 14.6718 20.9149 12.8341V9.03144Z" fill="#FCF4E9" stroke="black" stroke-width="1.72849"/>
<path d="M42.7804 9.03144C42.7804 7.1938 41.2907 5.7041 39.4531 5.7041C37.6154 5.7041 36.1257 7.1938 36.1257 9.03144V12.8341C36.1257 14.6718 37.6154 16.1615 39.4531 16.1615C41.2907 16.1615 42.7804 14.6718 42.7804 12.8341V9.03144Z" fill="#FCF4E9" stroke="black" stroke-width="1.72849"/>
<path d="M18.063 31.3721C19.113 31.3721 19.9643 30.5209 19.9643 29.4708C19.9643 28.4207 19.113 27.5695 18.063 27.5695C17.0129 27.5695 16.1616 28.4207 16.1616 29.4708C16.1616 30.5209 17.0129 31.3721 18.063 31.3721Z" fill="black"/>
<path d="M29.4709 31.3721C30.521 31.3721 31.3723 30.5209 31.3723 29.4708C31.3723 28.4207 30.521 27.5695 29.4709 27.5695C28.4208 27.5695 27.5696 28.4207 27.5696 29.4708C27.5696 30.5209 28.4208 31.3721 29.4709 31.3721Z" fill="black"/>
<path d="M40.8791 31.3721C41.9292 31.3721 42.7805 30.5209 42.7805 29.4708C42.7805 28.4207 41.9292 27.5695 40.8791 27.5695C39.829 27.5695 38.9778 28.4207 38.9778 29.4708C38.9778 30.5209 39.829 31.3721 40.8791 31.3721Z" fill="black"/>
<path d="M18.063 39.9283C19.113 39.9283 19.9643 39.077 19.9643 38.0269C19.9643 36.9769 19.113 36.1256 18.063 36.1256C17.0129 36.1256 16.1616 36.9769 16.1616 38.0269C16.1616 39.077 17.0129 39.9283 18.063 39.9283Z" fill="black"/>
<path d="M29.4709 39.9283C30.521 39.9283 31.3723 39.077 31.3723 38.0269C31.3723 36.9769 30.521 36.1256 29.4709 36.1256C28.4208 36.1256 27.5696 36.9769 27.5696 38.0269C27.5696 39.077 28.4208 39.9283 29.4709 39.9283Z" fill="black"/>
<path d="M40.8791 39.9283C41.9292 39.9283 42.7805 39.077 42.7805 38.0269C42.7805 36.9769 41.9292 36.1256 40.8791 36.1256C39.829 36.1256 38.9778 36.9769 38.9778 38.0269C38.9778 39.077 39.829 39.9283 40.8791 39.9283Z" fill="black"/>
<path d="M18.063 48.4844C19.113 48.4844 19.9643 47.6332 19.9643 46.5831C19.9643 45.533 19.113 44.6818 18.063 44.6818C17.0129 44.6818 16.1616 45.533 16.1616 46.5831C16.1616 47.6332 17.0129 48.4844 18.063 48.4844Z" fill="black"/>
<path d="M29.4709 48.4844C30.521 48.4844 31.3723 47.6332 31.3723 46.5831C31.3723 45.533 30.521 44.6818 29.4709 44.6818C28.4208 44.6818 27.5696 45.533 27.5696 46.5831C27.5696 47.6332 28.4208 48.4844 29.4709 48.4844Z" fill="black"/>
<path d="M40.8791 48.4844C41.9292 48.4844 42.7805 47.6332 42.7805 46.5831C42.7805 45.533 41.9292 44.6818 40.8791 44.6818C39.829 44.6818 38.9778 45.533 38.9778 46.5831C38.9778 47.6332 39.829 48.4844 40.8791 48.4844Z" fill="black"/>
</g>
<defs>
<clipPath id="clip0_1_469">
<rect width="57.0402" height="57.0402" fill="white"/>
</clipPath>
</defs>
</svg>
