<svg width="58" height="58" viewBox="0 0 58 58" fill="none" xmlns="http://www.w3.org/2000/svg">
<g clip-path="url(#clip0_1_439)">
<rect x="3.80225" y="19.9641" width="48.0088" height="34.2241" fill="#FCF4E9"/>
<path d="M55.3121 5.70398H6.95591C5.21419 5.70398 3.80225 7.32137 3.80225 9.31652V20.1542C3.80225 22.1493 5.21419 23.7667 6.95591 23.7667H55.3121C57.0538 23.7667 58.4657 22.1493 58.4657 20.1542V9.31652C58.4657 7.32137 57.0538 5.70398 55.3121 5.70398Z" fill="#7B6178" fill-opacity="0.7"/>
<path d="M50.385 10.4578H6.65425C5.07913 10.4578 3.80225 11.7347 3.80225 13.3098V51.3365C3.80225 52.9117 5.07913 54.1885 6.65425 54.1885H50.385C51.9602 54.1885 53.237 52.9117 53.237 51.3365V13.3098C53.237 11.7347 51.9602 10.4578 50.385 10.4578Z" stroke="black" stroke-width="2.37667" stroke-linecap="round" stroke-linejoin="round"/>
<path d="M20.9147 9.03132C20.9147 7.19368 19.425 5.70398 17.5874 5.70398C15.7497 5.70398 14.26 7.19368 14.26 9.03132V12.834C14.26 14.6716 15.7497 16.1613 17.5874 16.1613C19.425 16.1613 20.9147 14.6716 20.9147 12.834V9.03132Z" fill="#FCF4E9" stroke="black" stroke-width="1.90134"/>
<path d="M42.7802 9.03132C42.7802 7.19368 41.2905 5.70398 39.4528 5.70398C37.6152 5.70398 36.1255 7.19368 36.1255 9.03132V12.834C36.1255 14.6716 37.6152 16.1613 39.4528 16.1613C41.2905 16.1613 42.7802 14.6716 42.7802 12.834V9.03132Z" fill="#FCF4E9" stroke="black" stroke-width="1.90134"/>
<path d="M18.063 31.3721C19.113 31.3721 19.9643 30.5209 19.9643 29.4708C19.9643 28.4207 19.113 27.5695 18.063 27.5695C17.0129 27.5695 16.1616 28.4207 16.1616 29.4708C16.1616 30.5209 17.0129 31.3721 18.063 31.3721Z" fill="black"/>
<path d="M29.4707 31.3721C30.5208 31.3721 31.372 30.5209 31.372 29.4708C31.372 28.4207 30.5208 27.5695 29.4707 27.5695C28.4206 27.5695 27.5693 28.4207 27.5693 29.4708C27.5693 30.5209 28.4206 31.3721 29.4707 31.3721Z" fill="black"/>
<path d="M40.8791 31.3721C41.9292 31.3721 42.7805 30.5209 42.7805 29.4708C42.7805 28.4207 41.9292 27.5695 40.8791 27.5695C39.829 27.5695 38.9778 28.4207 38.9778 29.4708C38.9778 30.5209 39.829 31.3721 40.8791 31.3721Z" fill="black"/>
<path d="M18.063 39.9283C19.113 39.9283 19.9643 39.077 19.9643 38.0269C19.9643 36.9769 19.113 36.1256 18.063 36.1256C17.0129 36.1256 16.1616 36.9769 16.1616 38.0269C16.1616 39.077 17.0129 39.9283 18.063 39.9283Z" fill="black"/>
<path d="M29.4707 39.9283C30.5208 39.9283 31.372 39.077 31.372 38.0269C31.372 36.9769 30.5208 36.1256 29.4707 36.1256C28.4206 36.1256 27.5693 36.9769 27.5693 38.0269C27.5693 39.077 28.4206 39.9283 29.4707 39.9283Z" fill="black"/>
<path d="M40.8791 39.9283C41.9292 39.9283 42.7805 39.077 42.7805 38.0269C42.7805 36.9769 41.9292 36.1256 40.8791 36.1256C39.829 36.1256 38.9778 36.9769 38.9778 38.0269C38.9778 39.077 39.829 39.9283 40.8791 39.9283Z" fill="black"/>
<path d="M18.063 48.4844C19.113 48.4844 19.9643 47.6332 19.9643 46.5831C19.9643 45.533 19.113 44.6818 18.063 44.6818C17.0129 44.6818 16.1616 45.533 16.1616 46.5831C16.1616 47.6332 17.0129 48.4844 18.063 48.4844Z" fill="black"/>
<path d="M29.4707 48.4844C30.5208 48.4844 31.372 47.6332 31.372 46.5831C31.372 45.533 30.5208 44.6818 29.4707 44.6818C28.4206 44.6818 27.5693 45.533 27.5693 46.5831C27.5693 47.6332 28.4206 48.4844 29.4707 48.4844Z" fill="black"/>
<path d="M40.8791 48.4844C41.9292 48.4844 42.7805 47.6332 42.7805 46.5831C42.7805 45.533 41.9292 44.6818 40.8791 44.6818C39.829 44.6818 38.9778 45.533 38.9778 46.5831C38.9778 47.6332 39.829 48.4844 40.8791 48.4844Z" fill="black"/>
</g>
<defs>
<clipPath id="clip0_1_439">
<rect width="57.0402" height="57.0402" fill="white"/>
</clipPath>
</defs>
</svg>
