<svg width="156" height="156" viewBox="0 0 156 156" fill="none" xmlns="http://www.w3.org/2000/svg">
<g clip-path="url(#clip0_1_424)">
<rect x="10.3708" y="54.4474" width="130.933" height="93.3384" fill="#FCF4E9"/>
<path d="M150.852 15.5564H18.9717C14.2216 15.5564 10.3708 19.9675 10.3708 25.4088V54.966C10.3708 60.4073 14.2216 64.8183 18.9717 64.8183H150.852C155.602 64.8183 159.453 60.4073 159.453 54.966V25.4088C159.453 19.9675 155.602 15.5564 150.852 15.5564Z" fill="#7B6178" fill-opacity="0.7"/>
<path d="M137.415 28.5201H18.1491C13.8533 28.5201 10.3708 32.0026 10.3708 36.2983V140.008C10.3708 144.303 13.8533 147.786 18.1491 147.786H137.415C141.711 147.786 145.193 144.303 145.193 140.008V36.2983C145.193 32.0026 141.711 28.5201 137.415 28.5201Z" stroke="black" stroke-width="6.48184" stroke-linecap="round" stroke-linejoin="round"/>
<path d="M57.0403 24.631C57.0403 19.6192 52.9774 15.5564 47.9657 15.5564C42.9539 15.5564 38.8911 19.6192 38.8911 24.631V35.0019C38.8911 40.0137 42.9539 44.0765 47.9657 44.0765C52.9774 44.0765 57.0403 40.0137 57.0403 35.0019V24.631Z" fill="#FCF4E9" stroke="black" stroke-width="5.18547"/>
<path d="M116.673 24.631C116.673 19.6192 112.61 15.5564 107.598 15.5564C102.587 15.5564 98.5239 19.6192 98.5239 24.631V35.0019C98.5239 40.0137 102.587 44.0765 107.598 44.0765C112.61 44.0765 116.673 40.0137 116.673 35.0019V24.631Z" fill="#FCF4E9" stroke="black" stroke-width="5.18547"/>
<path d="M49.2619 85.5603C52.1257 85.5603 54.4474 83.2387 54.4474 80.3748C54.4474 77.5109 52.1257 75.1893 49.2619 75.1893C46.398 75.1893 44.0764 77.5109 44.0764 80.3748C44.0764 83.2387 46.398 85.5603 49.2619 85.5603Z" fill="black"/>
<path d="M80.3747 85.5603C83.2385 85.5603 85.5601 83.2387 85.5601 80.3748C85.5601 77.5109 83.2385 75.1893 80.3747 75.1893C77.5108 75.1893 75.1892 77.5109 75.1892 80.3748C75.1892 83.2387 77.5108 85.5603 80.3747 85.5603Z" fill="black"/>
<path d="M111.488 85.5603C114.352 85.5603 116.673 83.2387 116.673 80.3748C116.673 77.5109 114.352 75.1893 111.488 75.1893C108.624 75.1893 106.302 77.5109 106.302 80.3748C106.302 83.2387 108.624 85.5603 111.488 85.5603Z" fill="black"/>
<path d="M49.2619 108.895C52.1257 108.895 54.4474 106.573 54.4474 103.709C54.4474 100.846 52.1257 98.5239 49.2619 98.5239C46.398 98.5239 44.0764 100.846 44.0764 103.709C44.0764 106.573 46.398 108.895 49.2619 108.895Z" fill="black"/>
<path d="M80.3747 108.895C83.2385 108.895 85.5601 106.573 85.5601 103.709C85.5601 100.846 83.2385 98.5239 80.3747 98.5239C77.5108 98.5239 75.1892 100.846 75.1892 103.709C75.1892 106.573 77.5108 108.895 80.3747 108.895Z" fill="black"/>
<path d="M111.488 108.895C114.352 108.895 116.673 106.573 116.673 103.709C116.673 100.846 114.352 98.5239 111.488 98.5239C108.624 98.5239 106.302 100.846 106.302 103.709C106.302 106.573 108.624 108.895 111.488 108.895Z" fill="black"/>
<path d="M49.2619 132.229C52.1257 132.229 54.4474 129.908 54.4474 127.044C54.4474 124.18 52.1257 121.859 49.2619 121.859C46.398 121.859 44.0764 124.18 44.0764 127.044C44.0764 129.908 46.398 132.229 49.2619 132.229Z" fill="black"/>
<path d="M80.3747 132.229C83.2385 132.229 85.5601 129.908 85.5601 127.044C85.5601 124.18 83.2385 121.859 80.3747 121.859C77.5108 121.859 75.1892 124.18 75.1892 127.044C75.1892 129.908 77.5108 132.229 80.3747 132.229Z" fill="black"/>
<path d="M111.488 132.229C114.352 132.229 116.673 129.908 116.673 127.044C116.673 124.18 114.352 121.859 111.488 121.859C108.624 121.859 106.302 124.18 106.302 127.044C106.302 129.908 108.624 132.229 111.488 132.229Z" fill="black"/>
</g>
<defs>
<clipPath id="clip0_1_424">
<rect width="155.564" height="155.564" fill="white"/>
</clipPath>
</defs>
</svg>
