<svg width="156" height="156" viewBox="0 0 156 156" fill="none" xmlns="http://www.w3.org/2000/svg">
<g clip-path="url(#clip0_1_454)">
<rect x="10.3708" y="54.4475" width="130.933" height="93.3384" fill="#FCF4E9"/>
<path d="M150.852 15.5565H18.9717C14.2216 15.5565 10.3708 19.9676 10.3708 25.4089V54.9661C10.3708 60.4074 14.2216 64.8185 18.9717 64.8185H150.852C155.602 64.8185 159.453 60.4074 159.453 54.9661V25.4089C159.453 19.9676 155.602 15.5565 150.852 15.5565Z" fill="#669999" fill-opacity="0.7"/>
<path d="M137.415 28.5201H18.1491C13.8533 28.5201 10.3708 32.0026 10.3708 36.2983V140.008C10.3708 144.303 13.8533 147.786 18.1491 147.786H137.415C141.711 147.786 145.193 144.303 145.193 140.008V36.2983C145.193 32.0026 141.711 28.5201 137.415 28.5201Z" stroke="black" stroke-width="6.48184" stroke-linecap="round" stroke-linejoin="round"/>
<path d="M57.04 24.6311C57.04 19.6193 52.9772 15.5565 47.9654 15.5565C42.9537 15.5565 38.8909 19.6193 38.8909 24.6311V35.002C38.8909 40.0138 42.9537 44.0766 47.9654 44.0766C52.9772 44.0766 57.04 40.0138 57.04 35.002V24.6311Z" fill="#FCF4E9" stroke="black" stroke-width="5.18547"/>
<path d="M116.673 24.6311C116.673 19.6193 112.61 15.5565 107.598 15.5565C102.587 15.5565 98.5237 19.6193 98.5237 24.6311V35.002C98.5237 40.0138 102.587 44.0766 107.598 44.0766C112.61 44.0766 116.673 40.0138 116.673 35.002V24.6311Z" fill="#FCF4E9" stroke="black" stroke-width="5.18547"/>
<path d="M49.2616 85.5603C52.1255 85.5603 54.4471 83.2387 54.4471 80.3748C54.4471 77.5109 52.1255 75.1893 49.2616 75.1893C46.3978 75.1893 44.0762 77.5109 44.0762 80.3748C44.0762 83.2387 46.3978 85.5603 49.2616 85.5603Z" fill="black"/>
<path d="M80.3747 85.5603C83.2385 85.5603 85.5601 83.2387 85.5601 80.3748C85.5601 77.5109 83.2385 75.1893 80.3747 75.1893C77.5108 75.1893 75.1892 77.5109 75.1892 80.3748C75.1892 83.2387 77.5108 85.5603 80.3747 85.5603Z" fill="black"/>
<path d="M111.487 85.5603C114.351 85.5603 116.673 83.2387 116.673 80.3748C116.673 77.5109 114.351 75.1893 111.487 75.1893C108.624 75.1893 106.302 77.5109 106.302 80.3748C106.302 83.2387 108.624 85.5603 111.487 85.5603Z" fill="black"/>
<path d="M49.2616 108.895C52.1255 108.895 54.4471 106.573 54.4471 103.709C54.4471 100.846 52.1255 98.5239 49.2616 98.5239C46.3978 98.5239 44.0762 100.846 44.0762 103.709C44.0762 106.573 46.3978 108.895 49.2616 108.895Z" fill="black"/>
<path d="M80.3747 108.895C83.2385 108.895 85.5601 106.573 85.5601 103.709C85.5601 100.846 83.2385 98.5239 80.3747 98.5239C77.5108 98.5239 75.1892 100.846 75.1892 103.709C75.1892 106.573 77.5108 108.895 80.3747 108.895Z" fill="black"/>
<path d="M111.487 108.895C114.351 108.895 116.673 106.573 116.673 103.709C116.673 100.846 114.351 98.5239 111.487 98.5239C108.624 98.5239 106.302 100.846 106.302 103.709C106.302 106.573 108.624 108.895 111.487 108.895Z" fill="black"/>
<path d="M49.2616 132.229C52.1255 132.229 54.4471 129.908 54.4471 127.044C54.4471 124.18 52.1255 121.859 49.2616 121.859C46.3978 121.859 44.0762 124.18 44.0762 127.044C44.0762 129.908 46.3978 132.229 49.2616 132.229Z" fill="black"/>
<path d="M80.3747 132.229C83.2385 132.229 85.5601 129.908 85.5601 127.044C85.5601 124.18 83.2385 121.859 80.3747 121.859C77.5108 121.859 75.1892 124.18 75.1892 127.044C75.1892 129.908 77.5108 132.229 80.3747 132.229Z" fill="black"/>
<path d="M111.487 132.229C114.351 132.229 116.673 129.908 116.673 127.044C116.673 124.18 114.351 121.859 111.487 121.859C108.624 121.859 106.302 124.18 106.302 127.044C106.302 129.908 108.624 132.229 111.487 132.229Z" fill="black"/>
</g>
<defs>
<clipPath id="clip0_1_454">
<rect width="155.564" height="155.564" fill="white"/>
</clipPath>
</defs>
</svg>
