<svg width="156" height="156" viewBox="0 0 156 156" fill="none" xmlns="http://www.w3.org/2000/svg">
<path d="M78.4301 25.9272H85.5602L102.413 36.2982L114.08 49.2619L119.266 66.1146V84.2638L114.08 101.117L102.413 114.08L85.5602 124.451H70.0038L53.151 114.08L41.4837 101.117L36.2982 84.2638V66.1146L41.4837 49.2619L53.151 36.2982L70.0038 25.9272H78.4301Z" fill="#669999" fill-opacity="0.7"/>
<path d="M77.782 10.3708L85.5602 25.9273L101.117 18.1491L102.413 36.2982L119.266 33.7055L114.08 49.2619L130.933 53.151L119.266 66.1146L133.526 75.1892L119.266 84.2638L130.933 97.2274L114.08 101.117L119.266 116.673L102.413 114.08L101.117 132.229L85.5602 124.451L77.782 140.008L70.0038 124.451L54.4474 132.229L53.151 114.08L36.2982 116.673L41.4837 101.117L24.6309 97.2274L36.2982 84.2638L22.0382 75.1892L36.2982 66.1146L24.6309 53.151L41.4837 49.2619L36.2982 33.7055L53.151 36.2982L54.4474 18.1491L70.0038 25.9273L77.782 10.3708Z" stroke="black" stroke-width="5.18547" stroke-linecap="round" stroke-linejoin="round"/>
<path d="M77.782 108.895C96.397 108.895 111.488 93.8042 111.488 75.1892C111.488 56.5741 96.397 41.4836 77.782 41.4836C59.1669 41.4836 44.0764 56.5741 44.0764 75.1892C44.0764 93.8042 59.1669 108.895 77.782 108.895Z" fill="#FCF4E9" fill-opacity="0.84" stroke="black" stroke-width="5.18547"/>
<path d="M59.6328 75.1892L71.3001 88.1529L95.9311 58.3364" stroke="black" stroke-width="7.7782" stroke-linecap="round" stroke-linejoin="round"/>
</svg>
