<svg width="173" height="163" viewBox="0 0 173 163" fill="none" xmlns="http://www.w3.org/2000/svg">
<path d="M11.0157 131.167C11.0157 116.978 22.5188 105.475 36.7086 105.475H147.037C161.226 105.475 172.729 116.978 172.729 131.167C172.729 145.357 161.226 156.86 147.037 156.86H36.7085C22.5188 156.86 11.0157 145.357 11.0157 131.167Z" fill="#669999" fill-opacity="0.67"/>
<mask id="path-2-outside-1_1_186" maskUnits="userSpaceOnUse" x="-0.517944" y="106.986" width="167" height="56" fill="black">
<rect fill="white" x="-0.517944" y="106.986" width="167" height="56"/>
<path d="M6.48206 131.545C6.48206 117.982 17.4776 106.986 31.0414 106.986H134.568C148.132 106.986 159.128 117.982 159.128 131.545C159.128 145.109 148.132 156.105 134.568 156.105H31.0414C17.4777 156.105 6.48206 145.109 6.48206 131.545Z"/>
</mask>
<path d="M6.48206 106.986H159.128H6.48206M165.609 134.786C165.609 150.14 153.163 162.587 137.809 162.587H27.8005C12.4468 162.587 0.000219822 150.14 0.000219822 134.786L12.9639 131.545C12.9639 141.529 21.0575 149.623 31.0414 149.623H134.568C144.552 149.623 152.646 141.529 152.646 131.545L165.609 134.786ZM27.8005 162.587C12.4468 162.587 0.000219822 150.14 0.000219822 134.786V134.786C0.000219822 119.433 12.4468 106.986 27.8005 106.986H31.0414C21.0575 106.986 12.9639 117.982 12.9639 131.545V131.545C12.9639 141.529 21.0575 149.623 31.0414 149.623L27.8005 162.587ZM137.809 106.986C153.163 106.986 165.609 119.433 165.609 134.786V134.786C165.609 150.14 153.163 162.587 137.809 162.587L134.568 149.623C144.552 149.623 152.646 141.529 152.646 131.545V131.545C152.646 117.982 144.552 106.986 134.568 106.986H137.809Z" fill="black" mask="url(#path-2-outside-1_1_186)"/>
<mask id="path-4-outside-2_1_186" maskUnits="userSpaceOnUse" x="0.237915" y="57.8672" width="167" height="56" fill="black">
<rect fill="white" x="0.237915" y="57.8672" width="167" height="56"/>
<path d="M7.23792 82.4265C7.23792 68.8628 18.2335 57.8672 31.7972 57.8672H135.324C148.888 57.8672 159.883 68.8628 159.883 82.4265C159.883 95.9902 148.888 106.986 135.324 106.986H31.7973C18.2335 106.986 7.23792 95.9902 7.23792 82.4265Z"/>
</mask>
<path d="M7.23792 57.8672H159.883H7.23792M166.365 85.6674C166.365 101.021 153.919 113.468 138.565 113.468H28.5563C13.2027 113.468 0.756079 101.021 0.756079 85.6674L13.7198 82.4265C13.7198 92.4104 21.8133 100.504 31.7972 100.504H135.324C145.308 100.504 153.402 92.4104 153.402 82.4265L166.365 85.6674ZM28.5563 113.468C13.2027 113.468 0.756079 101.021 0.756079 85.6674V85.6674C0.756079 70.3138 13.2027 57.8672 28.5563 57.8672H31.7972C21.8133 57.8672 13.7198 68.8628 13.7198 82.4265V82.4265C13.7198 92.4104 21.8133 100.504 31.7972 100.504L28.5563 113.468ZM138.565 57.8672C153.919 57.8672 166.365 70.3138 166.365 85.6674V85.6674C166.365 101.021 153.919 113.468 138.565 113.468L135.324 100.504C145.308 100.504 153.402 92.4104 153.402 82.4265V82.4265C153.402 68.8628 145.308 57.8672 135.324 57.8672H138.565Z" fill="black" mask="url(#path-4-outside-2_1_186)"/>
<rect x="3.24089" y="3.24089" width="159.127" height="55.6005" rx="27.8002" stroke="black" stroke-width="6.48184"/>
<circle cx="28.0188" cy="31.0411" r="7.17888" fill="black"/>
<circle cx="28.0188" cy="86.2051" r="7.17888" fill="black"/>
<circle cx="28.0188" cy="133.812" r="7.17888" fill="black"/>
<line x1="50.855" y1="28.6078" x2="123.067" y2="28.6078" stroke="black" stroke-width="11.6673" stroke-linecap="round"/>
<line x1="50.855" y1="83.7718" x2="123.067" y2="83.7718" stroke="black" stroke-width="11.6673" stroke-linecap="round"/>
<line x1="50.855" y1="131.379" x2="123.067" y2="131.379" stroke="black" stroke-width="11.6673" stroke-linecap="round"/>
</svg>
