<svg width="57" height="68" viewBox="0 0 57 68" fill="none" xmlns="http://www.w3.org/2000/svg">
<path d="M3.66858 54.9515C3.66858 48.9463 8.53679 44.0781 14.542 44.0781H45.7576C51.7629 44.0781 56.6311 48.9463 56.6311 54.9515C56.6311 60.9568 51.7629 65.825 45.7576 65.825H14.542C8.53678 65.825 3.66858 60.9568 3.66858 54.9515Z" fill="#C5B6C2"/>
<mask id="path-2-outside-1_1_174" maskUnits="userSpaceOnUse" x="-0.816528" y="44.718" width="56" height="23" fill="black">
<rect fill="white" x="-0.816528" y="44.718" width="56" height="23"/>
<path d="M2.18347 55.1118C2.18347 49.3715 6.83691 44.718 12.5772 44.718H41.7824C47.5227 44.718 52.1761 49.3715 52.1761 55.1118C52.1761 60.8521 47.5227 65.5055 41.7824 65.5055H12.5772C6.8369 65.5055 2.18347 60.8521 2.18347 55.1118Z"/>
</mask>
<path d="M2.18347 44.718H52.1761H2.18347M54.3595 56.2035C54.3595 62.5467 49.2173 67.6889 42.874 67.6889H11.4855C5.14232 67.6889 0.000127316 62.5467 0.000127316 56.2035L4.36682 55.1118C4.36682 59.6463 8.04274 63.3222 12.5772 63.3222H41.7824C46.3168 63.3222 49.9928 59.6463 49.9928 55.1118L54.3595 56.2035ZM11.4855 67.6889C5.14232 67.6889 0.000127316 62.5467 0.000127316 56.2035V56.2035C0.000127316 49.8602 5.14232 44.718 11.4855 44.718H12.5772C8.04274 44.718 4.36682 49.3715 4.36682 55.1118V55.1118C4.36682 59.6463 8.04274 63.3222 12.5772 63.3222L11.4855 67.6889ZM42.874 44.718C49.2173 44.718 54.3595 49.8602 54.3595 56.2035V56.2035C54.3595 62.5467 49.2173 67.6889 42.874 67.6889L41.7824 63.3222C46.3168 63.3222 49.9928 59.6463 49.9928 55.1118V55.1118C49.9928 49.3715 46.3168 44.718 41.7824 44.718H42.874Z" fill="black" mask="url(#path-2-outside-1_1_174)"/>
<mask id="path-4-outside-2_1_174" maskUnits="userSpaceOnUse" x="-0.56897" y="23.9306" width="56" height="23" fill="black">
<rect fill="white" x="-0.56897" y="23.9306" width="56" height="23"/>
<path d="M2.43103 34.3243C2.43103 28.584 7.08447 23.9306 12.8248 23.9306H42.0299C47.7702 23.9306 52.4237 28.584 52.4237 34.3243C52.4237 40.0647 47.7702 44.7181 42.0299 44.7181H12.8248C7.08446 44.7181 2.43103 40.0647 2.43103 34.3243Z"/>
</mask>
<path d="M2.43103 23.9306H52.4237H2.43103M54.607 35.416C54.607 41.7592 49.4648 46.9014 43.1216 46.9014H11.7331C5.38988 46.9014 0.247686 41.7592 0.247686 35.416L4.61437 34.3243C4.61437 38.8588 8.2903 42.5347 12.8248 42.5347H42.0299C46.5644 42.5347 50.2403 38.8588 50.2403 34.3243L54.607 35.416ZM11.7331 46.9014C5.38988 46.9014 0.247686 41.7592 0.247686 35.416V35.416C0.247686 29.0728 5.38988 23.9306 11.7331 23.9306H12.8248C8.2903 23.9306 4.61437 28.584 4.61437 34.3243V34.3243C4.61437 38.8588 8.2903 42.5347 12.8248 42.5347L11.7331 46.9014ZM43.1216 23.9306C49.4648 23.9306 54.607 29.0728 54.607 35.416V35.416C54.607 41.7592 49.4648 46.9014 43.1216 46.9014L42.0299 42.5347C46.5644 42.5347 50.2403 38.8588 50.2403 34.3243V34.3243C50.2403 28.584 46.5644 23.9306 42.0299 23.9306H43.1216Z" fill="black" mask="url(#path-4-outside-2_1_174)"/>
<rect x="1.09168" y="1.09168" width="52.176" height="22.9708" rx="11.4854" stroke="black" stroke-width="2.18334"/>
<ellipse cx="9.23713" cy="12.5771" rx="2.35114" ry="3.03817" fill="black"/>
<ellipse cx="9.23713" cy="35.9231" rx="2.35114" ry="3.03817" fill="black"/>
<ellipse cx="9.23713" cy="56.0712" rx="2.35114" ry="3.03817" fill="black"/>
<line x1="16.7704" y1="12.0517" x2="40.3116" y2="12.0517" stroke="black" stroke-width="3.93002" stroke-linecap="round"/>
<line x1="16.7704" y1="35.3971" x2="40.3116" y2="35.397" stroke="black" stroke-width="3.93002" stroke-linecap="round"/>
<line x1="16.7704" y1="55.5452" x2="40.3116" y2="55.5452" stroke="black" stroke-width="3.93002" stroke-linecap="round"/>
</svg>
