<svg width="57" height="68" viewBox="0 0 57 68" fill="none" xmlns="http://www.w3.org/2000/svg">
<path d="M3.72021 55.003C3.72021 48.9977 8.58843 44.1295 14.5937 44.1295H45.8093C51.8145 44.1295 56.6827 48.9977 56.6827 55.003C56.6827 61.0082 51.8145 65.8764 45.8093 65.8764H14.5937C8.58842 65.8764 3.72021 61.0082 3.72021 55.003Z" fill="#669999" fill-opacity="0.67"/>
<mask id="path-2-outside-1_1_198" maskUnits="userSpaceOnUse" x="-0.764771" y="44.7695" width="56" height="24" fill="black">
<rect fill="white" x="-0.764771" y="44.7695" width="56" height="24"/>
<path d="M2.23523 55.1632C2.23523 49.4229 6.88867 44.7695 12.629 44.7695H41.8341C47.5744 44.7695 52.2279 49.4229 52.2279 55.1632C52.2279 60.9035 47.5744 65.557 41.8341 65.557H12.629C6.88866 65.557 2.23523 60.9035 2.23523 55.1632Z"/>
</mask>
<path d="M2.23523 44.7695H52.2279H2.23523M54.463 56.2808C54.463 62.6383 49.3092 67.7921 42.9517 67.7921H11.5114C5.1539 67.7921 0.000113487 62.6383 0.000113487 56.2808L4.47035 55.1632C4.47035 59.6691 8.12309 63.3218 12.629 63.3218H41.8341C46.34 63.3218 49.9927 59.6691 49.9927 55.1632L54.463 56.2808ZM11.5114 67.7921C5.1539 67.7921 0.000113487 62.6383 0.000113487 56.2808V56.2808C0.000113487 49.9233 5.1539 44.7695 11.5114 44.7695H12.629C8.12309 44.7695 4.47035 49.4229 4.47035 55.1632C4.47035 59.6691 8.12309 63.3218 12.629 63.3218L11.5114 67.7921ZM42.9517 44.7695C49.3092 44.7695 54.463 49.9233 54.463 56.2808V56.2808C54.463 62.6383 49.3092 67.7921 42.9517 67.7921L41.8341 63.3218C46.34 63.3218 49.9927 59.6691 49.9927 55.1632C49.9927 49.4229 46.34 44.7695 41.8341 44.7695H42.9517Z" fill="black" mask="url(#path-2-outside-1_1_198)"/>
<mask id="path-4-outside-2_1_198" maskUnits="userSpaceOnUse" x="-0.517212" y="23.9821" width="56" height="24" fill="black">
<rect fill="white" x="-0.517212" y="23.9821" width="56" height="24"/>
<path d="M2.48279 34.3758C2.48279 28.6355 7.13622 23.9821 12.8765 23.9821H42.0817C47.822 23.9821 52.4754 28.6355 52.4754 34.3758C52.4754 40.1161 47.822 44.7695 42.0817 44.7695H12.8765C7.13622 44.7695 2.48279 40.1161 2.48279 34.3758Z"/>
</mask>
<path d="M2.48279 23.9821H52.4754H2.48279M54.7105 35.4934C54.7105 41.8509 49.5568 47.0047 43.1992 47.0047H11.759C5.40146 47.0047 0.247672 41.8509 0.247672 35.4934L4.7179 34.3758C4.7179 38.8817 8.37065 42.5344 12.8765 42.5344H42.0817C46.5876 42.5344 50.2403 38.8817 50.2403 34.3758L54.7105 35.4934ZM11.759 47.0047C5.40146 47.0047 0.247672 41.8509 0.247672 35.4934V35.4934C0.247672 29.1358 5.40146 23.9821 11.759 23.9821H12.8765C8.37065 23.9821 4.7179 28.6355 4.7179 34.3758C4.7179 38.8817 8.37065 42.5344 12.8765 42.5344L11.759 47.0047ZM43.1992 23.9821C49.5568 23.9821 54.7105 29.1358 54.7105 35.4934V35.4934C54.7105 41.8509 49.5568 47.0047 43.1992 47.0047L42.0817 42.5344C46.5876 42.5344 50.2403 38.8817 50.2403 34.3758C50.2403 28.6355 46.5876 23.9821 42.0817 23.9821H43.1992Z" fill="black" mask="url(#path-4-outside-2_1_198)"/>
<rect x="1.11755" y="1.11755" width="52.2277" height="23.0226" rx="11.5113" stroke="black" stroke-width="2.23512"/>
<ellipse cx="9.28888" cy="12.6285" rx="2.35114" ry="3.03817" fill="black"/>
<ellipse cx="9.28888" cy="35.9745" rx="2.35114" ry="3.03817" fill="black"/>
<ellipse cx="9.28888" cy="56.1226" rx="2.35114" ry="3.03817" fill="black"/>
<line x1="16.8688" y1="12.0565" x2="40.3168" y2="12.0565" stroke="black" stroke-width="4.02321" stroke-linecap="round"/>
<line x1="16.8688" y1="35.4019" x2="40.3168" y2="35.4019" stroke="black" stroke-width="4.02321" stroke-linecap="round"/>
<line x1="16.8688" y1="55.55" x2="40.3168" y2="55.55" stroke="black" stroke-width="4.02321" stroke-linecap="round"/>
</svg>
