<svg width="54" height="64" viewBox="0 0 54 64" fill="none" xmlns="http://www.w3.org/2000/svg">
<path d="M46.8027 15.5579C45.0639 16.9054 43.6678 15.0652 41.0435 11.6791C38.4193 8.29297 35.8562 6.82741 37.595 5.47982C39.3338 4.13223 42.9688 4.5141 45.593 7.9002C48.2173 11.2863 48.5415 14.2103 46.8027 15.5579Z" fill="black"/>
<path d="M6.28918 4.02087H26.2804C29.004 4.02092 31.5833 5.24496 33.3068 7.35388L44.7863 21.4008C45.3538 22.0953 45.6642 22.9648 45.6642 23.8617V57.2318C45.6642 59.9893 43.4285 62.2249 40.671 62.225H6.28918C3.53177 62.2248 1.29602 59.9893 1.29602 57.2318V9.01404C1.29615 6.25671 3.53185 4.021 6.28918 4.02087Z" fill="#B3CCCC" stroke="black" stroke-width="2.59273"/>
<path d="M34.3443 26.7876C33.1458 27.0736 31.9866 26.1869 31.9492 24.9553L31.3674 5.82857L45.7853 24.0591L34.3443 26.7876Z" fill="#669999" stroke="black" stroke-width="1.29637"/>
<path d="M18.3571 31.6899C20.9562 28.7451 25.4504 28.4648 28.3951 31.0639C31.3399 33.6631 31.6202 38.1572 29.0211 41.102L20.9371 50.2602C20.9397 50.0554 20.9468 49.8417 20.9586 49.6225C20.9748 49.3217 20.999 48.9653 21.0026 48.6801C21.0027 48.6658 21.0026 48.6515 21.0026 48.6371C21.0026 47.0269 19.8105 45.4536 18.0289 45.4536C18.0185 45.4536 18.0081 45.4544 17.9977 45.4545C17.7218 44.1034 16.6276 42.938 15.0944 42.9379C14.9422 42.9379 14.7945 42.9526 14.651 42.975C14.3875 41.6085 13.2868 40.4223 11.7399 40.4223C11.3307 40.4223 10.9096 40.4917 10.5739 40.5532C10.5576 40.5561 10.541 40.559 10.525 40.562L18.3571 31.6899Z" fill="#FCF4E9" stroke="black" stroke-width="2.59273"/>
<path d="M7.78816 41.8849C7.92807 41.3232 8.49701 40.9814 9.05871 41.1213C9.6203 41.2612 9.96214 41.8297 9.82236 42.3914L7.38525 52.182C8.13763 52.0082 8.83677 52.3395 9.43419 52.8302C10.0977 53.3751 10.8456 54.361 10.8595 55.4376L19.6236 50.6523C20.1317 50.3748 20.7686 50.5618 21.0461 51.0699C21.3234 51.578 21.1364 52.2149 20.6284 52.4924L8.16404 59.2984C6.08074 60.436 3.63991 58.5513 4.21316 56.2479L7.78816 41.8849Z" fill="black"/>
<path d="M19.0055 26.8854C19.0055 26.8854 25.8031 26.6579 29.1406 28.9306C33.3819 31.8188 34.9384 40.7219 34.9384 40.7219" stroke="black" stroke-width="2.59273" stroke-linecap="round"/>
<line x1="19.3728" y1="27.1279" x2="20.2101" y2="28.635" stroke="black" stroke-width="2.59273" stroke-linecap="round"/>
<line x1="31.9281" y1="39.0423" x2="34.6405" y2="40.3985" stroke="black" stroke-width="2.59273" stroke-linecap="round"/>
<line x1="7.58555" y1="14.636" x2="16.3136" y2="14.636" stroke="black" stroke-width="2.59273" stroke-linecap="round"/>
<rect x="34.0716" y="6.98944" width="3.44264" height="16.4306" rx="1.72132" transform="rotate(-40.2674 34.0716 6.98944)" fill="#FCF4E9" stroke="black" stroke-width="1.29637"/>
<line x1="7.58555" y1="10.024" x2="22.1836" y2="10.024" stroke="black" stroke-width="2.59273" stroke-linecap="round"/>
</svg>
