<svg width="54" height="64" viewBox="0 0 54 64" fill="none" xmlns="http://www.w3.org/2000/svg">
<path d="M46.8027 15.558C45.0639 16.9056 43.6677 15.0653 41.0435 11.6792C38.4192 8.29309 35.8561 6.82753 37.5949 5.47994C39.3337 4.13235 42.9687 4.51422 45.593 7.90032C48.2172 11.2864 48.5415 14.2104 46.8027 15.558Z" fill="black"/>
<path d="M6.28906 4.021H26.2803C29.0038 4.02104 31.5832 5.24508 33.3066 7.354L44.7861 21.4009C45.3537 22.0954 45.6641 22.9649 45.6641 23.8618V57.2319C45.6641 59.9894 43.4284 62.2251 40.6709 62.2251H6.28906C3.53165 62.225 1.2959 59.9894 1.2959 57.2319V9.01416C1.29603 6.25683 3.53173 4.02113 6.28906 4.021Z" fill="#C5B6C2" stroke="black" stroke-width="2.59273"/>
<path d="M34.3442 26.7877C33.1457 27.0737 31.9865 26.187 31.949 24.9554L31.3673 5.8287L45.7852 24.0592L34.3442 26.7877Z" fill="#5E485C" stroke="black" stroke-width="1.29637"/>
<path d="M18.3569 31.6901C20.9561 28.7453 25.4502 28.465 28.395 31.0641C31.3397 33.6633 31.6201 38.1574 29.021 41.1022L20.937 50.2604C20.9396 50.0556 20.9467 49.8418 20.9585 49.6227C20.9747 49.3219 20.9989 48.9655 21.0024 48.6803C21.0026 48.666 21.0024 48.6517 21.0024 48.6373C21.0024 47.0271 19.8104 45.4537 18.0288 45.4537C18.0184 45.4537 18.0079 45.4546 17.9976 45.4547C17.7217 44.1036 16.6274 42.9381 15.0942 42.9381C14.942 42.9381 14.7944 42.9528 14.6509 42.9752C14.3874 41.6087 13.2867 40.4225 11.7397 40.4225C11.3306 40.4225 10.9095 40.4919 10.5737 40.5533C10.5574 40.5563 10.5409 40.5592 10.5249 40.5621L18.3569 31.6901Z" fill="#FCF4E9" stroke="black" stroke-width="2.59273"/>
<path d="M7.78804 41.885C7.92795 41.3234 8.49688 40.9816 9.05859 41.1214C9.62018 41.2613 9.96202 41.8299 9.82223 42.3915L7.38513 52.1821C8.13751 52.0083 8.83665 52.3396 9.43407 52.8303C10.0975 53.3752 10.8455 54.3611 10.8594 55.4377L19.6235 50.6524C20.1316 50.3749 20.7685 50.562 21.0459 51.07C21.3232 51.5781 21.1363 52.2151 20.6283 52.4925L8.16392 59.2985C6.08062 60.4361 3.63979 58.5514 4.21304 56.2481L7.78804 41.885Z" fill="black"/>
<path d="M19.0054 26.8855C19.0054 26.8855 25.803 26.658 29.1405 28.9307C33.3818 31.8189 34.9383 40.722 34.9383 40.722" stroke="black" stroke-width="2.59273" stroke-linecap="round"/>
<line x1="19.3727" y1="27.128" x2="20.21" y2="28.6352" stroke="black" stroke-width="2.59273" stroke-linecap="round"/>
<line x1="31.928" y1="39.0424" x2="34.6404" y2="40.3987" stroke="black" stroke-width="2.59273" stroke-linecap="round"/>
<line x1="7.58549" y1="14.6361" x2="16.3135" y2="14.6361" stroke="black" stroke-width="2.59273" stroke-linecap="round"/>
<rect x="34.0715" y="6.98962" width="3.44264" height="16.4306" rx="1.72132" transform="rotate(-40.2674 34.0715 6.98962)" fill="#FCF4E9" stroke="black" stroke-width="1.29637"/>
<line x1="7.58549" y1="10.0242" x2="22.1835" y2="10.0242" stroke="black" stroke-width="2.59273" stroke-linecap="round"/>
</svg>
