<svg width="164" height="198" viewBox="0 0 164 198" fill="none" xmlns="http://www.w3.org/2000/svg">
<path d="M19.4453 12.3158H84.7793C91.1992 12.3158 97.2803 15.1992 101.343 20.1703L139.173 66.4623C140.97 68.6617 141.952 71.4148 141.952 74.2552V177.602C141.952 186.551 134.697 193.807 125.748 193.807H19.4453C10.4959 193.807 3.24121 186.551 3.24121 177.602V28.5199C3.24132 19.5705 10.4959 12.3159 19.4453 12.3158Z" fill="#FCF4E9" stroke="black" stroke-width="6.48184"/>
<path d="M105.287 70.6516C101.141 70.6514 97.6113 67.6354 96.9646 63.5399L89.7553 17.8838C89.4484 15.9389 91.8949 14.8219 93.1635 16.3277L136.218 67.4548C137.283 68.7195 136.383 70.6518 134.73 70.6518L105.287 70.6516Z" fill="#4C7373" stroke="black" stroke-width="6.48184"/>
<ellipse cx="71.9483" cy="127.044" rx="46.021" ry="42.7801" fill="#B3CCCC"/>
<path d="M97.2275 110.191L62.4687 144.95L46.6692 129.151" stroke="black" stroke-width="9.07457" stroke-linecap="round" stroke-linejoin="round"/>
</svg>
