<svg width="32" height="32" viewBox="0 0 32 32" fill="none" xmlns="http://www.w3.org/2000/svg">
<path d="M22.6479 10.3004H8.46489C7.95404 10.3004 7.53992 10.7145 7.53992 11.2253V19.3959C7.53992 19.9068 7.95404 20.3209 8.46489 20.3209H22.6479C23.1587 20.3209 23.5728 19.9068 23.5728 19.3959V11.2253C23.5728 10.7145 23.1587 10.3004 22.6479 10.3004Z" fill="#FCF4E9" stroke="black" stroke-width="0.770813" stroke-linecap="round" stroke-linejoin="round"/>
<path d="M8.15649 10.4548L13.3363 14.2996C14.7003 15.3121 16.5664 15.3121 17.9305 14.2996L23.1103 10.4548H8.15649Z" stroke="black" stroke-width="0.770813" stroke-linecap="round" stroke-linejoin="round"/>
<path d="M8.00195 19.8584L13.3976 15.696" stroke="black" stroke-width="0.462488" stroke-linecap="round"/>
<path d="M23.1099 19.7042L17.8684 15.696" stroke="black" stroke-width="0.462488" stroke-linecap="round"/>
<path d="M15.5566 0C24.1481 0.000127303 31.1133 6.96515 31.1133 15.5566C31.1132 24.148 24.148 31.1132 15.5566 31.1133C6.96515 31.1133 0.000127312 24.1481 0 15.5566C0 6.96508 6.96508 0 15.5566 0ZM8.49316 10.125C7.7696 10.1251 7.18271 10.712 7.18262 11.4355V19.6064C7.18273 20.33 7.76961 20.9169 8.49316 20.917H22.6768C23.4 20.9165 23.9862 20.3298 23.9863 19.6064V11.4355C23.9862 10.7122 23.4 10.1254 22.6768 10.125H8.49316Z" fill="#669999" fill-opacity="0.7"/>
</svg>
