<svg width="32" height="32" viewBox="0 0 32 32" fill="none" xmlns="http://www.w3.org/2000/svg">
<g clip-path="url(#clip0_1_381)">
<path d="M22.6481 10.3004H8.46514C7.95429 10.3004 7.54016 10.7145 7.54016 11.2253V19.3959C7.54016 19.9068 7.95429 20.3209 8.46514 20.3209H22.6481C23.1589 20.3209 23.5731 19.9068 23.5731 19.3959V11.2253C23.5731 10.7145 23.1589 10.3004 22.6481 10.3004Z" fill="#FCF4E9" stroke="black" stroke-width="0.770813" stroke-linecap="round" stroke-linejoin="round"/>
<path d="M8.15662 10.4548L13.3364 14.2996C14.7004 15.3121 16.5666 15.3121 17.9306 14.2996L23.1104 10.4548H8.15662Z" stroke="black" stroke-width="0.770813" stroke-linecap="round" stroke-linejoin="round"/>
<path d="M8.0022 19.8584L13.3979 15.696" stroke="black" stroke-width="0.462488" stroke-linecap="round"/>
<path d="M23.1102 19.7042L17.8687 15.696" stroke="black" stroke-width="0.462488" stroke-linecap="round"/>
</g>
<path d="M15.5566 0C24.1481 0.000127303 31.1133 6.96515 31.1133 15.5566C31.1132 24.148 24.148 31.1132 15.5566 31.1133C6.96515 31.1133 0.000127312 24.1481 0 15.5566C0 6.96508 6.96508 0 15.5566 0ZM8.49316 10.125C7.7696 10.1251 7.18271 10.712 7.18262 11.4355V19.6064C7.18273 20.33 7.76961 20.9169 8.49316 20.917H22.6768C23.4001 20.9166 23.9862 20.3298 23.9863 19.6064V11.4355C23.9862 10.7122 23.4001 10.1254 22.6768 10.125H8.49316Z" fill="#7B6178" fill-opacity="0.7"/>
<defs>
<clipPath id="clip0_1_381">
<rect width="18.4995" height="13.8746" fill="white" transform="translate(6.30652 7.98816)"/>
</clipPath>
</defs>
</svg>
