<svg width="156" height="156" viewBox="0 0 156 156" fill="none" xmlns="http://www.w3.org/2000/svg">
<path d="M77.7822 145.193C115.012 145.193 145.193 115.012 145.193 77.7818C145.193 40.5517 115.012 10.3707 77.7822 10.3707C40.5521 10.3707 10.3711 40.5517 10.3711 77.7818C10.3711 115.012 40.5521 145.193 77.7822 145.193Z" fill="#FCF4E9" fill-opacity="0.24" stroke="black" stroke-width="6.48184"/>
<path d="M77.782 10.3707C108.031 10.3707 128.772 32.8411 140.008 77.7818C128.772 122.723 108.031 145.193 77.782 145.193V10.3707Z" fill="#7B6178" fill-opacity="0.7"/>
<path d="M77.7822 103.709C115.012 103.709 145.193 92.1011 145.193 77.7818C145.193 63.4625 115.012 51.8545 77.7822 51.8545C40.5521 51.8545 10.3711 63.4625 10.3711 77.7818C10.3711 92.1011 40.5521 103.709 77.7822 103.709Z" stroke="black" stroke-width="3.8891"/>
<path d="M10.3711 77.7818H145.193" stroke="black" stroke-width="3.8891"/>
<path d="M77.7821 145.193C92.1014 145.193 103.709 115.012 103.709 77.7818C103.709 40.5517 92.1014 10.3707 77.7821 10.3707C63.4628 10.3707 51.8547 40.5517 51.8547 77.7818C51.8547 115.012 63.4628 145.193 77.7821 145.193Z" stroke="black" stroke-width="3.8891"/>
<path d="M77.782 145.193C104.989 145.193 127.044 115.012 127.044 77.7818C127.044 40.5517 104.989 10.3707 77.782 10.3707C50.5753 10.3707 28.52 40.5517 28.52 77.7818C28.52 115.012 50.5753 145.193 77.782 145.193Z" stroke="black" stroke-width="3.8891"/>
<path d="M77.782 10.3707V145.193" stroke="black" stroke-width="3.8891"/>
<path d="M77.7822 145.193C115.012 145.193 145.193 115.012 145.193 77.7818C145.193 40.5517 115.012 10.3707 77.7822 10.3707C40.5521 10.3707 10.3711 40.5517 10.3711 77.7818C10.3711 115.012 40.5521 145.193 77.7822 145.193Z" stroke="black" stroke-width="6.48184"/>
</svg>
