<svg width="133" height="129" viewBox="0 0 133 129" fill="none" xmlns="http://www.w3.org/2000/svg">
<path d="M11.5889 28.4972C11.5889 24.4726 14.6589 21.1127 18.6671 20.7505L110.709 12.4335C115.263 12.022 119.187 15.608 119.187 20.1801V117.321C119.187 121.617 115.705 125.1 111.409 125.1H19.3671C15.0713 125.1 11.5889 121.617 11.5889 117.321V28.4972Z" stroke="black" stroke-width="6.48184"/>
<rect x="43.3499" y="91.394" width="44.0765" height="33.7055" fill="#7B6178" stroke="black" stroke-width="6.48184"/>
<line x1="66.0363" y1="91.394" x2="66.0363" y2="125.099" stroke="black" stroke-width="6.48184"/>
<line x1="3.51334" y1="21.766" x2="129.286" y2="10.6684" stroke="black" stroke-width="6.48184" stroke-linecap="square"/>
<path d="M39.4609 6.4819L91.3156 6.10352e-05V64.1702H39.4609V6.4819Z" fill="#7B6178" fill-opacity="0.82"/>
<path d="M69.2771 35.7216L79.6472 35.6503L79.7107 44.7245L69.2771 44.7958V55.0956H60.2029V44.8593L49.8943 44.9306L49.8318 35.8564L60.2029 35.7841V25.2792H69.2771V35.7216Z" fill="#FCF4E9"/>
</svg>
