<svg width="133" height="129" viewBox="0 0 133 129" fill="none" xmlns="http://www.w3.org/2000/svg">
<path d="M11.5889 28.4971C11.5889 24.4726 14.6589 21.1127 18.6671 20.7505L110.709 12.4334C115.263 12.022 119.187 15.6079 119.187 20.1801V117.321C119.187 121.617 115.705 125.099 111.409 125.099H19.3671C15.0713 125.099 11.5889 121.617 11.5889 117.321V28.4971Z" stroke="black" stroke-width="6.48184"/>
<rect x="43.3499" y="91.3939" width="44.0765" height="33.7055" fill="#669999" stroke="black" stroke-width="6.48184"/>
<line x1="66.0363" y1="91.3939" x2="66.0363" y2="125.099" stroke="black" stroke-width="6.48184"/>
<line x1="3.51334" y1="21.7659" x2="129.286" y2="10.6684" stroke="black" stroke-width="6.48184" stroke-linecap="square"/>
<path d="M39.4609 6.48184L91.3156 0V64.1701H39.4609V6.48184Z" fill="#669999" fill-opacity="0.67"/>
<path d="M69.2771 35.7216L79.6472 35.6503L79.7107 44.7235L69.2771 44.7958V55.0956H60.2029V44.8583L49.8943 44.9305L49.8318 35.8563L60.2029 35.7841V25.2792H69.2771V35.7216Z" fill="#FCF4E9"/>
</svg>
