<svg width="130" height="130" viewBox="0 0 130 130" fill="none" xmlns="http://www.w3.org/2000/svg">
<path d="M71.3002 112.784C101.371 112.784 125.748 88.4069 125.748 58.3364C125.748 28.2659 101.371 3.88898 71.3002 3.88898C41.2297 3.88898 16.8528 28.2659 16.8528 58.3364C16.8528 88.4069 41.2297 112.784 71.3002 112.784Z" fill="#7B6178" fill-opacity="0.7"/>
<path d="M64.8185 119.266C94.889 119.266 119.266 94.8887 119.266 64.8182C119.266 34.7477 94.889 10.3708 64.8185 10.3708C34.748 10.3708 10.3711 34.7477 10.3711 64.8182C10.3711 94.8887 34.748 119.266 64.8185 119.266Z" stroke="black" stroke-width="6.48184"/>
<path d="M64.8185 42.78C68.3983 42.78 71.3003 39.8779 71.3003 36.2981C71.3003 32.7183 68.3983 29.8163 64.8185 29.8163C61.2387 29.8163 58.3367 32.7183 58.3367 36.2981C58.3367 39.8779 61.2387 42.78 64.8185 42.78Z" fill="#FCF4E9"/>
<path d="M64.8186 51.8546V93.3383" stroke="#FCF4E9" stroke-width="11.6673" stroke-linecap="round"/>
</svg>
