<svg width="143" height="143" viewBox="0 0 143 143" fill="none" xmlns="http://www.w3.org/2000/svg">
<path d="M119.136 1.29657H40.317C28.0741 1.29657 18.1492 11.2215 18.1492 23.4644V102.284C18.1492 114.527 28.0741 124.451 40.317 124.451H119.136C131.379 124.451 141.304 114.527 141.304 102.284V23.4644C141.304 11.2215 131.379 1.29657 119.136 1.29657Z" fill="#7B6178" fill-opacity="0.7"/>
<path d="M112.784 6.48199H29.8165C16.9292 6.48199 6.48193 16.9293 6.48193 29.8166V112.784C6.48193 125.671 16.9292 136.119 29.8165 136.119H112.784C125.671 136.119 136.119 125.671 136.119 112.784V29.8166C136.119 16.9293 125.671 6.48199 112.784 6.48199Z" stroke="black" stroke-width="6.48184"/>
<path d="M45.3729 54.4476C49.6687 54.4476 53.1511 50.9652 53.1511 46.6694C53.1511 42.3736 49.6687 38.8912 45.3729 38.8912C41.0771 38.8912 37.5947 42.3736 37.5947 46.6694C37.5947 50.9652 41.0771 54.4476 45.3729 54.4476Z" fill="#FCF4E9"/>
<path d="M45.3728 62.2258V103.71" stroke="#FCF4E9" stroke-width="12.9637" stroke-linecap="round"/>
<path d="M64.8184 103.71V71.3003C64.8184 62.2258 72.5966 58.3367 80.3748 58.3367C88.153 58.3367 93.3384 62.2258 93.3384 73.8931V103.71" stroke="#FCF4E9" stroke-width="12.9637" stroke-linecap="round" stroke-linejoin="round"/>
<path d="M64.8184 62.2258V103.71" stroke="#FCF4E9" stroke-width="12.9637" stroke-linecap="round"/>
</svg>
