<svg width="143" height="143" viewBox="0 0 143 143" fill="none" xmlns="http://www.w3.org/2000/svg">
<path d="M119.136 1.29657H40.3168C28.0738 1.29657 18.1489 11.2215 18.1489 23.4644V102.284C18.1489 114.527 28.0738 124.451 40.3168 124.451H119.136C131.379 124.451 141.304 114.527 141.304 102.284V23.4644C141.304 11.2215 131.379 1.29657 119.136 1.29657Z" fill="#669999" fill-opacity="0.7"/>
<path d="M112.784 6.48199H29.8163C16.9289 6.48199 6.48169 16.9293 6.48169 29.8166V112.784C6.48169 125.671 16.9289 136.119 29.8163 136.119H112.784C125.671 136.119 136.118 125.671 136.118 112.784V29.8166C136.118 16.9293 125.671 6.48199 112.784 6.48199Z" stroke="black" stroke-width="6.48184"/>
<path d="M45.3727 54.4476C49.6685 54.4476 53.1509 50.9652 53.1509 46.6694C53.1509 42.3736 49.6685 38.8912 45.3727 38.8912C41.0769 38.8912 37.5945 42.3736 37.5945 46.6694C37.5945 50.9652 41.0769 54.4476 45.3727 54.4476Z" fill="#FCF4E9"/>
<path d="M45.3728 62.2258V103.71" stroke="#FCF4E9" stroke-width="12.9637" stroke-linecap="round"/>
<path d="M64.8181 103.71V71.3003C64.8181 62.2258 72.5963 58.3367 80.3745 58.3367C88.1527 58.3367 93.3382 62.2258 93.3382 73.8931V103.71" stroke="#FCF4E9" stroke-width="12.9637" stroke-linecap="round" stroke-linejoin="round"/>
<path d="M64.8181 62.2258V103.71" stroke="#FCF4E9" stroke-width="12.9637" stroke-linecap="round"/>
</svg>
