<svg width="169" height="143" viewBox="0 0 169 143" fill="none" xmlns="http://www.w3.org/2000/svg">
<g clip-path="url(#clip0_1_552)">
<path d="M121.859 -0.000183105H59.6331C57.4852 -0.000183105 55.744 1.74103 55.744 3.88892V32.409C55.744 34.5569 57.4852 36.2981 59.6331 36.2981H121.859C124.007 36.2981 125.748 34.5569 125.748 32.409V3.88892C125.748 1.74103 124.007 -0.000183105 121.859 -0.000183105Z" fill="#669999" fill-opacity="0.7"/>
<path d="M115.377 10.3708H53.1512C51.0033 10.3708 49.2621 11.8632 49.2621 13.7043V38.1501C49.2621 39.9911 51.0033 41.4836 53.1512 41.4836H115.377C117.525 41.4836 119.266 39.9911 119.266 38.1501V13.7043C119.266 11.8632 117.525 10.3708 115.377 10.3708Z" stroke="black" stroke-width="6.48184" stroke-linecap="round" stroke-linejoin="round"/>
<path d="M145.193 41.4836H23.3348C17.6071 41.4836 12.9639 46.1268 12.9639 51.8545V95.931C12.9639 101.659 17.6071 106.302 23.3348 106.302H145.193C150.921 106.302 155.564 101.659 155.564 95.931V51.8545C155.564 46.1268 150.921 41.4836 145.193 41.4836Z" stroke="black" stroke-width="6.48184" stroke-linecap="round" stroke-linejoin="round"/>
<path d="M132.23 64.8182H36.2984C34.1505 64.8182 32.4093 66.5594 32.4093 68.7073C32.4093 70.8552 34.1505 72.5964 36.2984 72.5964H132.23C134.377 72.5964 136.119 70.8552 136.119 68.7073C136.119 66.5594 134.377 64.8182 132.23 64.8182Z" fill="black" fill-opacity="0.2" stroke="black" stroke-width="3.8891"/>
<path d="M125.748 101.116H42.7803C40.6324 101.116 38.8912 102.858 38.8912 105.006V128.34C38.8912 130.488 40.6324 132.229 42.7803 132.229H125.748C127.896 132.229 129.637 130.488 129.637 128.34V105.006C129.637 102.858 127.896 101.116 125.748 101.116Z" fill="#FCF4E9" stroke="black" stroke-width="6.48184" stroke-linecap="round" stroke-linejoin="round"/>
<path d="M49.2621 114.08H116.673" stroke="black" stroke-width="3.8891" stroke-linecap="round"/>
<path d="M49.2621 123.155H103.71" stroke="black" stroke-width="3.8891" stroke-linecap="round"/>
</g>
<defs>
<clipPath id="clip0_1_552">
<rect width="168.528" height="142.6" fill="white"/>
</clipPath>
</defs>
</svg>
