<svg width="169" height="143" viewBox="0 0 169 143" fill="none" xmlns="http://www.w3.org/2000/svg">
<path d="M115.377 10.3707H53.1512C51.0033 10.3707 49.2621 11.8632 49.2621 13.7042V38.15C49.2621 39.9911 51.0033 41.4835 53.1512 41.4835H115.377C117.525 41.4835 119.266 39.9911 119.266 38.15V13.7042C119.266 11.8632 117.525 10.3707 115.377 10.3707Z" fill="#FCF4E9" stroke="black" stroke-width="6.48184"/>
<path d="M155.47 47.9654H32.5037C26.7239 47.9654 22.0385 57.484 22.0385 69.2258V79.856C22.0385 91.5978 26.7239 101.116 32.5037 101.116H155.47C161.25 101.116 165.935 91.5978 165.935 79.856V69.2258C165.935 57.484 161.25 47.9654 155.47 47.9654Z" fill="#7B6178" fill-opacity="0.7"/>
<path d="M145.193 41.4835H23.3348C17.6071 41.4835 12.9639 46.1267 12.9639 51.8545V95.9309C12.9639 101.659 17.6071 106.302 23.3348 106.302H145.193C150.921 106.302 155.564 101.659 155.564 95.9309V51.8545C155.564 46.1267 150.921 41.4835 145.193 41.4835Z" stroke="black" stroke-width="6.48184" stroke-linecap="round" stroke-linejoin="round"/>
<path d="M132.23 64.8181H36.2984C34.1505 64.8181 32.4093 66.5593 32.4093 68.7072C32.4093 70.8551 34.1505 72.5963 36.2984 72.5963H132.23C134.377 72.5963 136.119 70.8551 136.119 68.7072C136.119 66.5593 134.377 64.8181 132.23 64.8181Z" fill="black" fill-opacity="0.2" stroke="black" stroke-width="3.8891"/>
<path d="M125.748 101.116H42.7803C40.6324 101.116 38.8912 102.858 38.8912 105.005V128.34C38.8912 130.488 40.6324 132.229 42.7803 132.229H125.748C127.896 132.229 129.637 130.488 129.637 128.34V105.005C129.637 102.858 127.896 101.116 125.748 101.116Z" fill="#FCF4E9" stroke="black" stroke-width="6.48184" stroke-linecap="round" stroke-linejoin="round"/>
<path d="M49.2621 114.08H116.673" stroke="black" stroke-width="3.8891" stroke-linecap="round"/>
<path d="M49.2621 123.155H103.71" stroke="black" stroke-width="3.8891" stroke-linecap="round"/>
</svg>
