<svg width="56" height="65" viewBox="0 0 56 65" fill="none" xmlns="http://www.w3.org/2000/svg">
<path d="M27.0247 14.471C27.5317 14.149 28.1791 14.149 28.6861 14.471L46.6498 25.8814C47.0973 26.1657 47.3684 26.6591 47.3684 27.1892V50.2756C47.3684 50.8058 47.0973 51.2992 46.6498 51.5834L28.6861 62.9938C28.1791 63.3159 27.5317 63.3159 27.0247 62.9938L9.06105 51.5834C8.61353 51.2992 8.34243 50.8058 8.34243 50.2756V27.1892C8.34243 26.6591 8.61353 26.1657 9.06105 25.8814L27.0247 14.471Z" fill="#FCF4E9" stroke="black" stroke-width="2.58219"/>
<path d="M27.8556 7.81477L46.882 19.9511L30.4886 31.9552L8.82874 19.1909L27.8556 7.81477Z" fill="#7B6178" fill-opacity="0.72"/>
<path d="M1.76789 37.2686C1.25653 36.945 1.1194 36.2459 1.47109 35.7555L7.68475 27.091C7.99173 26.663 8.56749 26.5452 9.01945 26.8181L28.7054 38.7043C29.2007 39.0034 29.3647 39.658 29.0688 40.1553L23.3764 49.7232C23.0848 50.2134 22.4573 50.3634 21.9751 50.0582L1.76789 37.2686Z" fill="#FCF4E9" stroke="black" stroke-width="2.58219"/>
<path d="M36.4409 50.4665C35.9416 50.8003 35.2758 50.631 34.9943 50.0986L29.9961 40.6453C29.7472 40.1745 29.8888 39.5827 30.3236 39.2771L47.1309 27.4615C47.6047 27.1284 48.2484 27.2572 48.5575 27.7469L54.4936 37.1498C54.7987 37.633 54.6609 38.2831 54.1861 38.6006L36.4409 50.4665Z" fill="#FCF4E9" stroke="black" stroke-width="2.58219"/>
</svg>
