<svg width="112" height="109" viewBox="0 0 112 109" fill="none" xmlns="http://www.w3.org/2000/svg">
<path d="M54.0226 11.6334C54.9872 11.0393 56.2042 11.0393 57.1689 11.6334L93.14 33.7858C94.0268 34.3319 94.5669 35.2989 94.5669 36.3403V80.9888C94.5669 82.0302 94.0268 82.9972 93.14 83.5433L57.1689 105.696C56.2042 106.29 54.9872 106.29 54.0226 105.696L18.0515 83.5433C17.1647 82.9972 16.6246 82.0302 16.6246 80.9888V36.3403C16.6246 35.2989 17.1647 34.3319 18.0515 33.7858L54.0226 11.6334Z" fill="#FCF4E9" stroke="black" stroke-width="5"/>
<path d="M55.3431 13.1644L91.343 35.6646L59.8431 57.6644L20.8431 34.6643L55.3431 13.1644Z" fill="#7B6178"/>
<path d="M3.45453 55.8052C2.45498 55.1918 2.19524 53.854 2.89263 52.9112L15.3212 36.1086C15.9287 35.2872 17.0578 35.0558 17.9395 35.5719L57.3335 58.6329C58.3008 59.1992 58.6139 60.4497 58.0277 61.405L46.6417 79.9599C46.064 80.9013 44.8325 81.1962 43.891 80.6185L3.45453 55.8052Z" fill="#C5B6C2" stroke="black" stroke-width="5"/>
<path d="M72.7052 81.409C71.7282 82.0424 70.4188 81.7106 69.8614 80.6884L59.8077 62.2529C59.3387 61.3929 59.5616 60.3198 60.3344 59.7177L91.6945 35.2844C92.593 34.5844 93.8939 34.775 94.5538 35.7034L108.691 55.5935C109.351 56.5212 109.104 57.8113 108.149 58.4304L72.7052 81.409Z" fill="#C5B6C2" stroke="black" stroke-width="5"/>
</svg>
