<svg width="56" height="65" viewBox="0 0 56 65" fill="none" xmlns="http://www.w3.org/2000/svg">
<path d="M27.0251 14.4551C27.5167 14.1428 28.1444 14.1428 28.6359 14.4551L46.6468 25.8955C47.0807 26.1711 47.3435 26.6494 47.3435 27.1634V50.3017C47.3435 50.8157 47.0807 51.294 46.6468 51.5696L28.6359 63.01C28.1444 63.3223 27.5167 63.3223 27.0251 63.01L9.01425 51.5696C8.58036 51.294 8.31753 50.8157 8.31753 50.3017V27.1634C8.31753 26.6494 8.58036 26.1711 9.01425 25.8955L27.0251 14.4551Z" fill="#FCF4E9" stroke="black" stroke-width="2.50352"/>
<path d="M27.8307 7.81495L46.8571 19.9512L30.4637 31.9554L8.80384 19.1911L27.8307 7.81495Z" fill="#669999" fill-opacity="0.66"/>
<path d="M1.71403 37.2504C1.21825 36.9366 1.0853 36.2589 1.42627 35.7834L7.67629 27.0682C7.97392 26.6532 8.53214 26.5391 8.97033 26.8036L28.708 38.721C29.1882 39.011 29.3472 39.6456 29.0603 40.1278L23.3354 49.7504C23.0527 50.2256 22.4443 50.3711 21.9768 50.0751L1.71403 37.2504Z" fill="#FCF4E9" stroke="black" stroke-width="2.50352"/>
<path d="M36.3878 50.4855C35.9037 50.8092 35.2582 50.6451 34.9853 50.1288L29.9578 40.6202C29.7165 40.1638 29.8538 39.59 30.2753 39.2937L47.1323 27.4432C47.5917 27.1203 48.2157 27.2451 48.5155 27.7199L54.4856 37.1766C54.7813 37.6451 54.6477 38.2754 54.1874 38.5832L36.3878 50.4855Z" fill="#FCF4E9" stroke="black" stroke-width="2.50352"/>
</svg>
