<svg width="145" height="163" viewBox="0 0 145 163" fill="none" xmlns="http://www.w3.org/2000/svg">
<path d="M70.0334 36.2576C71.2839 35.4875 72.8616 35.4875 74.1122 36.2576L120.744 64.9754C121.894 65.6833 122.594 66.9368 122.594 68.2869V126.168C122.594 127.518 121.894 128.771 120.744 129.479L74.1122 158.197C72.8616 158.967 71.2839 158.967 70.0334 158.197L23.4016 129.479C22.2521 128.771 21.5519 127.518 21.5519 126.168V68.2869C21.5519 66.9368 22.2521 65.6833 23.4016 64.9754L70.0334 36.2576Z" fill="#FCF4E9" stroke="black" stroke-width="6.48184"/>
<path d="M72.0725 19.6169L121.334 50.0814L78.8896 80.2143L22.8103 48.1732L72.0725 19.6169Z" fill="#669999" fill-opacity="0.66"/>
<path d="M4.47835 93.5208C3.18257 92.7257 2.84584 90.9914 3.74992 89.7691L19.8619 67.9868C20.6495 66.9219 22.1131 66.6219 23.2562 67.2911L74.3252 97.1866C75.5792 97.9207 75.9852 99.5418 75.2253 100.78L60.4647 124.834C59.7158 126.055 58.1193 126.437 56.8989 125.688L4.47835 93.5208Z" fill="#FCF4E9" stroke="black" stroke-width="6.48184"/>
<path d="M94.2527 126.712C92.9861 127.533 91.2887 127.103 90.566 125.778L77.6026 102.007C76.9646 100.837 77.3174 99.374 78.4186 98.6234L122.025 68.9022C123.226 68.0836 124.865 68.4119 125.658 69.6298L141.054 93.2745C141.837 94.4762 141.495 96.0848 140.292 96.8648L94.2527 126.712Z" fill="#FCF4E9" stroke="black" stroke-width="6.48184"/>
</svg>
