<svg width="156" height="169" viewBox="0 0 156 169" fill="none" xmlns="http://www.w3.org/2000/svg">
<path d="M10.3707 12.9637H101.116L127.044 38.8911V155.564H10.3707V12.9637Z" fill="#FCF4E9" stroke="black" stroke-width="6.48184" stroke-linecap="round" stroke-linejoin="round"/>
<path d="M99.8201 12.9637L94.3033 38.2491C93.1829 43.3842 97.3726 48.1292 102.607 47.6534L127.692 45.3729L99.8201 12.9637Z" fill="#669999" stroke="black" stroke-width="6.48184" stroke-linecap="round" stroke-linejoin="round"/>
<path d="M28.5199 71.3003H101.116" stroke="black" stroke-width="5.18547" stroke-linecap="round"/>
<path d="M28.5199 93.3385H101.116" stroke="black" stroke-width="5.18547" stroke-linecap="round"/>
<path d="M88.1528 143.897C108.2 143.897 124.451 127.646 124.451 107.599C124.451 87.5516 108.2 71.3003 88.1528 71.3003C68.1058 71.3003 51.8545 87.5516 51.8545 107.599C51.8545 127.646 68.1058 143.897 88.1528 143.897Z" fill="#669999" fill-opacity="0.7"/>
<path d="M97.2274 142.6C117.274 142.6 133.526 126.349 133.526 106.302C133.526 86.2552 117.274 70.0039 97.2274 70.0039C77.1804 70.0039 60.9291 86.2552 60.9291 106.302C60.9291 126.349 77.1804 142.6 97.2274 142.6Z" stroke="black" stroke-width="6.48184"/>
<path d="M124.451 133.526L149.082 158.157" stroke="black" stroke-width="10.3709" stroke-linecap="round"/>
</svg>
