<svg width="69" height="64" viewBox="0 0 69 64" fill="none" xmlns="http://www.w3.org/2000/svg">
<path d="M22.9343 39.7866C25.7325 39.7868 27.8777 41.8189 27.8777 44.1812C27.8777 46.5434 25.7325 48.5755 22.9343 48.5757C20.1359 48.5757 17.99 46.5435 17.99 44.1812C17.99 41.8188 20.136 39.7866 22.9343 39.7866Z" fill="#7B6178" fill-opacity="0.87" stroke="black" stroke-width="1.37327"/>
<path d="M47.2401 25.367C47.2401 24.6086 47.8549 23.9937 48.6134 23.9937H53.5974C58.1258 23.9937 61.7968 27.6648 61.7968 32.1932C61.7968 32.8221 61.2869 33.332 60.658 33.332H48.6134C47.8549 33.332 47.2401 32.7171 47.2401 31.9587V25.367Z" fill="black"/>
<path d="M54.3345 18.3633C55.4295 18.3633 56.4768 18.8146 57.229 19.6104L63.562 26.3105C66.5738 29.4975 68.2514 33.7167 68.2515 38.1016V42.1211C68.2513 43.562 67.083 44.7295 65.6421 44.7295H60.1157C60.1372 44.5492 60.1489 44.3661 60.1489 44.1807C60.1489 43.9001 60.1232 43.6247 60.0747 43.3564H65.6421C66.3246 43.3564 66.8782 42.8035 66.8784 42.1211V38.1016C66.8784 34.0675 65.3348 30.1859 62.564 27.2539L56.231 20.5537C55.7381 20.0324 55.0519 19.7363 54.3345 19.7363H44.769C44.6934 19.7366 44.6314 19.7984 44.6313 19.874V43.3564H48.9634C48.9149 43.6247 48.8882 43.9001 48.8882 44.1807C48.8882 44.3661 48.8999 44.5492 48.9214 44.7295H43.2583V19.874C43.2583 19.0399 43.935 18.3635 44.769 18.3633H54.3345Z" fill="black"/>
<path d="M54.7937 39.7866C57.2764 39.7866 59.1881 41.6232 59.1882 43.769C59.1882 45.915 57.2765 47.7515 54.7937 47.7515C52.3109 47.7514 50.3992 45.915 50.3992 43.769C50.3993 41.6232 52.311 39.7866 54.7937 39.7866Z" fill="#7B6178" fill-opacity="0.87" stroke="black" stroke-width="1.37327"/>
<path d="M10.162 42.0961C10.162 41.3514 10.7656 40.7478 11.5103 40.7478H43.9444V44.0436H12.1095C11.0339 44.0436 10.162 43.1717 10.162 42.0961Z" fill="#FCF4E9" stroke="black" stroke-width="1.37327"/>
<path d="M12.908 19.5995C12.908 18.0826 14.1376 16.853 15.6545 16.853H41.1973C42.7142 16.853 43.9439 18.0826 43.9439 19.5995V40.7479H12.908V19.5995Z" fill="#FCF4E9" stroke="black" stroke-width="1.37327"/>
<line x1="0.686635" y1="30.7232" x2="22.3843" y2="30.7232" stroke="black" stroke-width="1.37327" stroke-linecap="round"/>
<path d="M9.06445 15.7543C9.06445 13.3273 11.0319 11.3599 13.4589 11.3599H30.2128V27.8391H9.06445V15.7543Z" fill="#7B6178" fill-opacity="0.7"/>
<line x1="5.0808" y1="35.3922" x2="21.8347" y2="35.3922" stroke="black" stroke-width="1.37327" stroke-linecap="round"/>
</svg>
