<svg width="69" height="64" viewBox="0 0 69 64" fill="none" xmlns="http://www.w3.org/2000/svg">
<path d="M22.9343 41.0829C25.7325 41.0832 27.8777 43.1152 27.8777 45.4775C27.8777 47.8397 25.7325 49.8718 22.9343 49.872C20.1359 49.872 17.99 47.8399 17.99 45.4775C17.99 43.1151 20.136 41.0829 22.9343 41.0829Z" fill="#7CA0A0" stroke="black" stroke-width="1.37327"/>
<path d="M47.2402 26.6634C47.2402 25.9049 47.8551 25.2901 48.6135 25.2901H53.5975C58.1259 25.2901 61.7969 28.9611 61.7969 33.4895C61.7969 34.1185 61.287 34.6283 60.6581 34.6283H48.6135C47.8551 34.6283 47.2402 34.0135 47.2402 33.2551V26.6634Z" fill="black"/>
<path d="M54.3345 19.6596C55.4296 19.6596 56.4768 20.1108 57.229 20.9067L63.562 27.6069C66.5738 30.7937 68.2514 35.0131 68.2515 39.3979V43.4174C68.2513 44.8582 67.0829 46.0258 65.6421 46.0258H60.1157C60.1372 45.8455 60.1489 45.6625 60.1489 45.477C60.1489 45.1963 60.1232 44.9211 60.0747 44.6528H65.6421C66.3245 44.6527 66.8782 44.0998 66.8784 43.4174V39.3979C66.8783 35.3639 65.3348 31.4821 62.564 28.5502L56.231 21.85C55.7381 21.3286 55.0519 21.0327 54.3345 21.0327H44.769C44.6933 21.0327 44.6315 21.0946 44.6313 21.1703V44.6528H48.9634C48.9149 44.9211 48.8882 45.1963 48.8882 45.477C48.8882 45.6624 48.8999 45.8455 48.9214 46.0258H43.2583V21.1703C43.2585 20.3362 43.9349 19.6596 44.769 19.6596H54.3345Z" fill="black"/>
<path d="M54.7937 41.0829C57.2764 41.0829 59.1881 42.9195 59.1882 45.0654C59.1882 47.2113 57.2765 49.0478 54.7937 49.0478C52.3109 49.0478 50.3992 47.2113 50.3992 45.0654C50.3993 42.9195 52.311 41.083 54.7937 41.0829Z" fill="#7CA0A0" stroke="black" stroke-width="1.37327"/>
<path d="M10.1621 43.3924C10.1621 42.6478 10.7658 42.0441 11.5104 42.0441H43.9446V45.34H12.1097C11.0341 45.34 10.1621 44.468 10.1621 43.3924Z" fill="#FCF4E9" stroke="black" stroke-width="1.37327"/>
<path d="M12.908 20.8958C12.908 19.379 14.1376 18.1493 15.6545 18.1493H41.1973C42.7142 18.1493 43.9439 19.379 43.9439 20.8958V42.0442H12.908V20.8958Z" fill="#FCF4E9" stroke="black" stroke-width="1.37327"/>
<line x1="0.686635" y1="32.0196" x2="22.3843" y2="32.0196" stroke="black" stroke-width="1.37327" stroke-linecap="round"/>
<path d="M9.06384 17.0507C9.06384 14.6237 11.0313 12.6562 13.4583 12.6562H30.2122V29.1354H9.06384V17.0507Z" fill="#7CA0A0" fill-opacity="0.7"/>
<line x1="5.08092" y1="36.6885" x2="21.8348" y2="36.6885" stroke="black" stroke-width="1.37327" stroke-linecap="round"/>
</svg>
