<svg width="169" height="143" viewBox="0 0 169 143" fill="none" xmlns="http://www.w3.org/2000/svg">
<path d="M71.3002 19.4454C71.3002 13.3957 74.3251 10.3708 80.3748 10.3708H152.971C159.021 10.3708 162.046 13.3957 162.046 19.4454V84.2638C162.046 90.3135 159.021 93.3383 152.971 93.3383H139.36V109.543L123.803 93.3383H80.3748C74.3251 93.3383 71.3002 90.3135 71.3002 84.2638V19.4454Z" fill="#669999" fill-opacity="0.7"/>
<path d="M5.18555 25.9272C5.18555 19.8775 8.2104 16.8527 14.2601 16.8527H92.0421C98.0919 16.8527 101.117 19.8775 101.117 25.9272V90.7456C101.117 96.7953 98.0919 99.8202 92.0421 99.8202H42.7802L27.2238 118.617V99.8202H14.2601C8.2104 99.8202 5.18555 96.7953 5.18555 90.7456V25.9272Z" fill="#FCF4E9" stroke="black" stroke-width="6.48184" stroke-linecap="round" stroke-linejoin="round"/>
<path d="M71.9614 74.1128H54.3465V72.3354C55.1668 72.2746 56.1315 72.1303 57.2405 71.9024C58.3495 71.6593 58.904 71.3631 58.904 71.0137C58.904 70.8921 58.8888 70.7554 58.8585 70.6035C58.8433 70.4516 58.7825 70.2465 58.6762 69.9882L55.9188 63.2886H44.7529C44.4946 63.9115 44.206 64.6407 43.8869 65.4763C43.5831 66.3118 43.3172 67.0562 43.0894 67.7094C42.8007 68.5602 42.626 69.1755 42.5652 69.5553C42.5197 69.935 42.4969 70.2009 42.4969 70.3528C42.4969 70.839 42.8615 71.2567 43.5907 71.6061C44.3351 71.9404 45.5656 72.1834 47.2823 72.3354V74.1128H34.0199V72.3354C34.5212 72.305 35.0833 72.229 35.7061 72.1075C36.3442 71.9707 36.8455 71.7884 37.2101 71.5606C37.833 71.196 38.3571 70.7478 38.7825 70.2161C39.223 69.6844 39.5877 69.0539 39.8763 68.3247C41.6385 64.0558 43.4008 59.7793 45.163 55.4952C46.9405 51.2111 48.9002 46.4865 51.0423 41.3213H55.5998C58.5774 48.6437 60.9093 54.4318 62.5956 58.6855C64.2819 62.9392 65.7176 66.4637 66.9025 69.259C67.1 69.7148 67.3507 70.1325 67.6545 70.5123C67.9583 70.8769 68.3913 71.2264 68.9534 71.5606C69.3788 71.8036 69.8725 71.9859 70.4346 72.1075C70.9967 72.229 71.5056 72.305 71.9614 72.3354V74.1128ZM54.9845 61.0327L50.2903 49.3198L45.6644 61.0327H54.9845Z" fill="black"/>
<path d="M119.036 45.7495H135.261V49.706H119.036V45.7495ZM112.865 54.7514H144.626V58.8894H112.865V54.7514ZM126.332 52.4646H130.978V64.3705C130.978 65.532 130.809 66.4395 130.47 67.0928C130.155 67.7462 129.55 68.2423 128.655 68.5811C127.808 68.8957 126.792 69.0893 125.606 69.1618C124.444 69.2586 123.101 69.307 121.577 69.307C121.504 68.8715 121.359 68.3754 121.141 67.8188C120.923 67.2864 120.694 66.7541 120.452 66.2217C120.21 65.6893 119.968 65.2295 119.726 64.8424C120.476 64.8666 121.238 64.8908 122.012 64.9149C122.787 64.9149 123.488 64.9149 124.118 64.9149C124.747 64.9149 125.17 64.9149 125.388 64.9149C125.751 64.9149 125.993 64.8666 126.114 64.7698C126.259 64.673 126.332 64.5036 126.332 64.2616V52.4646ZM133.918 45.7495H135.08L136.06 45.568L138.891 47.7096C138.092 48.6049 137.197 49.5245 136.205 50.4682C135.237 51.3878 134.184 52.2589 133.047 53.0817C131.934 53.9045 130.797 54.6304 129.635 55.2596C129.369 54.8724 128.994 54.4489 128.51 53.9892C128.05 53.5052 127.663 53.118 127.348 52.8276C128.219 52.2952 129.078 51.6661 129.925 50.9401C130.772 50.2141 131.547 49.464 132.248 48.6896C132.95 47.9153 133.507 47.2256 133.918 46.6206V45.7495ZM126.296 35.2593H130.942V41.9018H126.296V35.2593ZM112.974 38.7439H144.336V48.1814H139.835V42.8819H117.257V48.1814H112.974V38.7439Z" fill="#FCF4E9"/>
</svg>
