<svg width="173" height="232" viewBox="0 0 173 232" fill="none" xmlns="http://www.w3.org/2000/svg">
<path d="M11.0071 199.875C11.0071 185.685 22.5101 174.182 36.6999 174.182H146.724C160.914 174.182 172.417 185.685 172.417 199.875C172.417 214.065 160.914 225.568 146.724 225.568H36.6999C22.5101 225.568 11.0071 214.065 11.0071 199.875Z" fill="#7B6178" fill-opacity="0.7"/>
<mask id="path-2-outside-1_1_307" maskUnits="userSpaceOnUse" x="-0.518188" y="175.694" width="166" height="56" fill="black">
<rect fill="white" x="-0.518188" y="175.694" width="166" height="56"/>
<path d="M6.48181 200.253C6.48181 186.69 17.4774 175.694 31.0411 175.694H134.281C147.845 175.694 158.84 186.69 158.84 200.253C158.84 213.817 147.845 224.813 134.281 224.813H31.0412C17.4774 224.813 6.48181 213.817 6.48181 200.253Z"/>
</mask>
<path d="M6.48181 175.694H158.84H6.48181M165.322 203.494C165.322 218.848 152.876 231.294 137.522 231.294H27.8002C12.4466 231.294 -2.43187e-05 218.848 -2.43187e-05 203.494L12.9636 200.253C12.9636 210.237 21.0572 218.331 31.0411 218.331H134.281C144.265 218.331 152.358 210.237 152.358 200.253L165.322 203.494ZM27.8002 231.294C12.4466 231.294 -2.43187e-05 218.848 -2.43187e-05 203.494V203.494C-2.43187e-05 188.141 12.4466 175.694 27.8002 175.694H31.0411C21.0572 175.694 12.9636 186.69 12.9636 200.253V200.253C12.9636 210.237 21.0572 218.331 31.0411 218.331L27.8002 231.294ZM137.522 175.694C152.876 175.694 165.322 188.141 165.322 203.494V203.494C165.322 218.848 152.876 231.294 137.522 231.294L134.281 218.331C144.265 218.331 152.358 210.237 152.358 200.253V200.253C152.358 186.69 144.265 175.694 134.281 175.694H137.522Z" fill="black" mask="url(#path-2-outside-1_1_307)"/>
<mask id="path-4-outside-2_1_307" maskUnits="userSpaceOnUse" x="0.236328" y="126.575" width="166" height="56" fill="black">
<rect fill="white" x="0.236328" y="126.575" width="166" height="56"/>
<path d="M7.23633 151.134C7.23633 137.571 18.2319 126.575 31.7957 126.575H135.035C148.599 126.575 159.595 137.571 159.595 151.134C159.595 164.698 148.599 175.694 135.035 175.694H31.7957C18.2319 175.694 7.23633 164.698 7.23633 151.134Z"/>
</mask>
<path d="M7.23633 126.575H159.595H7.23633M166.077 154.375C166.077 169.729 153.63 182.176 138.276 182.176H28.5547C13.2011 182.176 0.754492 169.729 0.754492 154.375L13.7182 151.134C13.7182 161.118 21.8117 169.212 31.7956 169.212H135.035C145.019 169.212 153.113 161.118 153.113 151.134L166.077 154.375ZM28.5547 182.176C13.2011 182.176 0.754492 169.729 0.754492 154.375V154.375C0.754492 139.022 13.2011 126.575 28.5547 126.575H31.7956C21.8117 126.575 13.7182 137.571 13.7182 151.134V151.134C13.7182 161.118 21.8117 169.212 31.7956 169.212L28.5547 182.176ZM138.276 126.575C153.63 126.575 166.077 139.022 166.077 154.375V154.375C166.077 169.729 153.63 182.176 138.276 182.176L135.035 169.212C145.019 169.212 153.113 161.118 153.113 151.134V151.134C153.113 137.571 145.019 126.575 135.035 126.575H138.276Z" fill="black" mask="url(#path-4-outside-2_1_307)"/>
<rect x="3.24089" y="71.9484" width="158.84" height="55.6005" rx="27.8002" stroke="black" stroke-width="6.48184"/>
<path d="M27.9778 93.2185C31.5759 93.2185 34.4953 96.1409 34.4954 99.7488C34.4954 103.357 31.576 106.28 27.9778 106.28C24.3797 106.28 21.4612 103.357 21.4612 99.7488C21.4613 96.141 24.3798 93.2187 27.9778 93.2185Z" fill="black" stroke="black" stroke-width="1.29637"/>
<ellipse cx="27.9781" cy="154.913" rx="7.16537" ry="7.17888" fill="black"/>
<ellipse cx="27.9781" cy="202.52" rx="7.16537" ry="7.17888" fill="black"/>
<line x1="103.061" y1="97.8758" x2="122.507" y2="97.8758" stroke="black" stroke-width="11.6673" stroke-linecap="round"/>
<line x1="57.6883" y1="97.8758" x2="77.1338" y2="97.8758" stroke="black" stroke-width="11.6673" stroke-linecap="round"/>
<line x1="103.061" y1="156.212" x2="122.507" y2="156.212" stroke="black" stroke-width="11.6673" stroke-linecap="round"/>
<line x1="103.061" y1="204.178" x2="122.507" y2="204.178" stroke="black" stroke-width="11.6673" stroke-linecap="round"/>
<line x1="57.6883" y1="204.178" x2="77.1338" y2="204.178" stroke="black" stroke-width="11.6673" stroke-linecap="round"/>
<line x1="57.6883" y1="156.212" x2="77.1338" y2="156.212" stroke="black" stroke-width="11.6673" stroke-linecap="round"/>
<path d="M94.6747 0.00012207C112.776 0.00012207 127.491 9.61312 127.846 21.5607C128.886 21.4806 129.943 21.4386 131.014 21.4386C146.72 21.4386 159.453 30.2786 159.453 41.1837C159.453 50.9676 149.204 59.0876 135.754 60.6544V60.9298H33.0575V60.8956C32.5352 60.9169 32.0084 60.9298 31.4774 60.9298C18.3888 60.9298 7.77839 54.3627 7.7782 46.2618C7.7782 38.1608 18.3887 31.5939 31.4774 31.5939C32.9962 31.5939 34.4815 31.6827 35.9208 31.8517C35.0896 30.3557 34.6376 28.7509 34.6376 27.0802C34.6376 18.9792 45.2481 12.4122 58.3368 12.4122C60.4528 12.4123 62.5039 12.5843 64.4559 12.9064C69.675 5.29382 81.2425 0.000244341 94.6747 0.00012207Z" fill="#7B6078"/>
</svg>
