<svg width="173" height="136" viewBox="0 0 173 136" fill="none" xmlns="http://www.w3.org/2000/svg">
<path d="M29.0103 85.7762H5.81112C3.67569 85.7762 1.94458 87.4954 1.94458 89.6161V129.935C1.94458 132.055 3.67569 133.775 5.81112 133.775H29.0103C31.1458 133.775 32.8769 132.055 32.8769 129.935V89.6161C32.8769 87.4954 31.1458 85.7762 29.0103 85.7762Z" fill="#669999" stroke="black" stroke-width="3.8891"/>
<path d="M74.8756 61.2434H51.6764C49.5409 61.2434 47.8098 62.9525 47.8098 65.0608V129.957C47.8098 132.065 49.5409 133.774 51.6764 133.774H74.8756C77.011 133.774 78.7421 132.065 78.7421 129.957V65.0608C78.7421 62.9525 77.011 61.2434 74.8756 61.2434Z" fill="#B3CCCC" stroke="black" stroke-width="3.8891"/>
<path d="M120.74 43.1107H97.5411C95.4057 43.1107 93.6746 44.838 93.6746 46.9687V129.916C93.6746 132.047 95.4057 133.774 97.5411 133.774H120.74C122.876 133.774 124.607 132.047 124.607 129.916V46.9687C124.607 44.838 122.876 43.1107 120.74 43.1107Z" fill="#4C7373" stroke="black" stroke-width="3.8891"/>
<path d="M166.739 28.1779H144.34C142.278 28.1779 140.606 29.897 140.606 32.0177V129.934C140.606 132.055 142.278 133.774 144.34 133.774H166.739C168.801 133.774 170.472 132.055 170.472 129.934V32.0177C170.472 29.897 168.801 28.1779 166.739 28.1779Z" fill="#FCF4E9" stroke="black" stroke-width="3.8891"/>
<path d="M24.4752 59.5385C23.5335 60.0549 23.1888 61.2369 23.7052 62.1785C24.2215 63.1202 25.4035 63.4649 26.3452 62.9485L25.4102 61.2435L24.4752 59.5385ZM126.474 7.38981C126.774 6.35882 126.182 5.27927 125.151 4.97857L108.35 0.0783005C107.319 -0.222404 106.24 0.369607 105.939 1.40059C105.638 2.43158 106.23 3.51113 107.261 3.81184L122.196 8.16763L117.84 23.1018C117.539 24.1328 118.131 25.2123 119.162 25.513C120.193 25.8137 121.273 25.2217 121.573 24.1907L126.474 7.38981ZM25.4102 61.2435L26.3452 62.9485L125.542 8.55034L124.607 6.84534L123.672 5.14033L24.4752 59.5385L25.4102 61.2435Z" fill="black"/>
</svg>
