<svg width="190" height="183" viewBox="0 0 190 183" fill="none" xmlns="http://www.w3.org/2000/svg">
<circle cx="35.002" cy="40.1875" r="15.5564" fill="#7B6178" fill-opacity="0.7"/>
<circle cx="163.342" cy="50.5585" r="15.5564" fill="#7B6178" fill-opacity="0.7"/>
<circle cx="173.713" cy="117.97" r="15.5564" fill="#7B6178" fill-opacity="0.7"/>
<circle cx="134.822" cy="167.232" r="15.5564" fill="#7B6178" fill-opacity="0.7"/>
<circle cx="63.522" cy="167.232" r="15.5564" fill="#7B6178" fill-opacity="0.7"/>
<circle cx="15.5564" cy="114.08" r="15.5564" fill="#7B6178" fill-opacity="0.7"/>
<circle cx="97.8757" cy="14.9083" r="14.9082" fill="#7B6178" fill-opacity="0.7"/>
<mask id="path-8-inside-1_1_282" fill="white">
<path d="M96.5787 2.60852C103.437 2.9461 108.894 8.61438 108.894 15.5568C108.894 21.9576 104.255 27.2731 98.1559 28.3282L101.526 83.2823L147.926 51.3116C147.008 49.5325 146.489 47.5134 146.489 45.3732C146.489 38.2135 152.293 32.4093 159.453 32.4093C166.612 32.4093 172.417 38.2135 172.417 45.3732C172.417 52.5328 166.612 58.337 159.453 58.337C155.538 58.337 152.032 56.5994 149.655 53.8566L107.694 90.8546L160.664 106.011C162.728 101.589 167.214 98.5245 172.417 98.5245C179.576 98.5246 185.38 104.328 185.38 111.487C185.38 112.018 185.347 112.542 185.285 113.056L186.945 113.531L185.259 113.257C184.397 119.58 178.976 124.451 172.417 124.451C165.257 124.451 159.453 118.647 159.453 111.487C159.453 110.672 159.528 109.874 159.672 109.1L105.493 100.298L127.219 152.215C128.396 151.864 129.642 151.675 130.932 151.675C138.092 151.675 143.896 157.479 143.896 164.639C143.896 171.798 138.092 177.603 130.932 177.603C123.773 177.602 117.969 171.798 117.969 164.639C117.969 159.844 120.573 155.657 124.443 153.414L96.5787 104.5L69.7916 151.523C73.0594 153.876 75.189 157.711 75.1891 162.046C75.1891 169.206 69.3849 175.01 62.2252 175.01C60.3771 175.01 58.6199 174.622 57.0289 173.925L56.3619 175.098L56.8795 173.859C52.3868 171.823 49.2614 167.3 49.2614 162.046C49.2614 154.886 55.0657 149.082 62.2252 149.082C63.8686 149.082 65.4406 149.389 66.8873 149.946L87.6656 100.298L32.2242 109.305C32.3446 110.014 32.4088 110.743 32.4088 111.487C32.4088 118.647 26.6046 124.451 19.4449 124.451C12.9569 124.451 7.58164 119.685 6.63049 113.463L6.21252 113.531L6.62366 113.413C6.53012 112.785 6.48108 112.142 6.48108 111.487C6.4813 104.328 12.2855 98.5247 19.4449 98.5245C24.7749 98.5245 29.3532 101.741 31.3453 106.339L85.4635 90.8546L42.7477 53.1915C40.3807 56.3166 36.6314 58.337 32.4088 58.337C25.2492 58.337 19.445 52.5328 19.4449 45.3732C19.4449 38.2135 25.2492 32.4093 32.4088 32.4093C39.5685 32.4093 45.3727 38.2135 45.3727 45.3732C45.3727 47.2486 44.973 49.0304 44.2565 50.6398L91.6324 83.2823L94.9908 28.4855C88.2701 28.0039 82.9675 22.4002 82.9674 15.5568C82.9674 8.39712 88.7716 2.5929 95.9313 2.5929C96.148 2.5929 96.3636 2.598 96.5778 2.60852L96.5787 2.5929V2.60852Z"/>
</mask>
<path d="M96.5787 2.60852H90.0969V8.77917L96.2601 9.08252L96.5787 2.60852ZM108.894 15.5568L115.376 15.5568V15.5568H108.894ZM98.1559 28.3282L97.0509 21.9413L91.3309 22.9309L91.6862 28.725L98.1559 28.3282ZM101.526 83.2823L95.0563 83.6791L95.7584 95.1278L105.204 88.6199L101.526 83.2823ZM147.926 51.3116L151.604 56.6492L156.305 53.4104L153.686 48.3382L147.926 51.3116ZM146.489 45.3732H140.007V45.3732L146.489 45.3732ZM159.453 32.4093V25.9275H159.453L159.453 32.4093ZM172.417 45.3732L178.898 45.3732V45.3732H172.417ZM159.453 58.337L159.453 64.8189H159.453V58.337ZM149.655 53.8566L154.553 49.6116L150.272 44.671L145.368 48.9947L149.655 53.8566ZM107.694 90.8546L103.407 85.9928L94.5215 93.8275L105.911 97.0864L107.694 90.8546ZM160.664 106.011L158.881 112.243L164.198 113.764L166.537 108.753L160.664 106.011ZM172.417 98.5245L172.417 92.0427H172.417V98.5245ZM185.38 111.487H191.862V111.487L185.38 111.487ZM185.285 113.056L178.85 112.28L178.188 117.765L183.5 119.287L185.285 113.056ZM186.945 113.531L185.903 119.929L188.73 107.3L186.945 113.531ZM185.259 113.257L186.301 106.859L179.736 105.791L178.837 112.381L185.259 113.257ZM172.417 124.451V130.933H172.417L172.417 124.451ZM159.453 111.487L152.971 111.487V111.487H159.453ZM159.672 109.1L166.045 110.286L167.259 103.765L160.712 102.702L159.672 109.1ZM105.493 100.298L106.532 93.9L95.0051 92.0274L99.5134 102.8L105.493 100.298ZM127.219 152.215L121.24 154.717L123.489 160.093L129.073 158.426L127.219 152.215ZM130.932 151.675V145.193H130.932L130.932 151.675ZM143.896 164.639H150.378V164.639L143.896 164.639ZM130.932 177.603L130.932 184.085H130.932V177.603ZM117.969 164.639L111.488 164.639V164.639H117.969ZM124.443 153.414L127.693 159.023L133.26 155.797L130.075 150.206L124.443 153.414ZM96.5787 104.5L102.211 101.292L96.5788 91.405L90.9467 101.292L96.5787 104.5ZM69.7916 151.523L64.1595 148.314L61.2755 153.377L66.0034 156.782L69.7916 151.523ZM75.1891 162.046H81.6709V162.046L75.1891 162.046ZM62.2252 175.01L62.2252 181.492H62.2252V175.01ZM57.0289 173.925L59.6298 167.988L54.2812 165.645L51.3945 170.721L57.0289 173.925ZM56.3619 175.098L50.3815 172.598L61.9964 178.302L56.3619 175.098ZM56.8795 173.859L62.86 176.359L65.2867 170.553L59.5553 167.956L56.8795 173.859ZM49.2614 162.046L42.7795 162.046V162.046H49.2614ZM62.2252 149.082V142.6H62.2252L62.2252 149.082ZM66.8873 149.946L64.5555 155.994L70.4342 158.261L72.8666 152.449L66.8873 149.946ZM87.6656 100.298L93.645 102.8L98.1536 92.0273L86.6263 93.9L87.6656 100.298ZM32.2242 109.305L31.1849 102.907L24.7423 103.953L25.8337 110.389L32.2242 109.305ZM32.4088 111.487H38.8906V111.487L32.4088 111.487ZM19.4449 124.451L19.4448 130.933H19.4449V124.451ZM6.63049 113.463L13.0379 112.484L12.0482 106.009L5.58428 107.066L6.63049 113.463ZM6.21252 113.531L4.42206 107.302L7.25874 119.928L6.21252 113.531ZM6.62366 113.413L8.41412 119.643L13.871 118.074L13.0348 112.459L6.62366 113.413ZM6.48108 111.487L-0.000756741 111.487V111.487H6.48108ZM19.4449 98.5245V92.0427H19.4448L19.4449 98.5245ZM31.3453 106.339L25.3977 108.916L27.6592 114.136L33.1284 112.571L31.3453 106.339ZM85.4635 90.8546L87.2465 97.0864L98.6362 93.8276L89.7503 85.9927L85.4635 90.8546ZM42.7477 53.1915L47.0345 48.3297L41.7967 43.7115L37.5806 49.278L42.7477 53.1915ZM32.4088 58.337L32.4088 64.8189H32.4088V58.337ZM19.4449 45.3732H12.9631V45.3732L19.4449 45.3732ZM32.4088 32.4093V25.9275H32.4088L32.4088 32.4093ZM45.3727 45.3732L51.8545 45.3732V45.3732H45.3727ZM44.2565 50.6398L38.335 48.0035L36.1451 52.9224L40.5788 55.9773L44.2565 50.6398ZM91.6324 83.2823L87.9548 88.6199L97.4004 95.128L98.1021 83.6789L91.6324 83.2823ZM94.9908 28.4855L101.461 28.882L101.853 22.4788L95.4542 22.0202L94.9908 28.4855ZM82.9674 15.5568H76.4856V15.5568L82.9674 15.5568ZM95.9313 2.5929L95.9315 -3.88894H95.9313V2.5929ZM96.5778 2.60852L96.2596 9.08254L102.648 9.3965L103.047 3.01285L96.5778 2.60852ZM96.5787 2.5929H103.061L90.1095 2.18857L96.5787 2.5929ZM96.5787 2.60852L96.2601 9.08252C99.6835 9.25102 102.412 12.0869 102.412 15.5568H108.894H115.376C115.376 5.14183 107.191 -3.35882 96.8974 -3.86548L96.5787 2.60852ZM108.894 15.5568L102.412 15.5567C102.412 18.7494 100.097 21.4143 97.0509 21.9413L98.1559 28.3282L99.2608 34.7152C108.413 33.1318 115.376 25.1657 115.376 15.5568L108.894 15.5568ZM98.1559 28.3282L91.6862 28.725L95.0563 83.6791L101.526 83.2823L107.996 82.8856L104.626 27.9315L98.1559 28.3282ZM101.526 83.2823L105.204 88.6199L151.604 56.6492L147.926 51.3116L144.249 45.9741L97.8484 77.9448L101.526 83.2823ZM147.926 51.3116L153.686 48.3382C153.231 47.4561 152.971 46.4541 152.971 45.3731L146.489 45.3732L140.007 45.3732C140.007 48.5728 140.785 51.6089 142.167 54.2851L147.926 51.3116ZM146.489 45.3732H152.971C152.971 41.7934 155.873 38.8912 159.453 38.8911L159.453 32.4093L159.453 25.9275C148.713 25.9275 140.007 34.6337 140.007 45.3732H146.489ZM159.453 32.4093V38.8911C163.033 38.8911 165.935 41.7934 165.935 45.3732H172.417H178.898C178.898 34.6337 170.192 25.9275 159.453 25.9275V32.4093ZM172.417 45.3732L165.935 45.3731C165.935 48.953 163.033 51.8552 159.453 51.8552V58.337V64.8189C170.192 64.8189 178.898 56.1126 178.898 45.3732L172.417 45.3732ZM159.453 58.337L159.453 51.8552C157.501 51.8552 155.755 50.9978 154.553 49.6116L149.655 53.8566L144.757 58.1015C148.309 62.2011 153.575 64.8189 159.453 64.8189L159.453 58.337ZM149.655 53.8566L145.368 48.9947L103.407 85.9928L107.694 90.8546L111.981 95.7165L153.942 58.7184L149.655 53.8566ZM107.694 90.8546L105.911 97.0864L158.881 112.243L160.664 106.011L162.447 99.7791L109.477 84.6229L107.694 90.8546ZM160.664 106.011L166.537 108.753C167.576 106.527 169.825 105.006 172.417 105.006V98.5245V92.0427C164.603 92.0427 157.88 96.6506 154.79 103.269L160.664 106.011ZM172.417 98.5245L172.417 105.006C175.997 105.006 178.899 107.908 178.899 111.488L185.38 111.487L191.862 111.487C191.862 100.748 183.155 92.0428 172.417 92.0427L172.417 98.5245ZM185.38 111.487H178.899C178.899 111.744 178.882 112.008 178.85 112.28L185.285 113.056L191.72 113.832C191.811 113.076 191.862 112.293 191.862 111.487H185.38ZM185.285 113.056L183.5 119.287L185.16 119.763L186.945 113.531L188.73 107.3L187.07 106.825L185.285 113.056ZM186.945 113.531L187.986 107.134L186.301 106.859L185.259 113.257L184.218 119.655L185.903 119.929L186.945 113.531ZM185.259 113.257L178.837 112.381C178.406 115.536 175.69 117.969 172.417 117.969L172.417 124.451L172.417 130.933C182.262 130.933 190.387 123.623 191.682 114.133L185.259 113.257ZM172.417 124.451V117.969C168.837 117.969 165.935 115.067 165.935 111.487H159.453H152.971C152.971 122.227 161.677 130.933 172.417 130.933V124.451ZM159.453 111.487L165.935 111.488C165.935 111.073 165.973 110.672 166.045 110.286L159.672 109.1L153.3 107.913C153.084 109.075 152.971 110.27 152.971 111.487L159.453 111.487ZM159.672 109.1L160.712 102.702L106.532 93.9L105.493 100.298L104.453 106.696L158.633 115.498L159.672 109.1ZM105.493 100.298L99.5134 102.8L121.24 154.717L127.219 152.215L133.199 149.713L111.472 97.7957L105.493 100.298ZM127.219 152.215L129.073 158.426C129.656 158.252 130.278 158.157 130.932 158.157L130.932 151.675L130.932 145.193C129.006 145.193 127.136 145.476 125.366 146.004L127.219 152.215ZM130.932 151.675V158.157C134.512 158.157 137.414 161.059 137.414 164.639L143.896 164.639L150.378 164.639C150.378 153.899 141.672 145.193 130.932 145.193V151.675ZM143.896 164.639H137.414C137.414 168.219 134.512 171.121 130.932 171.121V177.603V184.085C141.672 184.085 150.378 175.378 150.378 164.639H143.896ZM130.932 177.603L130.932 171.121C127.353 171.121 124.451 168.219 124.451 164.639H117.969H111.488C111.488 175.378 120.193 184.084 130.932 184.085L130.932 177.603ZM117.969 164.639L124.451 164.639C124.451 162.249 125.741 160.154 127.693 159.023L124.443 153.414L121.193 147.806C115.404 151.16 111.488 157.438 111.488 164.639L117.969 164.639ZM124.443 153.414L130.075 150.206L102.211 101.292L96.5787 104.5L90.9466 107.708L118.811 156.623L124.443 153.414ZM96.5787 104.5L90.9467 101.292L64.1595 148.314L69.7916 151.523L75.4237 154.731L102.211 107.709L96.5787 104.5ZM69.7916 151.523L66.0034 156.782C67.6557 157.972 68.7072 159.887 68.7073 162.046L75.1891 162.046L81.6709 162.046C81.6709 155.535 78.4631 149.78 73.5799 146.263L69.7916 151.523ZM75.1891 162.046H68.7073C68.7073 165.626 65.805 168.528 62.2252 168.528V175.01V181.492C72.9647 181.492 81.6709 172.785 81.6709 162.046H75.1891ZM62.2252 175.01L62.2252 168.528C61.2926 168.528 60.4194 168.334 59.6298 167.988L57.0289 173.925L54.428 179.862C56.8203 180.91 59.4616 181.492 62.2252 181.492L62.2252 175.01ZM57.0289 173.925L51.3945 170.721L50.7275 171.894L56.3619 175.098L61.9964 178.302L62.6634 177.129L57.0289 173.925ZM56.3619 175.098L62.3424 177.597L62.86 176.359L56.8795 173.859L50.8991 171.36L50.3815 172.598L56.3619 175.098ZM56.8795 173.859L59.5553 167.956C57.2944 166.931 55.7432 164.662 55.7432 162.046H49.2614H42.7795C42.7795 169.937 47.4793 176.716 54.2037 179.763L56.8795 173.859ZM49.2614 162.046L55.7432 162.046C55.7432 158.466 58.6455 155.564 62.2252 155.564L62.2252 149.082L62.2252 142.6C51.4858 142.6 42.7796 151.307 42.7795 162.046L49.2614 162.046ZM62.2252 149.082V155.564C63.057 155.564 63.8393 155.718 64.5555 155.994L66.8873 149.946L69.2191 143.899C67.0419 143.059 64.6803 142.6 62.2252 142.6V149.082ZM66.8873 149.946L72.8666 152.449L93.645 102.8L87.6656 100.298L81.6863 97.7956L60.908 147.444L66.8873 149.946ZM87.6656 100.298L86.6263 93.9L31.1849 102.907L32.2242 109.305L33.2636 115.703L88.705 106.696L87.6656 100.298ZM32.2242 109.305L25.8337 110.389C25.8951 110.751 25.927 111.117 25.927 111.488L32.4088 111.487L38.8906 111.487C38.8906 110.37 38.7941 109.278 38.6148 108.221L32.2242 109.305ZM32.4088 111.487H25.927C25.927 115.067 23.0248 117.969 19.4449 117.969V124.451V130.933C30.1844 130.933 38.8906 122.227 38.8906 111.487H32.4088ZM19.4449 124.451L19.4451 117.969C16.2064 117.969 13.5125 115.588 13.0379 112.484L6.63049 113.463L0.223088 114.442C1.65076 123.782 9.70739 130.933 19.4448 130.933L19.4449 124.451ZM6.63049 113.463L5.58428 107.066L5.16631 107.135L6.21252 113.531L7.25874 119.928L7.67671 119.86L6.63049 113.463ZM6.21252 113.531L8.00299 119.761L8.41412 119.643L6.62366 113.413L4.83319 107.184L4.42206 107.302L6.21252 113.531ZM6.62366 113.413L13.0348 112.459C12.9876 112.142 12.9629 111.817 12.9629 111.487H6.48108H-0.000756741C-0.000756741 112.466 0.0726056 113.428 0.212497 114.368L6.62366 113.413ZM6.48108 111.487L12.9629 111.488C12.963 107.908 15.8648 105.006 19.4451 105.006L19.4449 98.5245L19.4448 92.0427C8.70624 92.0429 -0.00042057 100.748 -0.000756741 111.487L6.48108 111.487ZM19.4449 98.5245V105.006C22.0997 105.006 24.3958 106.603 25.3977 108.916L31.3453 106.339L37.2929 103.762C34.3106 96.8788 27.4502 92.0427 19.4449 92.0427V98.5245ZM31.3453 106.339L33.1284 112.571L87.2465 97.0864L85.4635 90.8546L83.6805 84.6228L29.5623 100.107L31.3453 106.339ZM85.4635 90.8546L89.7503 85.9927L47.0345 48.3297L42.7477 53.1915L38.4609 58.0534L81.1767 95.7165L85.4635 90.8546ZM42.7477 53.1915L37.5806 49.278C36.3846 50.8572 34.5135 51.8552 32.4088 51.8552V58.337V64.8189C38.7493 64.8189 44.3769 61.7761 47.9147 57.1051L42.7477 53.1915ZM32.4088 58.337L32.4088 51.8552C28.829 51.8552 25.9268 48.953 25.9268 45.3731L19.4449 45.3732L12.9631 45.3732C12.9632 56.1126 21.6694 64.8189 32.4088 64.8189L32.4088 58.337ZM19.4449 45.3732H25.9268C25.9268 41.7934 28.829 38.8911 32.4088 38.8911L32.4088 32.4093L32.4088 25.9275C21.6694 25.9275 12.9631 34.6337 12.9631 45.3732H19.4449ZM32.4088 32.4093V38.8911C35.9886 38.8911 38.8908 41.7934 38.8908 45.3732H45.3727H51.8545C51.8545 34.6337 43.1483 25.9275 32.4088 25.9275V32.4093ZM45.3727 45.3732L38.8908 45.3731C38.8908 46.319 38.6908 47.2043 38.335 48.0035L44.2565 50.6398L50.178 53.276C51.2552 50.8564 51.8545 48.1781 51.8545 45.3732L45.3727 45.3732ZM44.2565 50.6398L40.5788 55.9773L87.9548 88.6199L91.6324 83.2823L95.3101 77.9448L47.9341 45.3022L44.2565 50.6398ZM91.6324 83.2823L98.1021 83.6789L101.461 28.882L94.9908 28.4855L88.5211 28.089L85.1628 82.8858L91.6324 83.2823ZM94.9908 28.4855L95.4542 22.0202C92.0995 21.7798 89.4493 18.9749 89.4492 15.5567L82.9674 15.5568L76.4856 15.5568C76.4856 25.8255 84.4407 34.2279 94.5275 34.9507L94.9908 28.4855ZM82.9674 15.5568H89.4492C89.4492 11.9769 92.3515 9.07473 95.9313 9.07473V2.5929V-3.88894C85.1918 -3.88894 76.4856 4.81731 76.4856 15.5568H82.9674ZM95.9313 2.5929L95.9311 9.07473C96.0465 9.07474 96.156 9.07745 96.2596 9.08254L96.5778 2.60852L96.8959 -3.8655C96.5712 -3.88146 96.2496 -3.88893 95.9315 -3.88894L95.9313 2.5929ZM96.5778 2.60852L103.047 3.01285L103.048 2.99722L96.5787 2.5929L90.1095 2.18857L90.1085 2.20419L96.5778 2.60852ZM96.5787 2.5929H90.0969V2.60852H96.5787H103.061V2.5929H96.5787Z" fill="black" mask="url(#path-8-inside-1_1_282)"/>
<ellipse cx="97.2275" cy="92.0422" rx="44.0765" ry="41.4837" fill="#FCF4E9"/>
<path d="M97.2272 53.7997C119.968 53.7997 138.063 71.1034 138.063 92.0419C138.063 112.981 119.968 130.285 97.2272 130.285C74.4866 130.285 56.3922 112.98 56.3922 92.0419C56.3924 71.1035 74.4867 53.7998 97.2272 53.7997Z" stroke="black" stroke-width="6.48184"/>
</svg>
