<svg width="172" height="163" viewBox="0 0 172 163" fill="none" xmlns="http://www.w3.org/2000/svg">
<path d="M45.3731 62.2256L31.113 76.4857L24.6312 70.0038" stroke="#7B6078" stroke-width="5.18547" stroke-linecap="round" stroke-linejoin="round"/>
<path d="M42.7804 92.0421L28.5203 106.302L22.0385 99.8203" stroke="black" stroke-width="5.18547" stroke-linecap="round" stroke-linejoin="round"/>
<path d="M42.7804 121.859L28.5203 136.119L22.0385 129.637" stroke="black" stroke-width="5.18547" stroke-linecap="round" stroke-linejoin="round"/>
<path d="M106.303 23.3346C118.474 23.3348 128.341 33.2017 128.341 45.3727V59.1628C126.146 59.364 123.976 59.7347 121.86 60.276V45.3727C121.859 36.9157 115.11 30.034 106.704 29.821L106.303 29.8161H22.0393L21.6379 29.821C13.2319 30.0337 6.48287 36.9155 6.48264 45.3727V140.007L6.48752 140.409C6.69713 148.682 13.3652 155.349 21.6379 155.558L22.0393 155.564H106.303L106.704 155.558C114.977 155.349 121.645 148.681 121.855 140.409L121.86 140.007V121.715C123.977 122.256 126.146 122.632 128.341 122.834V140.007C128.341 152.179 118.474 162.045 106.303 162.046H22.0393C9.86796 162.046 0.00129739 152.179 0.00119019 140.007V45.3727C0.00142778 33.2015 9.86803 23.3346 22.0393 23.3346H106.303Z" fill="black"/>
<line x1="56.3922" y1="65.4666" x2="100.469" y2="65.4666" stroke="black" stroke-width="3.8891" stroke-linecap="round"/>
<line x1="56.3922" y1="74.5411" x2="74.5414" y2="74.5411" stroke="black" stroke-width="3.8891" stroke-linecap="round"/>
<line x1="52.5031" y1="101.765" x2="81.0232" y2="101.765" stroke="black" stroke-width="3.8891" stroke-linecap="round"/>
<line x1="52.5031" y1="92.6902" x2="87.505" y2="92.6902" stroke="black" stroke-width="3.8891" stroke-linecap="round"/>
<line x1="52.5031" y1="121.21" x2="87.505" y2="121.21" stroke="black" stroke-width="3.8891" stroke-linecap="round"/>
<line x1="52.5031" y1="131.581" x2="73.245" y2="131.581" stroke="black" stroke-width="3.8891" stroke-linecap="round"/>
<path d="M64.8186 3.24063C71.9392 3.24063 77.8926 8.23332 79.3723 14.9086H86.8567C94.3742 14.9086 100.469 21.0024 100.469 28.5199C100.469 36.0375 94.3743 42.1322 86.8567 42.1322H42.7805C35.2629 42.1322 29.1682 36.0375 29.1682 28.5199C29.1683 21.0024 35.2629 14.9086 42.7805 14.9086H50.2649C51.7446 8.23332 57.698 3.24063 64.8186 3.24063Z" fill="#7B6078" stroke="black" stroke-width="6.48184"/>
<path d="M171.121 89.7735C171.134 94.051 169.957 98.2708 167.685 102.089C164.992 106.664 160.852 110.513 155.728 113.203C150.604 115.893 144.7 117.319 138.675 117.321C133.637 117.332 128.668 116.333 124.171 114.404L102.413 120.562L109.666 102.089C107.394 98.2708 106.217 94.051 106.23 89.7735C106.233 84.6585 107.912 79.6451 111.081 75.2949C114.249 70.9446 118.782 67.4292 124.171 65.1425C128.668 63.214 133.637 62.2146 138.675 62.2257H140.584C148.54 62.5984 156.055 65.4496 161.689 70.2335C167.324 75.0175 170.682 81.3978 171.121 88.153V89.7735Z" fill="#7B6178" fill-opacity="0.8"/>
</svg>
