<svg width="169" height="130" viewBox="0 0 169 130" fill="none" xmlns="http://www.w3.org/2000/svg">
<g clip-path="url(#clip0_1_246)">
<path d="M150.379 32.4093H18.1492C13.8535 32.4093 10.371 35.8917 10.371 40.1875V117.97C10.371 122.265 13.8535 125.748 18.1492 125.748H150.379C154.674 125.748 158.157 122.265 158.157 117.97V40.1875C158.157 35.8917 154.674 32.4093 150.379 32.4093Z" fill="#FCF4E9" stroke="black" stroke-width="6.48184" stroke-linecap="round" stroke-linejoin="round"/>
<path d="M11.0192 36.2389L74.1087 77.0615C88.7855 86.5582 108.072 84.6853 120.647 72.5419L157.509 36.9463L11.0192 36.2389Z" fill="#669999" fill-opacity="0.7"/>
<path d="M14.2601 35.0021L66.6085 68.9826C79.6002 77.4158 96.4342 77.0181 109.013 67.9808L154.916 35.0021H14.2601Z" stroke="black" stroke-width="6.48184" stroke-linecap="round" stroke-linejoin="round"/>
<path d="M45.3729 114.08C56.8283 114.08 66.1148 104.794 66.1148 93.3386C66.1148 81.8831 56.8283 72.5967 45.3729 72.5967C33.9175 72.5967 24.631 81.8831 24.631 93.3386C24.631 104.794 33.9175 114.08 45.3729 114.08Z" fill="#669999" stroke="black" stroke-width="5.18547"/>
<path d="M45.3731 82.9677L47.9659 90.7459H55.7441L49.2622 95.9313L51.855 103.71L45.3731 98.5241L38.8913 103.71L41.484 95.9313L35.0022 90.7459H42.7804L45.3731 82.9677Z" fill="#FCF4E9" stroke="black" stroke-width="2.59273" stroke-linecap="round" stroke-linejoin="round"/>
</g>
<defs>
<clipPath id="clip0_1_246">
<rect width="168.528" height="129.637" fill="white"/>
</clipPath>
</defs>
</svg>
