<svg width="169" height="130" viewBox="0 0 169 130" fill="none" xmlns="http://www.w3.org/2000/svg">
<g clip-path="url(#clip0_1_239)">
<path d="M150.379 32.4093H18.1493C13.8535 32.4093 10.3711 35.8917 10.3711 40.1875V117.97C10.3711 122.265 13.8535 125.748 18.1493 125.748H150.379C154.675 125.748 158.157 122.265 158.157 117.97V40.1875C158.157 35.8917 154.675 32.4093 150.379 32.4093Z" fill="#FCF4E9" stroke="black" stroke-width="6.48184" stroke-linecap="round" stroke-linejoin="round"/>
<path d="M11.6675 36.2983L75.0411 77.3048C89.5871 86.7169 108.682 84.9694 121.278 73.0732L158.157 38.2429L11.6675 36.2983Z" fill="#7B6178" fill-opacity="0.7"/>
<path d="M14.2602 35.0021L66.6085 68.9826C79.6002 77.4158 96.4343 77.0181 109.013 67.9808L154.916 35.0021H14.2602Z" stroke="black" stroke-width="6.48184" stroke-linecap="round" stroke-linejoin="round"/>
<path d="M42.6048 114.29C53.441 114.29 62.2255 105.506 62.2255 94.6695C62.2255 83.8333 53.441 75.0488 42.6048 75.0488C31.7686 75.0488 22.9841 83.8333 22.9841 94.6695C22.9841 105.506 31.7686 114.29 42.6048 114.29Z" fill="#7B6078" stroke="black" stroke-width="4.90517"/>
<path d="M42.6048 84.859L45.0574 92.2168H52.4152L46.2837 97.1219L48.7363 104.48L42.6048 99.5745L36.4734 104.48L38.926 97.1219L32.7945 92.2168H40.1523L42.6048 84.859Z" fill="#FCF4E9" stroke="black" stroke-width="2.45259" stroke-linecap="round" stroke-linejoin="round"/>
</g>
<defs>
<clipPath id="clip0_1_239">
<rect width="168.528" height="129.637" fill="white"/>
</clipPath>
</defs>
</svg>
