<svg width="143" height="143" viewBox="0 0 143 143" fill="none" xmlns="http://www.w3.org/2000/svg">
<path d="M77.7818 124.451C110.716 124.451 137.415 97.7526 137.415 64.8183C137.415 31.8839 110.716 5.18536 77.7818 5.18536C44.8475 5.18536 18.1489 31.8839 18.1489 64.8183C18.1489 97.7526 44.8475 124.451 77.7818 124.451Z" fill="#669999" fill-opacity="0.7"/>
<path d="M71.3001 130.933C104.234 130.933 130.933 104.234 130.933 71.3001C130.933 38.3657 104.234 11.6672 71.3001 11.6672C38.3658 11.6672 11.6672 38.3657 11.6672 71.3001C11.6672 104.234 38.3658 130.933 71.3001 130.933Z" stroke="black" stroke-width="6.48184"/>
<path d="M45.3728 45.3727L97.2275 97.2274" stroke="black" stroke-width="11.6673" stroke-linecap="round"/>
<path d="M97.2275 45.3727L45.3728 97.2274" stroke="black" stroke-width="11.6673" stroke-linecap="round"/>
</svg>
