<svg width="173" height="163" viewBox="0 0 173 163" fill="none" xmlns="http://www.w3.org/2000/svg">
<path d="M11.0156 131.168C11.0156 116.978 22.5187 105.475 36.7084 105.475H147.036C161.226 105.475 172.729 116.978 172.729 131.168C172.729 145.357 161.226 156.86 147.036 156.86H36.7084C22.5187 156.86 11.0156 145.357 11.0156 131.168Z" fill="#C5B6C2"/>
<mask id="path-2-outside-1_1_162" maskUnits="userSpaceOnUse" x="-0.518188" y="106.986" width="167" height="56" fill="black">
<rect fill="white" x="-0.518188" y="106.986" width="167" height="56"/>
<path d="M6.48181 131.546C6.48181 117.982 17.4774 106.986 31.0411 106.986H134.568C148.132 106.986 159.127 117.982 159.127 131.546C159.127 145.109 148.132 156.105 134.568 156.105H31.0411C17.4774 156.105 6.48181 145.109 6.48181 131.546Z"/>
</mask>
<path d="M6.48181 106.986H159.127H6.48181M165.609 134.787C165.609 150.14 153.163 162.587 137.809 162.587H27.8002C12.4466 162.587 -2.43187e-05 150.14 -2.43187e-05 134.787L12.9636 131.546C12.9636 141.53 21.0572 149.623 31.0411 149.623H134.568C144.552 149.623 152.646 141.53 152.646 131.546L165.609 134.787ZM27.8002 162.587C12.4466 162.587 -2.43187e-05 150.14 -2.43187e-05 134.787V134.787C-2.43187e-05 119.433 12.4466 106.986 27.8002 106.986H31.0411C21.0572 106.986 12.9636 117.982 12.9636 131.546V131.546C12.9636 141.53 21.0572 149.623 31.0411 149.623L27.8002 162.587ZM137.809 106.986C153.163 106.986 165.609 119.433 165.609 134.787V134.787C165.609 150.14 153.163 162.587 137.809 162.587L134.568 149.623C144.552 149.623 152.646 141.53 152.646 131.546V131.546C152.646 117.982 144.552 106.986 134.568 106.986H137.809Z" fill="black" mask="url(#path-2-outside-1_1_162)"/>
<mask id="path-4-outside-2_1_162" maskUnits="userSpaceOnUse" x="0.237793" y="57.8675" width="167" height="56" fill="black">
<rect fill="white" x="0.237793" y="57.8675" width="167" height="56"/>
<path d="M7.23779 82.4268C7.23779 68.8631 18.2334 57.8675 31.7971 57.8675H135.324C148.888 57.8675 159.883 68.8631 159.883 82.4268C159.883 95.9906 148.888 106.986 135.324 106.986H31.7971C18.2334 106.986 7.23779 95.9906 7.23779 82.4268Z"/>
</mask>
<path d="M7.23779 57.8675H159.883H7.23779M166.365 85.6678C166.365 101.021 153.919 113.468 138.565 113.468H28.5562C13.2025 113.468 0.755957 101.021 0.755957 85.6678L13.7196 82.4268C13.7196 92.4108 21.8132 100.504 31.7971 100.504H135.324C145.308 100.504 153.402 92.4108 153.402 82.4268L166.365 85.6678ZM28.5562 113.468C13.2025 113.468 0.755957 101.021 0.755957 85.6678V85.6678C0.755957 70.3141 13.2025 57.8675 28.5562 57.8675H31.7971C21.8132 57.8675 13.7196 68.8631 13.7196 82.4268V82.4268C13.7196 92.4108 21.8132 100.504 31.7971 100.504L28.5562 113.468ZM138.565 57.8675C153.919 57.8675 166.365 70.3141 166.365 85.6678V85.6678C166.365 101.021 153.919 113.468 138.565 113.468L135.324 100.504C145.308 100.504 153.402 92.4108 153.402 82.4268V82.4268C153.402 68.8631 145.308 57.8675 135.324 57.8675H138.565Z" fill="black" mask="url(#path-4-outside-2_1_162)"/>
<rect x="3.24114" y="3.24092" width="159.127" height="55.6005" rx="27.8002" stroke="black" stroke-width="6.48184"/>
<circle cx="28.0186" cy="31.0414" r="7.17888" fill="black"/>
<circle cx="28.0186" cy="86.2054" r="7.17888" fill="black"/>
<circle cx="28.0186" cy="133.813" r="7.17888" fill="black"/>
<line x1="50.8549" y1="28.6081" x2="123.067" y2="28.6081" stroke="black" stroke-width="11.6673" stroke-linecap="round"/>
<line x1="50.8549" y1="83.7721" x2="123.067" y2="83.7721" stroke="black" stroke-width="11.6673" stroke-linecap="round"/>
<line x1="50.8549" y1="131.379" x2="123.067" y2="131.379" stroke="black" stroke-width="11.6673" stroke-linecap="round"/>
</svg>
