<svg width="167" height="197" viewBox="0 0 167 197" fill="none" xmlns="http://www.w3.org/2000/svg">
<path d="M146.49 44.5916C141.68 49.4011 136.683 44.2993 127.317 34.9336C117.951 25.5678 109.519 22.0691 114.328 17.2596C119.138 12.45 130.436 12.2079 139.802 21.5737C149.168 30.9394 151.299 39.782 146.49 44.5916Z" fill="black"/>
<rect x="101.117" y="27.3407" width="13.4442" height="50.8008" rx="2.59273" transform="rotate(-47.0449 101.117 27.3407)" fill="#FCF4E9" stroke="black" stroke-width="5.18547"/>
<path d="M19.4455 11.6675H84.7795C91.1994 11.6675 97.2805 14.5509 101.343 19.522L139.173 65.814C140.97 68.0134 141.952 70.7665 141.952 73.6069V176.954C141.952 185.903 134.698 193.158 125.748 193.159H19.4455C10.496 193.159 3.24139 185.903 3.24139 176.954V27.8716C3.2415 18.9222 10.4961 11.6676 19.4455 11.6675Z" fill="#C5B6C2" stroke="black" stroke-width="6.48184"/>
<path d="M109.142 70.6515C104.995 70.6513 101.466 67.6352 100.819 63.5397L93.6096 17.8837C93.3027 15.9388 95.7493 14.8218 97.0178 16.3276L140.072 67.4547C141.137 68.7194 140.238 70.6517 138.584 70.6517L109.142 70.6515Z" fill="#5E485C" stroke="black" stroke-width="6.48184"/>
<path d="M58.8021 94.5044C65.672 86.7213 77.5511 85.9812 85.3343 92.8511L91.2698 98.0903C99.053 104.96 99.7938 116.839 92.9241 124.623L63.3275 158.153L62.9671 157.834C62.9201 157.643 62.8837 157.297 62.9144 156.785C62.9765 155.747 63.2801 154.55 63.5931 153.688C63.9684 152.654 64.1702 151.536 64.1702 150.378C64.1702 145.736 60.7462 141.304 55.7444 141.304C55.4934 141.304 55.2485 141.317 55.011 141.341C54.4584 137.188 51.2161 133.526 46.6693 133.526C45.9692 133.526 45.2993 133.615 44.6644 133.78C44.2132 129.682 41.1425 126.004 36.763 125.76L36.2982 125.748C34.0928 125.748 32.3512 126.905 31.1898 128.093C31.0668 128.219 30.8589 128.381 30.5765 128.53C30.2965 128.677 30.008 128.776 29.7591 128.823C29.6478 128.844 29.5567 128.851 29.4876 128.852L28.9798 128.292L58.8021 94.5044Z" fill="#FCF4E9" stroke="black" stroke-width="6.48184"/>
<path d="M24.0791 129.502C24.5117 127.765 26.2708 126.708 28.0075 127.141C29.7438 127.573 30.8007 129.331 30.3685 131.068L22.8334 161.339C25.1597 160.801 27.3213 161.826 29.1684 163.343C31.2198 165.028 33.5323 168.076 33.5753 171.405L60.6724 156.609C62.2433 155.751 64.2126 156.329 65.0704 157.9C65.9278 159.471 65.3497 161.441 63.7791 162.298L25.2413 183.342C18.8001 186.859 11.2534 181.032 13.0258 173.91L24.0791 129.502Z" fill="black"/>
<path d="M58.337 83.9602C58.337 83.9602 79.3541 83.2568 89.6729 90.2835C102.787 99.2133 107.599 126.74 107.599 126.74" stroke="black" stroke-width="6.48184" stroke-linecap="round"/>
<path d="M58.9849 84.2638L61.5404 89.8938" stroke="black" stroke-width="6.48184" stroke-linecap="round"/>
<path d="M97.6866 121.057L107.599 126.74" stroke="black" stroke-width="6.48184" stroke-linecap="round"/>
<line x1="22.6867" y1="46.0209" x2="51.2067" y2="46.0209" stroke="black" stroke-width="6.48184" stroke-linecap="round"/>
<line x1="22.6867" y1="31.7609" x2="69.3559" y2="31.7609" stroke="black" stroke-width="6.48184" stroke-linecap="round"/>
</svg>
