<svg width="169" height="130" viewBox="0 0 169 130" fill="none" xmlns="http://www.w3.org/2000/svg">
<g clip-path="url(#clip0_1_254)">
<path d="M150.379 32.4093H18.1491C13.8533 32.4093 10.3709 35.8917 10.3709 40.1875V117.97C10.3709 122.265 13.8533 125.748 18.1491 125.748H150.379C154.674 125.748 158.157 122.265 158.157 117.97V40.1875C158.157 35.8917 154.674 32.4093 150.379 32.4093Z" fill="#FCF4E9" stroke="black" stroke-width="6.48184" stroke-linecap="round" stroke-linejoin="round"/>
<path d="M14.26 35.0021L66.6083 68.9826C79.6 77.4158 96.4341 77.0181 109.013 67.9808L154.916 35.0021H14.26Z" fill="#7B6178" fill-opacity="0.7" stroke="black" stroke-width="6.48184" stroke-linecap="round" stroke-linejoin="round"/>
<path d="M59.1872 103.73H63.5017C62.1513 106.471 60.0785 108.618 57.2832 110.171C54.0828 111.954 50.1802 112.845 45.5754 112.845C41.1191 112.845 37.2705 112.089 34.0296 110.576C30.7887 109.078 28.3782 106.863 26.7983 103.933C25.2183 100.989 24.4284 97.7883 24.4284 94.3313C24.4284 90.5368 25.3264 87.0055 27.1224 83.7376C28.9184 80.4562 31.3761 77.9985 34.4955 76.3645C37.6149 74.717 41.1799 73.8933 45.1905 73.8933C48.5935 73.8933 51.6183 74.555 54.2651 75.8784C56.9118 77.2017 58.9306 79.0855 60.3215 81.5297C61.7259 83.9604 62.4281 86.6207 62.4281 89.5105C62.4281 92.954 61.3681 96.0666 59.248 98.8484C56.5877 102.359 53.178 104.115 49.0188 104.115C47.898 104.115 47.054 103.919 46.4869 103.527C45.9197 103.136 45.5416 102.562 45.3526 101.806C43.7591 103.345 41.9226 104.115 39.843 104.115C37.6014 104.115 35.7378 103.345 34.2524 101.806C32.7805 100.253 32.0445 98.1934 32.0445 95.6277C32.0445 92.4543 32.9358 89.5577 34.7183 86.938C36.8789 83.7511 39.6472 82.1576 43.0231 82.1576C45.4268 82.1576 47.2026 83.0759 48.3504 84.9124L48.8568 82.664H54.2043L51.1457 97.1874C50.9566 98.1057 50.8621 98.6998 50.8621 98.9699C50.8621 99.3075 50.9364 99.5641 51.0849 99.7396C51.247 99.9017 51.436 99.9827 51.6521 99.9827C52.3003 99.9827 53.1375 99.5911 54.1638 98.8079C55.5412 97.7816 56.6553 96.4042 57.506 94.6757C58.3567 92.9472 58.7821 91.1579 58.7821 89.3079C58.7821 85.986 57.5803 83.2109 55.1766 80.9828C52.7729 78.7412 49.4172 77.6204 45.1095 77.6204C41.4499 77.6204 38.3441 78.3698 35.7918 79.8688C33.2531 81.3542 31.3356 83.454 30.0392 86.1683C28.7564 88.8691 28.1149 91.6846 28.1149 94.6149C28.1149 97.4642 28.8306 100.057 30.262 102.393C31.7069 104.729 33.7258 106.431 36.3185 107.498C38.9247 108.578 41.9023 109.118 45.2513 109.118C48.4787 109.118 51.2537 108.666 53.5764 107.761C55.899 106.87 57.7693 105.526 59.1872 103.73ZM37.2908 95.4049C37.2908 97.1199 37.6351 98.3825 38.3238 99.1927C39.026 100.003 39.8903 100.408 40.9165 100.408C41.6863 100.408 42.4087 100.219 43.0839 99.8409C43.5971 99.5708 44.1034 99.1455 44.6031 98.5648C45.3188 97.7411 45.9332 96.5392 46.4464 94.9593C46.973 93.3793 47.2363 91.9074 47.2363 90.5435C47.2363 89.0176 46.8785 87.8495 46.1628 87.0393C45.4606 86.2155 44.5693 85.8037 43.489 85.8037C42.3277 85.8037 41.2541 86.2561 40.2684 87.1608C39.2826 88.0521 38.5399 89.3282 38.0402 90.9892C37.5406 92.6501 37.2908 94.122 37.2908 95.4049Z" fill="black"/>
</g>
<defs>
<clipPath id="clip0_1_254">
<rect width="168.528" height="129.637" fill="white"/>
</clipPath>
</defs>
</svg>
