<svg width="130" height="130" viewBox="0 0 130 130" fill="none" xmlns="http://www.w3.org/2000/svg">
<g clip-path="url(#clip0_1_501)">
<path d="M75.1891 114.08C105.26 114.08 129.637 89.7033 129.637 59.6328C129.637 29.5623 105.26 5.18536 75.1891 5.18536C45.1186 5.18536 20.7417 29.5623 20.7417 59.6328C20.7417 89.7033 45.1186 114.08 75.1891 114.08Z" fill="#669999" fill-opacity="0.7"/>
<path d="M64.8183 119.266C94.8887 119.266 119.266 94.8887 119.266 64.8182C119.266 34.7477 94.8887 10.3708 64.8183 10.3708C34.7478 10.3708 10.3708 34.7477 10.3708 64.8182C10.3708 94.8887 34.7478 119.266 64.8183 119.266Z" stroke="black" stroke-width="6.48184"/>
<path d="M64.8183 42.78C68.3981 42.78 71.3001 39.8779 71.3001 36.2981C71.3001 32.7183 68.3981 29.8163 64.8183 29.8163C61.2384 29.8163 58.3364 32.7183 58.3364 36.2981C58.3364 39.8779 61.2384 42.78 64.8183 42.78Z" fill="#FCF4E9"/>
<path d="M64.8181 51.8546V93.3383" stroke="#FCF4E9" stroke-width="11.6673" stroke-linecap="round"/>
</g>
<defs>
<clipPath id="clip0_1_501">
<rect width="129.637" height="129.637" fill="white"/>
</clipPath>
</defs>
</svg>
