<svg width="182" height="156" viewBox="0 0 182 156" fill="none" xmlns="http://www.w3.org/2000/svg">
<path d="M160.749 10.371H20.7417C15.014 10.371 10.3707 15.0142 10.3707 20.7419V114.08C10.3707 119.808 15.014 124.451 20.7417 124.451H160.749C166.477 124.451 171.12 119.808 171.12 114.08V20.7419C171.12 15.0142 166.477 10.371 160.749 10.371Z" fill="#FCF4E9" stroke="black" stroke-width="6.48184" stroke-linecap="round" stroke-linejoin="round"/>
<path d="M152.971 23.3346H28.5198C25.656 23.3346 23.3344 25.6562 23.3344 28.5201V106.302C23.3344 109.166 25.656 111.488 28.5198 111.488H152.971C155.835 111.488 158.157 109.166 158.157 106.302V28.5201C158.157 25.6562 155.835 23.3346 152.971 23.3346Z" fill="#C5B6C2" stroke="black" stroke-width="3.8891"/>
<path d="M38.8907 46.6692H116.673" stroke="#FCF4E9" stroke-width="5.18547" stroke-linecap="round"/>
<path d="M38.8907 64.8184H142.6" stroke="#FCF4E9" stroke-width="5.18547" stroke-linecap="round"/>
<path d="M38.8907 82.9675H129.636" stroke="#FCF4E9" stroke-width="5.18547" stroke-linecap="round"/>
<path d="M103.709 124.451H77.7819V140.008H103.709V124.451Z" fill="#FCF4E9" stroke="black" stroke-width="6.48184"/>
<path d="M121.858 140.008H59.6327C56.7689 140.008 54.4473 142.329 54.4473 145.193C54.4473 148.057 56.7689 150.379 59.6327 150.379H121.858C124.722 150.379 127.044 148.057 127.044 145.193C127.044 142.329 124.722 140.008 121.858 140.008Z" fill="#FCF4E9" stroke="black" stroke-width="6.48184" stroke-linecap="round" stroke-linejoin="round"/>
<path d="M129.636 71.3002V93.3384L134.822 88.1529L140.007 98.5239L143.897 97.2275L138.711 86.8566H146.489L129.636 71.3002Z" fill="black" stroke="black" stroke-width="2.59273" stroke-linecap="round" stroke-linejoin="round"/>
</svg>
