<svg width="32" height="32" viewBox="0 0 32 32" fill="none" xmlns="http://www.w3.org/2000/svg">
<ellipse cx="10.6563" cy="7.4688" rx="2.59273" ry="4.53728" transform="rotate(-13.2321 10.6563 7.4688)" fill="#7B6178" fill-opacity="0.7"/>
<ellipse cx="23.9467" cy="21.2559" rx="5.18547" ry="3.24092" fill="#7B6178" fill-opacity="0.7"/>
<path d="M28.52 21.9347V25.8238C28.5214 26.1848 28.4475 26.5422 28.3028 26.873C28.1582 27.2038 27.9461 27.5008 27.68 27.7448C27.414 27.9889 27.0999 28.1747 26.7579 28.2904C26.4159 28.4061 26.0535 28.449 25.6939 28.4165C21.7048 27.9831 17.8729 26.62 14.5062 24.4367C11.374 22.4463 8.7184 19.7907 6.72804 16.6585C4.53715 13.2765 3.17372 9.42604 2.74819 5.41898C2.7158 5.06049 2.7584 4.69918 2.87329 4.35806C2.98818 4.01694 3.17285 3.70348 3.41552 3.43764C3.65819 3.1718 3.95356 2.95939 4.28282 2.81396C4.61208 2.66852 4.96802 2.59324 5.32796 2.5929H9.21707C9.8462 2.58671 10.4561 2.80949 10.9331 3.21973C11.4102 3.62998 11.7217 4.19968 11.8098 4.82265C11.9739 6.06725 12.2784 7.28928 12.7173 8.46544C12.8917 8.92944 12.9294 9.43372 12.826 9.91851C12.7226 10.4033 12.4824 10.8483 12.1339 11.2008L10.4875 12.8472C12.333 16.0927 15.0202 18.7799 18.2657 20.6254L19.9121 18.979C20.2646 18.6304 20.7096 18.3902 21.1944 18.2868C21.6792 18.1834 22.1834 18.2212 22.6474 18.3956C23.8236 18.8345 25.0456 19.1389 26.2902 19.3031C26.92 19.3919 27.4951 19.7091 27.9062 20.1943C28.3173 20.6795 28.5357 21.2989 28.52 21.9347Z" stroke="black" stroke-width="2.59273" stroke-linecap="round" stroke-linejoin="round"/>
</svg>
