<svg width="32" height="32" viewBox="0 0 32 32" fill="none" xmlns="http://www.w3.org/2000/svg">
<ellipse cx="10.6565" cy="7.46892" rx="2.59273" ry="4.53728" transform="rotate(-13.2321 10.6565 7.46892)" fill="#669999" fill-opacity="0.7"/>
<ellipse cx="23.9467" cy="21.256" rx="5.18547" ry="3.24092" fill="#669999" fill-opacity="0.7"/>
<path d="M28.52 21.9348V25.8239C28.5214 26.185 28.4475 26.5423 28.3028 26.8731C28.1582 27.2039 27.9461 27.5009 27.68 27.745C27.414 27.989 27.0999 28.1749 26.7579 28.2905C26.4159 28.4062 26.0535 28.4492 25.6939 28.4167C21.7048 27.9832 17.8729 26.6201 14.5062 24.4368C11.374 22.4464 8.7184 19.7909 6.72804 16.6586C4.53715 13.2766 3.17372 9.42616 2.74819 5.4191C2.7158 5.06061 2.7584 4.69931 2.87329 4.35819C2.98818 4.01707 3.17285 3.7036 3.41552 3.43776C3.65819 3.17192 3.95356 2.95952 4.28282 2.81408C4.61208 2.66864 4.96802 2.59336 5.32796 2.59302H9.21707C9.8462 2.58683 10.4561 2.80962 10.9331 3.21986C11.4102 3.6301 11.7217 4.1998 11.8098 4.82277C11.9739 6.06737 12.2784 7.28941 12.7173 8.46556C12.8917 8.92956 12.9294 9.43384 12.826 9.91864C12.7226 10.4034 12.4824 10.8484 12.1339 11.2009L10.4875 12.8473C12.333 16.0928 15.0202 18.78 18.2657 20.6255L19.9121 18.9791C20.2646 18.6306 20.7096 18.3904 21.1944 18.287C21.6792 18.1836 22.1834 18.2213 22.6474 18.3957C23.8236 18.8346 25.0456 19.139 26.2902 19.3032C26.92 19.392 27.4951 19.7092 27.9062 20.1944C28.3173 20.6797 28.5357 21.299 28.52 21.9348Z" stroke="black" stroke-width="2.59273" stroke-linecap="round" stroke-linejoin="round"/>
</svg>
