<svg width="145" height="163" viewBox="0 0 145 163" fill="none" xmlns="http://www.w3.org/2000/svg">
<path d="M70.0335 36.2577C71.284 35.4876 72.8617 35.4876 74.1122 36.2577L120.744 64.9754C121.894 65.6834 122.594 66.9369 122.594 68.2869V126.168C122.594 127.518 121.894 128.771 120.744 129.479L74.1122 158.197C72.8617 158.967 71.284 158.967 70.0335 158.197L23.4016 129.479C22.2521 128.771 21.5519 127.518 21.5519 126.168V68.2869C21.5519 66.9369 22.2521 65.6834 23.4016 64.9754L70.0335 36.2577Z" fill="#FCF4E9" stroke="black" stroke-width="6.48184"/>
<path d="M72.0725 19.617L121.334 50.0815L78.8896 80.2145L22.8104 48.1734L72.0725 19.617Z" fill="#7B6178" fill-opacity="0.72"/>
<path d="M4.47835 93.5209C3.18257 92.7258 2.84584 90.9915 3.74992 89.7693L19.8619 67.9869C20.6495 66.9221 22.1131 66.6221 23.2562 67.2912L74.3252 97.1868C75.5792 97.9208 75.9852 99.5419 75.2253 100.78L60.4647 124.834C59.7158 126.055 58.1193 126.437 56.8989 125.688L4.47835 93.5209Z" fill="#FCF4E9" stroke="black" stroke-width="6.48184"/>
<path d="M94.2527 126.712C92.9861 127.534 91.2887 127.103 90.566 125.778L77.6026 102.007C76.9646 100.837 77.3174 99.3741 78.4186 98.6235L122.025 68.9023C123.226 68.0838 124.865 68.4121 125.658 69.6299L141.054 93.2747C141.837 94.4763 141.495 96.0849 140.292 96.865L94.2527 126.712Z" fill="#FCF4E9" stroke="black" stroke-width="6.48184"/>
</svg>
