<svg width="323" height="179" viewBox="0 0 323 179" fill="none" xmlns="http://www.w3.org/2000/svg">
<path d="M108.247 134.174C121.455 134.174 131.581 143.765 131.581 154.915C131.581 166.066 121.455 175.658 108.247 175.658C95.0383 175.657 84.9125 166.066 84.9125 154.915C84.9128 143.765 95.0385 134.174 108.247 134.174Z" fill="#669999" stroke="black" stroke-width="6.48184"/>
<path d="M222.975 66.1147C222.975 62.5349 225.877 59.6329 229.457 59.6329H252.982C274.356 59.6329 291.683 76.96 291.683 98.3342C291.683 101.303 289.276 103.709 286.308 103.709H229.457C225.877 103.709 222.975 100.807 222.975 97.2275V66.1147Z" fill="black"/>
<path d="M256.46 33.0574C261.63 33.0575 266.572 35.187 270.122 38.9441L300.012 70.571C314.227 85.6132 322.148 105.526 322.148 126.222V145.193C322.148 151.994 316.634 157.508 309.832 157.509H283.749C283.851 156.657 283.905 155.792 283.905 154.916C283.905 153.592 283.784 152.293 283.555 151.027H309.832C313.054 151.027 315.666 148.415 315.666 145.193V126.222C315.666 107.182 308.379 88.862 295.301 75.0232L265.411 43.3962C263.085 40.9347 259.847 39.5399 256.46 39.5398H211.308C210.95 39.54 210.661 39.8296 210.661 40.1873V151.027H231.103C230.874 152.293 230.753 153.592 230.753 154.916C230.753 155.792 230.807 156.657 230.909 157.509H204.178V40.1873C204.178 36.2498 207.371 33.0576 211.308 33.0574H256.46Z" fill="black"/>
<path d="M258.625 134.174C270.344 134.174 279.367 142.842 279.367 152.971C279.367 163.1 270.344 171.769 258.625 171.769C246.906 171.769 237.884 163.1 237.884 152.971C237.884 142.842 246.907 134.174 258.625 134.174Z" fill="#669999" stroke="black" stroke-width="6.48184"/>
<path d="M47.9658 145.075C47.9658 141.56 50.8151 138.711 54.3298 138.711H207.419V154.268H57.1582C52.0814 154.268 47.9658 150.152 47.9658 145.075Z" fill="#FCF4E9" stroke="black" stroke-width="6.48184"/>
<path d="M60.9294 38.891C60.9294 31.7313 66.7335 25.9273 73.8931 25.9273H194.455C201.615 25.9273 207.419 31.7313 207.419 38.891V138.711H60.9294V38.891Z" fill="#FCF4E9" stroke="black" stroke-width="6.48184"/>
<line x1="3.24116" y1="91.3938" x2="105.654" y2="91.3938" stroke="black" stroke-width="6.48184" stroke-linecap="round"/>
<path d="M41.4839 18.1491C41.4839 8.12565 49.6096 0 59.6331 0H149.082V81.6711H41.4839V18.1491Z" fill="#669999" fill-opacity="0.7"/>
<line x1="23.983" y1="113.432" x2="103.061" y2="113.432" stroke="black" stroke-width="6.48184" stroke-linecap="round"/>
</svg>
