<svg width="182" height="143" viewBox="0 0 182 143" fill="none" xmlns="http://www.w3.org/2000/svg">
<path d="M36.2983 79.0784C47.7537 79.0784 57.0401 69.792 57.0401 58.3365C57.0401 46.8811 47.7537 37.5947 36.2983 37.5947C24.8428 37.5947 15.5564 46.8811 15.5564 58.3365C15.5564 69.792 24.8428 79.0784 36.2983 79.0784Z" fill="#FCF4E9" stroke="black" stroke-width="5.18547"/>
<path d="M6.48193 129.637C6.48193 105.438 16.4207 93.3384 36.2984 93.3384C55.3118 93.3384 64.8185 105.438 64.8185 129.637" fill="#FCF4E9"/>
<path d="M6.48193 129.637C6.48193 105.438 16.4207 93.3384 36.2984 93.3384C55.3118 93.3384 64.8185 105.438 64.8185 129.637" stroke="black" stroke-width="5.18547" stroke-linecap="round" stroke-linejoin="round"/>
<path d="M145.193 79.0784C156.648 79.0784 165.935 69.792 165.935 58.3365C165.935 46.8811 156.648 37.5947 145.193 37.5947C133.738 37.5947 124.451 46.8811 124.451 58.3365C124.451 69.792 133.738 79.0784 145.193 79.0784Z" fill="#FCF4E9" stroke="black" stroke-width="5.18547"/>
<path d="M116.673 129.637C116.673 105.438 126.18 93.3384 145.193 93.3384C165.071 93.3384 175.01 105.438 175.01 129.637" fill="#FCF4E9"/>
<path d="M116.673 129.637C116.673 105.438 126.18 93.3384 145.193 93.3384C165.071 93.3384 175.01 105.438 175.01 129.637" stroke="black" stroke-width="5.18547" stroke-linecap="round" stroke-linejoin="round"/>
<path d="M90.7457 79.0784C105.065 79.0784 116.673 67.4704 116.673 53.1511C116.673 38.8318 105.065 27.2238 90.7457 27.2238C76.4264 27.2238 64.8184 38.8318 64.8184 53.1511C64.8184 67.4704 76.4264 79.0784 90.7457 79.0784Z" fill="#7B6078" stroke="black" stroke-width="6.48184"/>
<path d="M54.4475 136.119C54.4475 105.87 66.5469 90.7457 90.7458 90.7457C114.945 90.7457 127.044 105.87 127.044 136.119" fill="#C5B6C2"/>
<path d="M54.4475 136.119C54.4475 105.87 66.5469 90.7457 90.7458 90.7457C114.945 90.7457 127.044 105.87 127.044 136.119" stroke="black" stroke-width="6.48184" stroke-linecap="round" stroke-linejoin="round"/>
</svg>
