<svg width="182" height="143" viewBox="0 0 182 143" fill="none" xmlns="http://www.w3.org/2000/svg">
<path d="M36.2983 79.0782C47.7537 79.0782 57.0401 69.7918 57.0401 58.3364C57.0401 46.8809 47.7537 37.5945 36.2983 37.5945C24.8428 37.5945 15.5564 46.8809 15.5564 58.3364C15.5564 69.7918 24.8428 79.0782 36.2983 79.0782Z" fill="#FCF4E9" stroke="black" stroke-width="5.18547"/>
<path d="M6.48193 129.637C6.48193 105.438 16.4207 93.3383 36.2984 93.3383C55.3118 93.3383 64.8185 105.438 64.8185 129.637" fill="#FCF4E9"/>
<path d="M6.48193 129.637C6.48193 105.438 16.4207 93.3383 36.2984 93.3383C55.3118 93.3383 64.8185 105.438 64.8185 129.637" stroke="black" stroke-width="5.18547" stroke-linecap="round" stroke-linejoin="round"/>
<path d="M145.193 79.0782C156.648 79.0782 165.935 69.7918 165.935 58.3364C165.935 46.8809 156.648 37.5945 145.193 37.5945C133.738 37.5945 124.451 46.8809 124.451 58.3364C124.451 69.7918 133.738 79.0782 145.193 79.0782Z" fill="#FCF4E9" stroke="black" stroke-width="5.18547"/>
<path d="M116.673 129.637C116.673 105.438 126.18 93.3383 145.193 93.3383C165.071 93.3383 175.01 105.438 175.01 129.637" fill="#FCF4E9"/>
<path d="M116.673 129.637C116.673 105.438 126.18 93.3383 145.193 93.3383C165.071 93.3383 175.01 105.438 175.01 129.637" stroke="black" stroke-width="5.18547" stroke-linecap="round" stroke-linejoin="round"/>
<path d="M90.7457 79.0782C105.065 79.0782 116.673 67.4701 116.673 53.1509C116.673 38.8316 105.065 27.2235 90.7457 27.2235C76.4264 27.2235 64.8184 38.8316 64.8184 53.1509C64.8184 67.4701 76.4264 79.0782 90.7457 79.0782Z" fill="#669999" stroke="black" stroke-width="6.48184"/>
<path d="M54.4475 136.118C54.4475 105.87 66.5469 90.7455 90.7458 90.7455C114.945 90.7455 127.044 105.87 127.044 136.118" fill="#B3CCCC"/>
<path d="M54.4475 136.118C54.4475 105.87 66.5469 90.7455 90.7458 90.7455C114.945 90.7455 127.044 105.87 127.044 136.118" stroke="black" stroke-width="6.48184" stroke-linecap="round" stroke-linejoin="round"/>
</svg>
