<?xml version="1.0" encoding="UTF-8"?>
<svg id="Capa_2" data-name="Capa 2" xmlns="http://www.w3.org/2000/svg" xmlns:xlink="http://www.w3.org/1999/xlink" viewBox="2860 140 820 960">
  <defs>
    <style>
      .cls-1 {
        fill: #7f4b40;
      }

      .cls-1, .cls-2, .cls-3, .cls-4, .cls-5, .cls-6, .cls-7, .cls-8, .cls-9, .cls-10, .cls-11 {
        stroke-miterlimit: 10;
        stroke-width: 7px;
      }

      .cls-1, .cls-4, .cls-5, .cls-6, .cls-7, .cls-8, .cls-10 {
        stroke: #000;
      }

      .cls-12, .cls-4 {
        fill: #020202;
      }

      .cls-2, .cls-3, .cls-9, .cls-11 {
        stroke: #020202;
      }

      .cls-2, .cls-6 {
        fill: #b4d5d3;
      }

      .cls-3, .cls-10 {
        fill: none;
      }

      .cls-5, .cls-11 {
        fill: #c9b5d8;
      }

      .cls-13 {
        fill: url(#Degradado_sin_nombre_9);
      }

      .cls-14 {
        fill: url(#Degradado_sin_nombre_10);
      }

      .cls-8 {
        fill: #e8f4f3;
      }

      .cls-9 {
        fill: #fff;
      }
    </style>
    <linearGradient id="Degradado_sin_nombre_9" data-name="Degradado sin nombre 9" x1="2976.96" y1="767.46" x2="2976.89" y2="752.25" gradientUnits="userSpaceOnUse">
      <stop offset="0" stop-color="#fff" stop-opacity="0"/>
      <stop offset=".55" stop-color="#000"/>
    </linearGradient>
    <linearGradient id="Degradado_sin_nombre_10" data-name="Degradado sin nombre 10" x1="3540.81" y1="893.7" x2="3540.73" y2="877.31" gradientTransform="translate(52.23 -187.55) rotate(3.06)" gradientUnits="userSpaceOnUse">
      <stop offset="0" stop-color="#fff" stop-opacity="0"/>
      <stop offset="0" stop-color="#f7f7f7" stop-opacity=".03"/>
      <stop offset=".55" stop-color="#000"/>
    </linearGradient>
  </defs>
  <g id="Mesa">
    <rect class="cls-13" x="2960.98" y="750.68" width="31.89" height="17.53"/>
    <path class="cls-10" d="M2951.84,1044.9l-18.24-.46c-5.65-.14-9.94-5.14-9.22-10.74l36.45-286.2h33.19l-32.73,289.18c-.54,4.78-4.64,8.35-9.45,8.23Z"/>
    <rect class="cls-10" x="2916.41" y="700.01" width="385.02" height="40.85" rx="11.49" ry="11.49"/>
    <rect x="2951.84" y="1039.11" width="675.11" height="10.39" rx="5.19" ry="5.19"/>
  </g>
  <g id="Pantalla">
    <path class="cls-12" d="M3163.84,630.27l-27.3-146.69c-2.46-11.41-16.12-17.09-27.78-17.43l-144.56-.96c-15.98-.46-25.9,9.77-23.23,25.53l22.7,149.96c2.07,12.25,12.71,21.19,25.13,21.12l36.04-.2v26.92h-19.74c-5.69,0-10.3,4.61-10.3,10.3v1.19h108.68v-1.53c0-5.5-4.46-9.96-9.96-9.96h-26.81v-27.15l72.5-.41c16.09-.09,28.02-14.95,24.63-30.68Z"/>
    <path class="cls-9" d="M3149.81,653.37l-155.82.6-30.81-182.9h151.66c4.83.02,16.67,9.05,17.62,13.79l27.26,150.45c1.25,6.25-3.53,17.81-9.9,18.07Z"/>
    <path class="cls-3" d="M3155.56,630.13l-140.91.58-26.58-159.64,128.68,2.21c4.62.05,13.18,8.18,14.15,12.7l24.66,144.15Z"/>
  </g>
  <g id="Bocadillo_abajo" data-name="Bocadillo abajo">
    <path class="cls-2" d="M3140.79,330.8h-110.15c-33.46,0-60.59,28.86-60.59,64.46v20.44c0,35.6,27.13,64.46,60.59,64.46h64.12c1.61,5.13,5.94,12.18,12.3,22.4,6.23,10.01,9.35,15.02,14.4,20.43,6.16,6.59,14.66,15.47,28.08,18.89,3.81.97,7.29,1.32,10.17,1.37,1.56.03,2.43-1.92,1.43-3.19-5.45-6.9-8.93-13.36-11.12-18.1-1.78-3.84-4.61-10.09-6.24-18.89-1.1-5.97-2.2-11.89-.72-19.15.32-1.56.68-2.81,1.05-3.86,31.92-1.84,57.26-29.95,57.26-64.36v-20.44c0-35.6-27.13-64.46-60.59-64.46Z"/>
    <ellipse cx="3112.95" cy="404.51" rx="16.92" ry="18"/>
    <ellipse cx="3046" cy="404.51" rx="16.92" ry="18"/>
  </g>
  <g id="Bocadillo_arriba" data-name="Bocadillo arriba">
    <path class="cls-11" d="M3243.5,196.94c-22.87-.31-58.36-.04-83.28-.12-16.28.24-20.78-.5-31.94.4-30.92,2.49-55.4,32.02-54.83,65.85-.09,5.58-.09,12.07,0,17.62-.61,33.69,23.95,63.6,55.18,65.88,14.2.85,27.77.14,44.03.36,8.36.02,15.82-.03,19.69.03,13.74,18.45,27.63,37.46,45.59,51.53,5.77,4.57,6.02-4.34,5.81-8.27-.8-15.15-1.36-18.95-.19-34.06.3-5.93,4.18-9.38,9.5-10.58,28.89-5.94,49.48-35.18,48.3-66.98.04-4.24.04-8.74,0-13.01,1.28-36.09-23.77-67.09-57.76-68.63h-.12Z"/>
    <rect class="cls-12" x="3112.95" y="245.4" width="138.22" height="11.63" rx="5.81" ry="5.81"/>
    <rect class="cls-12" x="3112.95" y="281.62" width="110.68" height="11.63" rx="5.81" ry="5.81"/>
  </g>
  <g id="Silla">
    <path class="cls-8" d="M3576.4,574.06c5.74-1.57,15.1-3.29,26.19-1.36,13.29,2.31,29.83,7.33,31,23.29.38,5.17-.73,10.32-1.75,15.41-8.2,40.76-13.44,82.3-19.98,123.37-1.27,7.99-2.55,15.98-3.82,23.97l-21.79-27.05-12.6-49.36,2.74-108.26Z"/>
    <rect class="cls-14" x="3524.82" y="876.3" width="31.89" height="17.53" transform="translate(-42.16 190.07) rotate(-3.06)"/>
    <path class="cls-3" d="M3523.12,874.43h30.64l47.58,157.37c1.1,3.64-1.63,7.32-5.43,7.32h-27.2c-3.15,0-5.9-2.15-6.65-5.22l-38.94-159.46Z"/>
    <rect class="cls-7" x="3320.04" y="846.06" width="250.21" height="27.23" rx="13.62" ry="13.62"/>
  </g>
  <g id="bRAZOS">
    <polygon class="cls-1" points="3330.38 595.26 3316.04 626.52 3293.31 631.76 3333.14 643.37 3358.8 646.57 3368.63 644.59 3363.62 625.88 3363.49 608.85 3355.49 619.08 3330.38 595.26"/>
    <path class="cls-1" d="M3555.91,677.35c-.1-.38-5.55-6.19-6.6-7.3-20.51-21.56-47.93-32.37-73.14-47.12-8.64-5.05-16.53-8.65-26.66-5.72-10.12,2.93-18.51,13.63-21.19,27.37h-83.06c-19.19-2.97-34.03-7.39-43.82-10.77-23.26-8.03-28.49-13.79-47.75-17.36-5.39-1-21.76-3.66-42.13,0-13.22,2.37-30.53,5.48-37.28,18.43-.67,1.29-5.1,9.79-1.28,16.55,2.11,3.72,5.95,5.57,9.17,6.49-1.66,2.82-3.42,6.93-2.27,11.38,1.51,5.88,7.58,10.36,12.88,11.03-.08.57-.13,1.15-.12,1.74.06,4.96,3.39,8.26,3.83,8.68,4.49,4.31,11.74,4.27,16.34,1.79,4.5-2.43,3.74-5.72,7.4-8.43,6.71-4.95,19.29-1.27,27.32,3.83,13.91,8.82,11.37,20.08,23.75,24.51,2.15.77,1.84.29,18.89,1.79,0,0,8.49.74,18.38,1.79,19.2,2.02,40.45,15.66,45.7,18.89,5.8,3.57,54.15,32.51,99.57,21.19,30.94-9.38,55.82-29.42,78.51-51.7,7.24-6.91,13.91-14.4,20.22-22.15.74-1.02,3.33-3.57,3.33-4.92Z"/>
    <path class="cls-10" d="M3181.29,659.79c2.31-2.5,9.38-8.33,14.11-12.01,4.17-3.25,6.67-5.2,10.78-7.06,4.09-1.85,8.43-3.8,15.7-4.53,5.48-.55,17.08,1.65,16.2.27-2.12-3.32-22.37-3.38-37.5,5.62-5.1,3.03-8.96,6.35-11.82,9.3-2.05,2.03-4.09,4.06-6.14,6.09"/>
    <path class="cls-10" d="M3191.06,682.52c2.01-2.43,8.13-8.04,12.21-11.57,3.6-3.12,5.76-4.99,9.28-6.72,3.5-1.72,7.21-3.53,13.36-4.04,4.64-.38,14.36,2.17,13.66.77-1.7-3.39-18.79-4.06-31.79,4.47-4.38,2.87-7.72,6.08-10.21,8.94-1.78,1.97-3.56,3.93-5.34,5.9"/>
  </g>
  <g id="T-_Shirt" data-name="T- Shirt">
    <path class="cls-5" d="M3420.48,504.13c1.7,1.89-2.46,6.02-1.36,11.23,1.64,7.77,13.57,11.17,14.98,11.57,12.4,3.54,23.58-2.18,29.96-5.45,7.68-3.93,18.15-9.29,21.45-19.74,2.02-6.42.46-11.96,4.43-14.64,3.16-2.13,7.49-.85,10.21,0,23.6,7.38,35.4,14.64,35.4,14.64,10.8,6.64,18.02,11.08,26.55,19.4,12.45,12.14,18.88,23.96,20.09,26.21,9.41,17.62,10.59,34.12,11.23,50.72.89,22.99-.61,99.54-6.36,110.52-1.05,2.01-3.08,1.77-8.94,1.4-13.32-.84-19.8-.41-35.38-2.44-3.08-.4-11.61,1.6-12.11-.1,4.88-10.08,24.59-17.5,25.69-29.74,1.03-11.45-15.08-20.39-23.33-26.1-14.8-8.95-29.64-17.92-44.35-27.02-7.58-4.45-16.68-10.31-25.61-11.19-8.17-.8-12.68,1.57-13.87-.94-.86-1.81.48-4.25,10.13-16.77,1.78-2.3,5.25-6.85,8.85-13.28,1.72-3.07,4.22-7.53,3.4-8.17-.86-.67-3.56,5.39-5.96,9.28-4.68,7.57-5.96,8.91-10.64,16.34,0,0-6.77,12.63-16.43,26.13-2.84,3.97-7.42,9.75-14.3,16l-58.21-2.04-1.63-8.42c-1.4-7.24-1.22-14.69.53-21.85l4.42-18.15s4.03-13.64,3.45-11.11c-1.96,8.52-9.74,29.77-12.42,37-.52,1.41-2,2.23-3.48,1.93l-12.65-2.55-9.6-2.9c-4.83-1.46-7.65-6.47-6.41-11.36,1.31-5.17,3.01-10.44,5.86-15.88,4.58-8.52,9.54-16.85,13.99-25.46,13.05-25.95,33.27-40.17,58.45-53.33,3.41-1.79,11.83-6.11,13.96-3.74Z"/>
    <polyline class="cls-10" points="3556.23 678.27 3566.18 653.58 3576.4 633.83"/>
  </g>
  <g id="Trouser">
    <path class="cls-6" d="M3583.54,710.77c5.3,6.31,13.26,17.41,18.03,33.11,2.18,7.17,8.81,30.05,0,53.62-10.17,27.21-35.01,39.56-49.44,46.72-13.7,6.81-20.33,7.3-98.81,14.55-14.94,1.38-73.26,9.86-93.89-5.36-11.56-8.53-22.99-17.98-22.99-17.98-3.52-3.36-8.74-7.51-8.53-7.3,4.03,3.98,26.6,18.93,49.58,47.33,5.8,7.17,13.55,17.57,29.11,36.16,3.52,4.2,6.45,7.65,8.43,9.96l-132.51,74.3c-17.61-14.51-38.64-35.2-57.45-63.57-18.48-27.88-37.16-56.06-37.53-95.74-.11-12.05.07-46.4,24.51-77.1,13.89-12.82,26.31-23.47,42.73-30.77,13.5-6.14,28.21-9.88,43.5-8.16,11.89,1.21,23.23,5.61,34.22,10.21,20.06,8.58,40.25,16.75,61.2,23.28,23.7,7.59,50.03,12.32,73.75,2.36,25.89-11.14,48.51-29.4,68.18-49.36l47.91,3.75Z"/>
    <path class="cls-6" d="M3267.17,714.25c-8.83-3.8-26.61-10-49.02-7.66-24.99,2.61-41.81,14.4-50.55,20.68-5.84,4.2-20.44,15.45-44.43,54.38-25.72,41.74-28.16,60.03-58.21,108-5.14,8.2-9.55,14.82-12.48,19.15l125.08,81.96s39.88-68.17,39.96-68.3c-18.49-37.49-24.63-44.66-26.61-88.11-1.28-16.94,1.65-33.53,8.89-49.07,4.57-10.33,10.2-19.99,17.84-27.95,5.22-5.51,11.19-10.23,17.37-14.63,14.38-10.54,30.01-19.1,46.74-25.3l-14.57-3.15Z"/>
  </g>
  <g id="Shoes">
    <path class="cls-4" d="M3048.02,910.2c-8.14-.8-21.22-.77-35.06,5.45-6.87,3.09-13.6,6.83-19.18,11.96-5.95,5.46-17.49,21.02-10.58,29.38.85,1.03,2,1.77,3.13,2.49,40.61,25.85,80.07,56.27,122.68,78.71,8.51,4.44,19.32,8.3,28.44,5.57,9.63-2.4,18.36-15.31,24.57-24.36,5.23-7.56,7.54-17.02,12.66-23.53-.02-.01-126.66-85.67-126.66-85.67Z"/>
    <path class="cls-4" d="M3282.52,995.87c-3.67-.25-10.76-.24-18.51,3.27-4.24,1.92-15.07,7.77-19.66,20.68-3.85,10.83-1.08,20.32,0,23.49,0,0,115.4,0,115.4,0,17.82-12.88,35.63-25.75,53.45-38.63,7.38-5.33,14.75-10.66,22.13-15.99,9.32-6.74,14.59-14.93,12.83-27.21-1.4-9.8-6.34-20.22-13.04-27.5-3.08-3.34-6.61-6.26-10.43-8.71-.84-.54-6.49-4.57-7.45-4.04,0,0-134.73,74.65-134.73,74.65Z"/>
  </g>
  <g id="Cara">
    <path class="cls-1" d="M3377.74,389.89c.66,2.36-.91,6.77-1.61,9.02-.93,3-2.29,5.87-3.97,8.51-3.52,5.56-5.77,9.89-11.88,12.51-3.17,1.36-4.95,1.41-5.96,3.23-2.22,4.02,1.16,9.9,4.28,12.44,1.85,1.5,4.31,2.37,6.66,1.96,1.88-.33,1.21-.76,2.66,1.08,1.17,1.49.59,3.84.35,5.53-.53,3.66-1.23,7.23-1.37,10.93-.28,7.5.67,15.47,5.12,21.75,3.32,4.68,8.32,7.98,13.66,10.07,12.26,4.8,27.21,5.82,39.35.17,4.48-2.09,8.9-5.21,9.21-4.77.29.42-3.31,3.5-6.13,5.62-3.43,2.58-4.3,5.9-6.46,7.01.9,8.42,1.84,16.84,2.64,25.27.11,1.12.23,2.27.75,3.26,1.29,2.47,5.01,4.13,7.36,5.42,2.88,1.58,5.92,2.88,9.08,3.8,6.7,1.96,11.07.25,17.93-.56,15.38-1.81,25.48-8.78,33.6-21.49.28-.4,1.48-1.61,1.48-2.12,0-20.79.39-41.47-.79-62.22-.86-15.02-2.16-30.02-3.92-44.97-.15-1.24-.3-2.5-.82-3.64-.5-1.09-1.31-2-2.11-2.89-9.59-10.7-19.19-21.39-28.78-32.09-.63-.7-1.27-1.41-2.08-1.88-1.15-.67-2.53-.81-3.85-.92-17.77-1.58-35.54-3.09-53.3-4.75l-28.77,7.32s7.66,27.4,7.66,27.4Z"/>
    <g id="Pelo">
      <path class="cls-12" d="M3569.84,415.36c11.66-5.48,19.67-16.83,19.67-29.94,0-18.15-15.34-32.91-34.47-33.42,1.16-3.3,1.79-6.83,1.79-10.49,0-18.47-15.89-33.45-35.49-33.45-7.18,0-13.87,2.02-19.45,5.48-5.42-11.93-17.99-20.29-32.63-20.29-10.53,0-19.99,4.33-26.49,11.19-5.97-4.3-13.42-6.85-21.51-6.85-18.41,0-33.55,13.22-35.31,30.14-18.15,5.84-30.47,21.54-25.32,40.94,3.35,12.19,14.45,21.62,26.91,23.71,3.36.62,6.82.69,10.27.74,3.58.04,7.14.22,10.54,1.06,5.63,1.31,10.7,4.45,15.75,7.36.95.79,4.74,7.93,5.5,7.88,3.66-.23,7.21-.71,10.4-2.22,5.05-2.36,9.54-7.47,15.46-7.45,11.66.47,16.09,9.02,14.22,19.92-2.35,11.68-14.15,14.7-24.58,15.75-1.36.29-3.41.65-3.88,2.21-.99,3.29,15.54,7.9,15.54,11.95,0,17.96,15.02,32.61,33.87,33.41,6.5,7.79,16.58,12.8,27.91,12.8,15.91,0,29.37-9.87,33.88-23.46,16.21-3.09,28.42-16.59,28.42-32.78,0-9.52-4.22-18.1-10.99-24.19ZM3425.04,377.51s0,0,0,0h0s0,0,0,0Z"/>
    </g>
    <path d="M3403.1,408.27c0,3.76-3.05,6.81-6.81,6.81s-6.81-3.05-6.81-6.81,3.05-6.81,6.81-6.81,6.81,3.05,6.81,6.81Z"/>
    <path class="cls-10" d="M3396.29,450.82c-11.89,6.58-22.84,8.1-27.38,3.23-.72-.77-1.38-1.81-1.83-3.23"/>
  </g>
  <rect class="cls-12" x="3182.44" y="465.26" width="110.68" height="11.63" rx="5.81" ry="5.81" transform="translate(119.35 1461.29) rotate(-25.89)"/>
  <rect class="cls-12" x="2924.33" y="258.1" width="166.15" height="11.63" rx="5.81" ry="5.81" transform="translate(962.62 2484.94) rotate(-52.38)"/>
  <rect class="cls-12" x="3200.18" y="505.85" width="75.2" height="11.63" rx="5.81" ry="5.81" transform="translate(101.63 1465.37) rotate(-25.89)"/>
  <rect class="cls-12" x="2925.57" y="245.4" width="75.2" height="11.63" rx="5.81" ry="5.81" transform="translate(881.83 2375.25) rotate(-50.43)"/>
</svg>