<?xml version="1.0" encoding="UTF-8"?>
<svg id="Capa_1" data-name="Capa 1" xmlns="http://www.w3.org/2000/svg" xmlns:xlink="http://www.w3.org/1999/xlink" viewBox="0 0 786.9 926.19">
  <defs>
    <style>
      .cls-1 {
        fill: #0c0b0b;
      }

      .cls-2 {
        stroke-width: 1.08px;
      }

      .cls-2, .cls-3, .cls-4, .cls-5 {
        stroke: #000;
      }

      .cls-2, .cls-3, .cls-5 {
        stroke-miterlimit: 10;
      }

      .cls-3 {
        fill: #fff;
      }

      .cls-3, .cls-5 {
        stroke-width: 7.56px;
      }

      .cls-6 {
        fill: #b2b2b2;
        opacity: .46;
      }

      .cls-6, .cls-7, .cls-8 {
        isolation: isolate;
      }

      .cls-9 {
        fill: #6aa8a4;
      }

      .cls-7 {
        fill: url(#Degradado_sin_nombre_2);
      }

      .cls-7, .cls-8 {
        opacity: .35;
      }

      .cls-4 {
        stroke-linecap: round;
        stroke-width: 6.48px;
      }

      .cls-4, .cls-5 {
        fill: none;
      }

      .cls-10 {
        fill: rgba(201, 181, 216, .7);
      }

      .cls-11 {
        fill: url(#Degradado_sin_nombre);
      }

      .cls-8 {
        fill: url(#Degradado_sin_nombre_3);
      }
    </style>
    <linearGradient id="Degradado_sin_nombre" data-name="Degradado sin nombre" x1="386.07" y1="-1.26" x2="384.35" y2="50.68" gradientTransform="translate(0 916.27) scale(1 -1)" gradientUnits="userSpaceOnUse">
      <stop offset=".24" stop-color="#fff" stop-opacity="0"/>
      <stop offset=".29" stop-color="#d7e4e4" stop-opacity=".26"/>
      <stop offset=".35" stop-color="#b5cdcd" stop-opacity=".48"/>
      <stop offset=".41" stop-color="#98baba" stop-opacity=".67"/>
      <stop offset=".48" stop-color="#81abab" stop-opacity=".82"/>
      <stop offset=".55" stop-color="#72a1a1" stop-opacity=".92"/>
      <stop offset=".63" stop-color="#689a9a" stop-opacity=".98"/>
      <stop offset=".75" stop-color="#699"/>
    </linearGradient>
    <radialGradient id="Degradado_sin_nombre_2" data-name="Degradado sin nombre 2" cx="96.71" cy="883.16" fx="96.71" fy="883.16" r="1" gradientTransform="translate(10265.97 25168.91) rotate(-48.08) scale(29.95 -27.22) skewX(18.8)" gradientUnits="userSpaceOnUse">
      <stop offset=".09" stop-color="#7b6178" stop-opacity=".7"/>
      <stop offset=".65" stop-color="#7b6178" stop-opacity=".37"/>
      <stop offset=".98" stop-color="#7b6178" stop-opacity="0"/>
    </radialGradient>
    <radialGradient id="Degradado_sin_nombre_3" data-name="Degradado sin nombre 3" cx="94.13" cy="882.95" fx="94.13" fy="882.95" r="1" gradientTransform="translate(-21316.17 8964.4) rotate(41.92) scale(26.19 -23.8) skewX(18.8)" gradientUnits="userSpaceOnUse">
      <stop offset=".09" stop-color="#7b6178" stop-opacity=".7"/>
      <stop offset=".65" stop-color="#7b6178" stop-opacity=".37"/>
      <stop offset=".98" stop-color="#7b6178" stop-opacity="0"/>
    </radialGradient>
  </defs>
  <path class="cls-10" d="M786.83,371.24C791.01,165.83,609.8,4.45,395.56.09,181.31-4.28,4.25,158.71.06,364.11c-1.36,66.7,18.8,136.79,49.77,191.58l41.5-71c-6.72-2.69,81.98-85.7,78.04-84.92-1.96.39-3.54.21-4.22-1.03-1.59-6.02,10.71-21.23,14.53-27.51,6.46-9.56,12.51-19.39,18.08-29.51,9.44-16.98,16.22-35.55,31.34-48.01,5.8-5.08,12.85-9.25,18.2-14.71,7.52-7.45,10.2-16.79,10.23-27.38-1.88-38.86-.07-51.24,22.75-84.1,21.67-32.21,46.74-54.99,86.22-60.83,46.65-1.59,69.68,29.76,85.34,74.48,3.61,9.05,25.56,11.15,31.3,18.88,17.12,21.83,31.38,17.09,43.7,51.12,5.45,15.1,15.58,29.64,19.85,45.13,3.69,14.12,9.78,27.41,16.82,40.17,11,20.09,24.24,39.43,32.36,60.86,2.04,4.92-4.37,10.99,0,11.84,16.13-2.85,94.57,112.07,106.96,144,13,33.5-9.5,53.5,34,0s50-181.95,50-181.95Z"/>
  <path class="cls-11" d="M539.59,912.12l-306.93,14.07-.6-64.47c47.83-.67,96.25,2.61,144.08,1.94,51.4-.72,103.54-8.71,154.95-9.44,2.84,19.3,5.68,38.61,8.51,57.9h0Z"/>
  <path class="cls-5" d="M231.45,859.1l1.21,60.26"/>
  <path class="cls-5" d="M532.09,851.22l7.91,62.61"/>
  <path class="cls-9" d="M411.91,346.18c-3.26-2.12-3.45.72-6.2,3.86-1.98,2.31-6.72,7.31-9.15,9.11-16.55,12.82-40.29,8.4-52.59-8.25-1.31-1.77-4.44-6.21-7.22-5.2-3.23,1.18-2.39,8.12-2.36,10.6.1,11.11.18,23.49,2.53,34.33,1.38,6.39,3.1,12.67,5.67,18.68,1.85,4.34,4.39,10.11,8.14,13.09,3.75,2.98,4.93,3.26,7.89,7.1,3.26,4.22,3.95,7.94,6.79,12.36,3.95,6.16,1.15,11.66,3.03,6.44,2.88-7.98,6.18-15.8,9.74-23.53,10.93-23.69,26.48-44.98,33.73-70.33.85-2.99,3.59-5.95.02-8.26h-.02Z"/>
  <path class="cls-5" d="M204.08,697.54c-1.98,16.96-4.87,33.68-10.43,49.83-14.14,42.35-49.31,104.27,21.43,111.06,16.24,1.56,32.62,1.12,48.85,2.02,46.94,2.33,97.55,4.19,144.82,1.19,27.54-1.97,53.8-5.57,82.34-7.01,24.74-2.05,63.17-.56,80.97-19.24,20.66-23.28,1.96-51.22-9.11-75.45-10.63-23.61-16.66-46.43-23.61-72.75"/>
  <path class="cls-5" d="M332.18,298.44c-6.74-3.77-31.13,29.08-32.26,30.6-7.91,10.72-11.17,17.66-15.71,27.3-5.12,10.84-7.18,17.89-5.79,25.64.54,3.02,1.4,7.45,4.97,9.92,1.39.97,4.26,2.38,17.38,0,5.84-1.06,10.65-2.31,14.06-3.3l8.27-2.48-14.06,27.3,52.54,61.21c1.07-1.3,2.48-3.23,3.7-5.79,5.32-11.19,1.5-22.89,0-27.3-4.69-13.68-11.93-15.4-19.85-27.3-7.54-11.33-8.89-23.27-11.58-47.15-2.24-19.78-3.77-33.43-1.65-52.11,1.08-9.48,2.52-15.14,0-16.54h-.02Z"/>
  <path class="cls-5" d="M417.27,304.23c6.55-1.26,14.89,22.66,23.53,47.42,2.9,8.35,5.02,15.66,1.47,22.06-2.84,5.12-9.62,10.24-16.91,10.66-4.5.26-6.96-1.41-8.09,0-1.83,2.29,3.83,7.72,7.35,18.75,1.33,4.15,2.31,7.24,2.2,10.29-.51,15.26-27.67,14.27-39.71,36.76-4.2,7.85-5.69,16.92-15.44,24.45-2.32,1.79,1.31,4.19-.75,3.02-6.01-3.41.44-37.72,2.21-42.17,3.74-9.4,5.61-11.31,19.86-38.22,8.22-15.54,12.33-23.31,13.23-25.38,15.64-36.09,4.55-66.39,11.03-67.64h.01Z"/>
  <path class="cls-5" d="M318.9,304.97c-17.79,6.9-48.42,28.69-64.84,38.85-90.85,55.73-184.16,135.99-213.04,241.03-2.71,15.49-2.33,35.29,1,50.7,2.51,12.64,8.79,23.91,18.73,32.07,24.8,20.08,59.47,24.09,90.36,25.39,17.85.86,35.62,1.42,53.42,3.37,2.84.28,5.9.43,8.63-.05,18.85-2.62,4.48-28.7,2.66-38.53-1.73-9.31-1.26-17.08-1.13-21.11.23-7.02.85-7.42,3.02-25.91,2.26-19.19,2.13-18.45,2.76-21.64.46-2.32,3.7-8.4,4.2-16.74.09-1.51.14-2.26.02-3.11-.96-7.38-9.48-12.35-14.74-14.51-10.71-4.4-22.03-7.38-33.06-11.26-12-4.12-24.06-9.07-36.24-12.42-1.87-.57-3-.96-3.13-1.12.88-.3,4.29.55,6.15.85,16.82,3.76,33.41,8.84,49.92,14.06,6.23,1.9,12.68,4.55,18.42,7.36,8.6,4.21,10.09-.2,10.13-8.24-.08-22,1.8-44.16,4.06-66.11,1.52-11.86,2.46-24.33,5.81-35.77,1.72-4.67,3.92-4.42,4.48.74.51,4.06-.26,9.32-1.03,13.61-5.59,27.87-5.69,56.53-10.21,84.59-1.23,6.92-1.8,14.97.97,21.38.78,1.74,1.82,2.99,3.08,3.83,0,0,1.53,1.03,3.64,1.33,3.17.45,13.07-1.32,19.53-10.03,8.09-10.89,5.21-26.66,8.61-39.08,4.41-12.44,15.82-13.78,27.4-13.16,14.32.56,28.58.69,42.88.38,12.24-.29,24.36.02,36.61.22,0,0-.79-26.09-9.68-33.92-25.03-22.04-50.1-58.63-49.31-58.59,0,0,5.73-11.12,9.6-19.95,2.38-5.41-8.9-3.12-13.65-2.18-15.6,4.52-28.09,3.66-29.36-13.67-.39-5.68,6.27-14.45,7.94-19.87,4.75-15.23,11.15-27.59,23.63-37.75,1.21-1,7.75-9.58,8.61-10.26,1.37-1.09,3.27-4.63,3.11-4.76h.03Z"/>
  <path class="cls-5" d="M424.93,307.59c17.79,6.9,55.62,21.46,72.04,31.61,90.85,55.73,183.68,133.01,212.54,238.05,2.71,15.49,2.33,35.29-1,50.7-2.98,15.02-12.17,27.77-24.72,36.37-21.72,14.87-48.89,20.13-74.67,21.78-26.76,1.71-56.39,2.05-82.99-1.65-16.47-2.3,9.61-20.86,12.46-26.58,7.17-14.34,7.3-31.34,4.73-46.83-2.43-14.69-10.8-28.3-11.68-43.08-.09-1.51,1.13-10.72,1.24-11.58.96-7.38,2.44-7.03,7.7-9.19,10.71-4.4,22.03-7.38,33.05-11.26,12-4.11,24.06-9.07,36.24-12.42,1.87-.57,3-.96,3.13-1.12-.87-.3-4.29.55-6.14.85-16.83,3.76-33.41,8.84-49.92,14.06-6.23,1.9-12.68,4.55-18.42,7.36-8.6,4.21-10.09-.21-10.13-8.24.08-22-1.8-44.16-4.06-66.11-1.52-11.86-2.46-24.33-5.81-35.77-1.72-4.68-3.92-4.42-4.48.73-.51,4.06.26,9.32,1.03,13.61,5.59,27.87,5.69,56.53,10.22,84.59,1.23,6.92,5.07,14.15,5.61,21.11.21,2.69,1.46,12.13-8.07,9.1-5.99-1.91-19.82-2.65-21.92-2.34-3.18.45-7.17.96-7.17.96,0,0,.38-32.28-3.01-44.69-4.41-12.44-14.36-12.32-25.94-11.7-14.32.56-31.88.31-46.19,0-12.24-.29-37.52-.32-49.77-.14,0,0-1.66-19.69,6.55-28.22,8.37-8.67,7.82-25.42,16.33-34.12,14.2-14.51,37.26-21.09,35.06-31.86,0,0-2.11-14.11-8.73-24.32-3.22-4.96.52-3.84,5.26-2.91,17.62-.68,20.59-16.24,20.66-21.91.18-18.48-22.88-50.73-19.03-54.87Z"/>
  <path class="cls-5" d="M540.07,713.84l-65.96-1.28,14.91,75.91c1.72,12.11,12.88,20.56,25,18.93l50.62-6.81c7.88-1.06,12.69-9.21,9.82-16.62l-28.11-66.08c-.99-2.56-3.53-4.2-6.27-4.05h-.01Z"/>
  <path class="cls-5" d="M370.95,474.63h-5.9v27.16h5.9v-27.16Z"/>
  <path class="cls-5" d="M366.52,698.84c2.95,54.93,5.9,109.88,8.86,164.81"/>
  <path class="cls-2" d="M256.4,660.23c-6.87-2.01-14.63-8.02-20.92-11.47-3.27-2.84-6.64-6.07-9.78-8.94-2.21-1.75-6.5-8.88-8.71-5.64-.93,13.48-.03,27.57,1.04,41.12.42,3.88,1.52,7.7,1.85,11.46.27,3.28,2.29,8.46-.02,8.96-30.98,6.71,13.29,4,18.62,2.85,7.67-1.64,14.24-8.32,16.21-15.95,1.19-4.64.76-9.49.45-14.24.04-.92-.19-8.59,1.29-8.14h-.01Z"/>
  <path class="cls-5" d="M469.85,696.48h-189.49c-11.36,0-20.57-9.21-20.57-20.57,0-46.99-2.39-94.63-.06-141.51.43-8.79,2.6-21.25,10.15-27.03,7.55-5.78,17.6-1.99,25.81-1.67,12.32.46,24.64.8,36.97,1,45.82.73,92.44,1.65,138.21-.24,11.75-.46,21.52,8.93,21.52,20.69v146.78c0,12.45-10.1,22.55-22.55,22.55Z"/>
  <path class="cls-5" d="M264.69,515.93c.94,8.97,10.71,16.92,17.88,22.55,21.36,16.08,42.93,31.87,64.34,47.85,8.13,6.07,16.96,12.35,27.29,13.78,10.32,1.43,17.22-2.25,25.41-7.4,16.53-10.41,31.65-23.84,47.48-35.29,14.74-10.66,29.76-23.67,37.87-40.29.79-1.62,1.52-3.34,1.49-5.14-.2-11.04-34.47-6.36-41.39-6.47-15.51-.25-31.02-.37-46.54-.41-30.52-.08-61.14-.4-91.64.53-12.35.38-42.28-6.22-42.18,10.14v.14h-.01Z"/>
  <path class="cls-5" d="M335.28,576.69l-74.12,95.34"/>
  <path class="cls-5" d="M416.47,577.73l73.97,102.3"/>
  <path class="cls-3" d="M224.84,640.67c.37.61.76,1.21,1.2,1.78,1.94,2.58,4.54,4.61,7.28,6.33,16.09,10.09,37.96,10.66,56.23,13.71,5.67.95,18.13-2.73,12.85-11.29-1.98-3.2-8.27-2.95-8.27-2.92s10.07,4.02,15.99,0c5.55-3.77,5.11-13.01,4.97-14.89-.19-2.48,2.64-6.24-.49-5.78-4.5.67-13.21-4.66-13.29-3.6-.13,1.58,12.43,6.45,18.21,1.65,6.65-5.54,3.36-21-2.87-25.53-2.04-1.49-4.53-2.19-6.98-2.86-14.64-4.05-29.22-8.22-43.78-12.54-.9-.27-1.82-.54-2.57-1.11-.81-.62-1.35-1.5-1.88-2.38-1.18-1.96-3.19-3.61-3.52-5.85-1.07-7.34-1.65-9.22-.31-19.22-1.78,3.21-8.04,6.15-19.5,11.89-20.76,10.38-20.26,34.58-17.25,54.62.94,6.22.63,12.33,3.99,17.99h0Z"/>
  <path class="cls-3" d="M300.91,650.65c-7.07-7.06-49.93-9.31-41.6-10.12,5.71-.55,10.69,1.59,10.69,1.59,0,0,31.78,9.39,30.91,8.53Z"/>
  <path class="cls-3" d="M311.51,627.69c-8.42-7.91-66.66-15.62-55.11-15.35,7.9.18,14.34,2.94,14.34,2.94,0,0,41.81,13.38,40.78,12.41h-.01Z"/>
  <path class="cls-3" d="M510.81,566.01c-1.39-.24-2.8-.4-4.2-.45-7.01-.29-13.82,2.32-20.17,4.98-6.78,2.85-13.48,5.89-20.15,9-4.91,2.29-11.2,6.93-16.54,7.79-5.54.89-10.07,5.16-11.04,10.73-.7,4.05.55,9.59,4.42,11.73,2.4,1.33,6.29.45,14.06-1.27,3.87-.86,5.8-1.3,5.79-1.34-.17-1.18-11.45,1.89-12.18,2.18-6.43,2.49-13.5,8.08-11.98,15.79.79,3.97,3.42,7.36,6.5,10,2.4,2.05,5.17,3.78,8.27,4.35,6.78,1.26,13.29-3.08,20.15-3.87-4.71,1.1-9.28,2.77-13.59,4.95-8.81,4.45-3.14,10.48,3.01,14.01,9.12,5.25,19.17,5.41,29.22,3.27,11.77-2.52,23.49-5.46,35.43-7.06,2.28-.3,5.81,0,7.68-1.26,1.65-1.11,3.09-4.2,3.95-5.95,2.2-4.44,2.89-9.36,2.75-14.28.56-21.95-.3-42.47-16.35-59.13-4.94-1.44-9.96-3.29-15.08-4.16h.03Z"/>
  <path class="cls-3" d="M514.66,625.54c-11.27-2.51-65.31,20.54-55.24,14.88,6.89-3.87,13.83-4.77,13.83-4.77,0,0,42.8-9.79,41.4-10.11Z"/>
  <path class="cls-3" d="M504.9,590c-8.05,9.96-65.87,21.61-54.35,20.83,7.89-.53,14.19-4.14,14.19-4.14,0,0,41.15-17.93,40.16-16.7Z"/>
  <path class="cls-6" d="M331.55,322.91c.16,7.56,1.68,16.35,3.46,21.46.8,2.23,3.02,8.69,4.89,3.27,2.25-7.29,4.87-16.96,12.18-21.2,5.12-3.11,12.07-2.78,20.69-3.14,13.69-.19,27.77-2.27,37.38-12.84,14.44-16.68-26.59-10-37.03-9.69-10.03.45-24.98-3.53-33.54-.27-6.88,2.61-8.63,10.93-8.03,22.16v.25h.01Z"/>
  <path class="cls-5" d="M338.79,297.65c-6.4,2.45-6.84,14.17-6.81,21.74,1.17,45.24,57.31,68.99,79.09,22.18,3.68-8.02,5.12-16.85,4.87-25.66-.07-3.35-.29-6.81-.64-10-.78-5.88-1.39-13.59-8.32-11.1-3.83,1.29-9.6,5.11-15.84,6.9-9.91,2.6-20.52,2.85-30.65,1.2-8.79-1.5-15.5-6.76-21.59-5.3l-.12.03h0Z"/>
  <path d="M314.03,214.21c13.37-11.8,22.7-27.25,34.85-40.18,7.99-8.51,18.07-14.61,28.49-6.29,8.27,6.62,15.66,14.22,23.51,21.32,8.08,7.29,17.15,13.41,24.57,21.41,11.94,12.61,15.19,30.06,10.03,46.51-3.26,14.48-28.51,29.21-19.5,43.52,7.69,11.25,36.86,19.82,49.15,25.96,45.07,19.98,86.32,47.91,124.89,78.42,3.82,2.42,6.57,3.13,7.78,1.64,2.31-1.85-1.06-12.75-3.2-17.63-8.55-21.26-22.19-40.33-33.6-60.19-7.3-12.61-13.66-25.78-17.64-39.81-4.59-15.4-6.02-31.82-11.77-46.81-13.01-33.77-36.16-26.64-53.72-48.12-5.9-7.61-9.33-17.47-13.12-26.45-16.57-44.39-58.79-67.06-105.4-64.52-39.35,6.64-63.95,29.92-84.96,62.57-22.15,33.31-23.7,45.73-21.04,84.54.18,10.58-2.31,19.98-9.68,27.58-5.24,5.56-12.2,9.88-17.89,15.08-14.86,12.76-21.26,31.47-30.35,48.64-5.36,10.23-11.21,20.18-17.47,29.87-3.68,6.35-15.68,21.81-13.96,27.8,2.15,3.68,12.2-2.34,16.32-4.7,38.54-23.89,83.23-57.03,121.72-80.97,22.2-13.81,46.1-4.99,15.4-50.02-5.43-7.97-21.63-18.97-26.75-27.67-3.94-6.54.02-9.31-3.22-16.18-1.14-10.6,20.73.79,26.57-5.33v.02Z"/>
  <path class="cls-5" d="M373.71,161.32c-33.28,0-54.56,27.26-59.35,59.54-6.81-7.13-15.28-10.02-20.69-6.45-6.6,4.35-6.14,16.65.99,27.46,5.72,8.67,14.02,13.74,20.47,13.16,5.33,27.92,22.61,47.72,53.62,47.72,38.03,0,65.34-19.04,65.34-57.07s-22.35-84.37-60.38-84.37h-.01Z"/>
  <path d="M516.76,652.61c0,4.48.67,9.02,0,13.46-3.79,24.93,5.7,14.27,13.38,1.68,1.99-2.25,6.62-5.74,7.6-8.62l4.61-13.36-20.01,5.83-5.58,1Z"/>
  <ellipse class="cls-7" cx="334.86" cy="249.94" rx="35.26" ry="54.32" transform="translate(-69.57 144.9) rotate(-22.18)"/>
  <ellipse class="cls-8" cx="414.09" cy="239.41" rx="47.49" ry="30.83" transform="translate(69.47 571.11) rotate(-73.94)"/>
  <path class="cls-4" d="M382.26,220.72s3.1,22.58,3.1,30.93-10.65,5.42-10.65,5.42M335.69,211.8s4.75-3.94,8.43-4.9c3.52-.93,9.31,0,9.31,0M393.79,204.22s3.99-1.74,6.71-1.71c2.6.04,6.46,1.74,6.46,1.74M359.45,272.17s2.96,3.32,9.18,4.86c6.22,1.54,11.88,0,11.88,0"/>
  <circle class="cls-1" cx="352.97" cy="223.03" r="4.32"/>
  <circle class="cls-1" cx="401.56" cy="220.87" r="4.32"/>
</svg>