<svg width="799" height="934" viewBox="0 0 799 934" fill="none" xmlns="http://www.w3.org/2000/svg">
<path d="M790.992 379.047C795.173 173.64 613.959 12.2576 399.717 7.89649C185.474 3.53538 8.40729 166.516 4.22602 371.923C2.86818 438.627 23.0212 508.716 53.9919 563.5L95.4919 492.5C88.7689 489.811 177.469 406.804 173.53 407.584C171.574 407.971 169.995 407.79 169.306 406.553C167.712 400.537 180.021 385.321 183.832 379.047C190.291 369.49 196.346 359.655 201.909 349.539C211.349 332.558 218.132 313.988 233.248 301.529C239.044 296.452 246.095 292.275 251.445 286.821C258.963 279.371 261.648 270.028 261.68 259.444C259.803 220.587 261.61 208.202 284.432 175.346C306.107 143.135 331.175 120.359 370.653 114.519C417.302 112.931 440.333 144.278 455.992 189C459.599 198.049 481.554 200.15 487.294 207.881C504.413 229.713 518.669 224.974 530.992 259C536.441 274.103 546.568 288.638 550.843 304.127C554.53 318.244 560.622 331.534 567.664 344.293C578.661 364.38 591.909 383.725 600.028 405.157C602.066 410.08 595.655 416.147 600.028 417C616.155 414.147 694.6 529.067 706.992 561C719.992 594.5 697.492 614.5 740.992 561C784.492 507.5 790.992 379.047 790.992 379.047Z" fill="#744D82"/>
<rect x="496.492" y="596" width="37" height="105" fill="#FCF4E9"/>
<rect x="228.492" y="641" width="37" height="105" fill="#FCF4E9"/>
<path d="M543.753 919.929L236.818 934L236.213 869.531C284.041 868.862 332.463 872.145 380.291 871.475C431.694 870.752 483.83 862.76 535.244 862.037C538.084 881.334 540.924 900.643 543.753 919.94V919.929Z" fill="url(#paint0_linear_2438_1105)"/>
<path d="M235.608 866.907L236.818 927.164" stroke="black" stroke-width="7.55918" stroke-miterlimit="10"/>
<path d="M536.248 859.035L544.153 921.646" stroke="black" stroke-width="7.55918" stroke-miterlimit="10"/>
<path d="M416.068 353.995C412.807 351.878 412.623 354.718 409.869 357.85C407.893 360.161 403.152 365.161 400.723 366.964C384.168 379.782 360.432 375.366 348.132 358.714C346.826 356.943 343.694 352.505 340.908 353.509C337.679 354.686 338.521 361.63 338.543 364.113C338.64 375.225 338.727 387.601 341.07 398.443C342.452 404.836 344.169 411.11 346.739 417.125C348.586 421.466 351.134 427.233 354.882 430.213C358.629 433.193 359.817 433.474 362.776 437.308C366.037 441.53 366.728 445.245 369.568 449.673C373.52 455.828 370.723 461.335 372.602 456.109C375.486 448.128 378.779 440.31 382.343 432.578C393.271 408.885 408.822 387.601 416.068 362.245C416.921 359.254 419.653 356.295 416.089 353.984L416.068 353.995Z" fill="#57EAF9"/>
<path d="M208.241 705.346C206.265 722.31 203.37 739.028 197.807 755.175C183.668 797.527 148.498 859.443 219.237 866.233C235.472 867.791 251.858 867.35 268.082 868.253C315.025 870.584 365.631 872.443 412.898 869.445C440.442 867.479 466.701 863.88 495.238 862.44C519.974 860.388 558.406 861.882 576.207 843.198C596.87 819.917 578.162 791.973 567.101 767.746C556.473 744.131 550.445 721.311 543.489 695" stroke="black" stroke-width="7.55918" stroke-miterlimit="10"/>
<path d="M336.34 306.253C329.601 302.484 305.207 335.334 304.084 336.857C296.179 347.58 292.918 354.513 288.372 364.157C283.253 374.999 281.19 382.05 282.583 389.793C283.123 392.817 283.987 397.244 287.551 399.717C288.944 400.689 291.806 402.093 304.926 399.717C310.768 398.659 315.574 397.406 318.986 396.413L327.258 393.929L313.198 421.228L365.734 482.436C366.803 481.14 368.218 479.207 369.438 476.648C374.762 465.46 370.939 453.754 369.438 449.349C364.752 435.666 357.506 433.949 349.59 422.049C342.053 410.721 340.703 398.778 338.014 374.901C335.778 355.118 334.245 341.468 336.362 322.786C337.441 313.305 338.878 307.646 336.362 306.242L336.34 306.253Z" stroke="black" stroke-width="7.55918" stroke-miterlimit="10"/>
<path d="M421.435 312.041C427.99 310.778 436.326 334.697 444.965 359.459C447.87 367.807 449.987 375.117 446.434 381.521C443.594 386.64 436.812 391.758 429.523 392.179C425.02 392.439 422.558 390.765 421.435 392.179C419.61 394.469 425.268 399.901 428.789 410.926C430.117 415.073 431.1 418.161 430.992 421.218C430.484 436.476 403.325 435.483 391.284 457.977C387.084 465.828 385.594 474.898 375.842 482.425C373.52 484.218 377.149 486.615 375.097 485.449C369.082 482.037 375.54 447.729 377.311 443.28C381.047 433.874 382.926 431.973 397.17 405.062C405.388 389.523 409.502 381.748 410.398 379.685C426.035 343.596 414.945 313.294 421.424 312.041H421.435Z" stroke="black" stroke-width="7.55918" stroke-miterlimit="10"/>
<path d="M323.057 312.776C305.272 319.676 274.635 341.468 258.221 351.63C167.371 407.363 74.058 487.62 45.1819 592.66C42.4714 608.145 42.8494 627.95 46.1862 643.36C48.6915 655.995 54.9765 667.269 64.9114 675.433C89.7163 695.508 124.381 699.525 155.276 700.821C173.126 701.685 190.901 702.235 208.698 704.19C211.538 704.471 214.594 704.622 217.326 704.136C236.181 701.512 221.808 675.433 219.983 665.606C218.255 656.297 218.719 648.522 218.849 644.494C219.076 637.475 219.702 637.075 221.872 618.588C224.129 599.398 224 600.143 224.637 596.947C225.101 594.625 228.341 588.545 228.838 580.209C228.924 578.697 228.978 577.952 228.859 577.099C227.898 569.723 219.378 564.745 214.119 562.585C203.406 558.19 192.089 555.209 181.064 551.322C169.066 547.207 157.004 542.251 144.823 538.903C142.955 538.331 141.821 537.942 141.691 537.78C142.566 537.478 145.978 538.331 147.836 538.633C164.66 542.391 181.247 547.477 197.759 552.693C203.99 554.594 210.436 557.24 216.181 560.058C224.777 564.27 226.268 559.853 226.311 551.819C226.235 529.821 228.114 507.662 230.371 485.708C231.894 473.851 232.833 461.378 236.181 449.942C237.898 445.267 240.101 445.526 240.662 450.677C241.17 454.737 240.403 459.996 239.636 464.283C234.043 492.155 233.945 520.815 229.421 548.87C228.19 555.793 227.617 563.838 230.393 570.252C231.17 571.991 232.218 573.243 233.47 574.086C233.47 574.086 235.004 575.112 237.11 575.414C240.284 575.868 250.176 574.097 256.645 565.382C264.733 554.497 261.86 538.72 265.251 526.301C269.657 513.861 281.072 512.522 292.648 513.137C306.967 513.699 321.232 513.828 335.53 513.515C347.765 513.224 359.892 513.537 372.138 513.731C372.138 513.731 371.35 487.641 362.462 479.812C337.431 457.772 312.367 421.185 313.155 421.218C313.155 421.218 318.889 410.095 322.755 401.272C325.131 395.862 313.857 398.151 309.105 399.091C293.501 403.615 281.018 402.752 279.743 385.419C279.355 379.739 286.017 370.971 287.68 365.55C292.432 350.323 298.825 337.959 311.308 327.797C312.518 326.793 319.062 318.218 319.915 317.538C321.286 316.447 323.187 312.905 323.025 312.776H323.057Z" stroke="black" stroke-width="7.55918" stroke-miterlimit="10"/>
<path d="M429.091 315.4C446.877 322.3 484.716 336.857 501.13 347.008C591.981 402.741 684.807 480.017 713.673 585.057C716.383 600.543 716.005 620.348 712.668 635.758C709.688 650.779 700.498 663.532 687.95 672.128C666.233 686.998 639.063 692.257 613.276 693.91C586.516 695.616 556.884 695.961 530.287 692.257C513.819 689.957 539.898 671.394 542.749 665.681C549.919 651.341 550.049 634.343 547.479 618.847C545.049 604.16 536.68 590.543 535.794 575.77C535.708 574.259 536.928 565.047 537.036 564.194C537.997 556.818 539.477 557.164 544.736 555.004C555.448 550.609 566.765 547.629 577.791 543.741C589.788 539.627 601.851 534.67 614.032 531.322C615.9 530.75 617.034 530.361 617.163 530.199C616.289 529.897 612.876 530.75 611.019 531.052C594.194 534.81 577.607 539.897 561.096 545.113C554.865 547.013 548.418 549.659 542.673 552.477C534.077 556.689 532.587 552.272 532.544 544.238C532.619 522.241 530.74 500.081 528.483 478.127C526.961 466.27 526.021 453.798 522.674 442.362C520.957 437.686 518.754 437.945 518.192 443.096C517.685 447.156 518.451 452.415 519.218 456.703C524.812 484.574 524.909 513.234 529.434 541.29C530.665 548.212 534.509 555.436 535.049 562.401C535.254 565.09 536.507 574.529 526.982 571.505C520.989 569.593 507.167 568.859 505.061 569.161C501.886 569.615 497.89 570.123 497.89 570.123C497.89 570.123 498.268 537.845 494.878 525.437C490.472 512.997 480.515 513.116 468.939 513.742C454.619 514.303 437.061 514.055 422.752 513.742C410.517 513.45 385.237 513.418 372.98 513.602C372.98 513.602 371.317 493.915 379.535 485.384C387.904 476.713 387.354 459.964 395.863 451.26C410.063 436.746 433.119 430.17 430.927 419.403C430.927 419.403 428.821 405.289 422.201 395.084C418.983 390.128 422.72 391.24 427.46 392.179C445.084 391.499 448.054 375.938 448.119 370.269C448.302 351.792 425.236 319.536 429.091 315.4Z" stroke="black" stroke-width="7.55918" stroke-miterlimit="10"/>
<path d="M544.228 721.652L478.269 720.367L493.182 796.282C494.899 808.388 506.065 816.843 518.182 815.213L568.806 808.399C576.69 807.341 581.495 799.187 578.623 791.779L550.513 725.701C549.52 723.142 546.982 721.501 544.239 721.652H544.228Z" stroke="black" stroke-width="7.55918" stroke-miterlimit="10"/>
<path d="M375.108 482.436H369.212V509.595H375.108V482.436Z" stroke="black" stroke-width="7.55918" stroke-miterlimit="10"/>
<path d="M370.68 706.652C373.628 761.586 376.576 816.53 379.535 871.464" stroke="black" stroke-width="7.55918" stroke-miterlimit="10"/>
<path d="M260.565 668.036C253.697 666.027 245.932 660.012 239.647 656.567C236.375 653.727 233.006 650.498 229.864 647.626C227.65 645.876 223.363 638.749 221.149 641.989C220.22 655.466 221.116 669.558 222.186 683.111C222.607 686.988 223.708 690.81 224.032 694.568C224.302 697.851 226.321 703.024 224.011 703.531C193.029 710.237 237.304 707.527 242.628 706.382C250.295 704.741 256.871 698.067 258.837 690.432C260.025 685.789 259.593 680.94 259.29 676.189C259.334 675.271 259.096 667.604 260.575 668.046L260.565 668.036Z" fill="black" stroke="black" stroke-width="1.07988" stroke-miterlimit="10"/>
<path d="M474.014 704.287H284.527C273.167 704.287 263.955 695.076 263.955 683.715C263.955 636.73 261.569 589.085 263.891 542.208C264.323 533.417 266.493 520.956 274.042 515.178C281.59 509.401 291.644 513.191 299.851 513.504C312.172 513.969 324.494 514.303 336.826 514.509C382.645 515.243 429.264 516.161 475.04 514.271C486.789 513.807 496.562 523.202 496.562 534.962V681.739C496.562 694.19 486.465 704.287 474.014 704.287Z" stroke="black" stroke-width="7.55918" stroke-miterlimit="10"/>
<path d="M268.847 523.742C269.787 532.715 279.56 540.663 286.73 546.29C308.09 562.369 329.656 578.157 351.07 594.139C359.201 600.208 368.035 606.493 378.358 607.918C388.682 609.344 395.582 605.672 403.768 600.521C420.301 590.111 435.419 576.678 451.25 565.231C465.991 554.572 481.012 541.56 489.122 524.94C489.91 523.32 490.644 521.603 490.612 519.8C490.407 508.764 456.142 513.44 449.22 513.332C433.713 513.083 418.195 512.964 402.677 512.921C372.16 512.846 341.534 512.522 311.038 513.45C298.684 513.828 268.761 507.23 268.858 523.59V523.731L268.847 523.742Z" stroke="black" stroke-width="7.55918" stroke-miterlimit="10"/>
<path d="M339.439 584.496L265.316 679.839" stroke="black" stroke-width="7.55918" stroke-miterlimit="10"/>
<path d="M420.636 585.543L494.608 687.841" stroke="black" stroke-width="7.55918" stroke-miterlimit="10"/>
<path d="M229 648.479C229.367 649.094 229.756 649.688 230.198 650.261C232.142 652.842 234.734 654.872 237.477 656.589C253.567 666.675 275.435 667.247 293.706 670.303C299.376 671.254 311.837 667.571 306.557 659.008C304.581 655.811 298.285 656.06 298.285 656.092C298.285 656.124 308.36 660.109 314.278 656.092C319.829 652.323 319.386 643.08 319.245 641.201C319.051 638.717 321.88 634.959 318.759 635.423C314.256 636.093 305.552 630.758 305.466 631.827C305.337 633.404 317.896 638.274 323.673 633.479C330.325 627.94 327.031 612.476 320.8 607.951C318.759 606.461 316.265 605.759 313.824 605.089C299.181 601.04 284.603 596.871 270.046 592.552C269.15 592.282 268.221 592.012 267.476 591.44C266.666 590.824 266.126 589.938 265.597 589.064C264.42 587.109 262.411 585.457 262.076 583.211C261.007 575.868 260.424 573.989 261.763 563.989C259.981 567.196 253.718 570.144 242.261 575.878C221.505 586.256 222.002 610.456 225.015 630.499C225.954 636.719 225.641 642.831 229 648.49V648.479Z" fill="white" stroke="black" stroke-width="7.55918" stroke-miterlimit="10"/>
<path d="M305.067 658.457C297.993 651.395 255.133 649.149 263.47 648.339C269.182 647.788 274.16 649.926 274.16 649.926C274.16 649.926 305.941 659.321 305.067 658.457Z" fill="white" stroke="black" stroke-width="7.55918" stroke-miterlimit="10"/>
<path d="M315.671 635.499C307.248 627.594 249.01 619.884 260.565 620.154C268.469 620.337 274.905 623.091 274.905 623.091C274.905 623.091 316.719 636.471 315.682 635.499H315.671Z" fill="white" stroke="black" stroke-width="7.55918" stroke-miterlimit="10"/>
<path d="M514.974 573.816C513.581 573.578 512.177 573.416 510.774 573.362C503.765 573.071 496.951 575.684 490.601 578.341C483.82 581.191 477.124 584.226 470.451 587.336C465.537 589.625 459.252 594.269 453.907 595.122C448.367 596.007 443.842 600.284 442.87 605.856C442.169 609.906 443.421 615.445 447.287 617.584C449.684 618.912 453.572 618.037 461.347 616.309C465.213 615.445 467.146 615.013 467.135 614.97C466.963 613.793 455.689 616.86 454.954 617.152C448.529 619.646 441.456 625.229 442.978 632.939C443.767 636.913 446.402 640.304 449.479 642.939C451.877 644.991 454.652 646.719 457.751 647.291C464.533 648.555 471.045 644.213 477.902 643.425C473.194 644.527 468.626 646.19 464.317 648.371C455.505 652.82 461.174 658.846 467.33 662.377C476.455 667.625 486.498 667.787 496.551 665.649C508.322 663.133 520.039 660.185 531.982 658.587C534.261 658.284 537.792 658.587 539.66 657.323C541.313 656.211 542.749 653.122 543.613 651.373C545.816 646.935 546.507 642.01 546.366 637.097C546.928 615.143 546.064 594.625 530.017 577.963C525.082 576.526 520.06 574.669 514.942 573.805L514.974 573.816Z" fill="white" stroke="black" stroke-width="7.55918" stroke-miterlimit="10"/>
<path d="M518.818 633.35C507.544 630.844 453.507 653.889 463.582 648.231C470.472 644.365 477.416 643.458 477.416 643.458C477.416 643.458 520.212 633.663 518.818 633.35Z" fill="white" stroke="black" stroke-width="7.55918" stroke-miterlimit="10"/>
<path d="M509.057 597.811C501.011 607.767 443.184 619.419 454.706 618.642C462.6 618.113 468.896 614.506 468.896 614.506C468.896 614.506 510.05 596.58 509.057 597.811Z" fill="white" stroke="black" stroke-width="7.55918" stroke-miterlimit="10"/>
<path opacity="0.46" d="M335.714 330.723C335.876 338.283 337.398 347.073 339.169 352.181C339.968 354.416 342.193 360.874 344.061 355.453C346.307 348.164 348.931 338.488 356.242 334.255C361.361 331.145 368.315 331.479 376.933 331.112C390.626 330.918 404.707 328.844 414.308 318.272C428.746 301.588 387.721 308.273 377.278 308.586C367.246 309.039 352.301 305.055 343.737 308.316C336.858 310.929 335.109 319.244 335.703 330.475V330.723H335.714Z" fill="#B2B2B2"/>
<path d="M342.949 305.465C336.545 307.916 336.113 319.633 336.135 327.203C337.301 372.439 393.444 396.197 415.225 349.384C418.908 341.36 420.344 332.538 420.096 323.726C420.031 320.378 419.804 316.912 419.459 313.726C418.681 307.851 418.066 300.141 411.144 302.625C407.31 303.91 401.543 307.733 395.302 309.525C385.388 312.128 374.784 312.376 364.655 310.724C355.864 309.223 349.158 303.964 343.068 305.422L342.949 305.454V305.465Z" stroke="black" stroke-width="7.55918" stroke-miterlimit="10"/>
<path d="M318.187 222.022C331.556 210.219 340.886 194.777 353.035 181.84C361.026 173.33 371.101 167.229 381.522 175.555C389.794 182.175 397.181 189.777 405.031 196.872C413.109 204.161 422.18 210.284 429.599 218.286C441.542 230.899 444.793 248.35 439.631 264.796C436.37 279.278 411.122 294.007 420.128 308.316C427.817 319.568 456.984 328.132 469.274 334.276C514.348 354.254 555.589 382.191 594.162 412.697C597.985 415.116 600.728 415.829 601.937 414.339C604.248 412.492 600.879 401.585 598.741 396.704C590.188 375.441 576.549 356.371 565.146 336.512C557.846 323.898 551.485 310.735 547.511 296.696C542.922 281.297 541.496 264.872 535.74 249.883C522.728 216.115 499.575 223.243 482.016 201.764C476.12 194.151 472.686 184.291 468.896 175.317C452.33 130.923 410.107 108.257 363.499 110.794C324.148 117.436 299.548 140.718 278.534 173.363C256.385 206.677 254.83 219.096 257.498 257.907C257.681 268.49 255.187 277.885 247.822 285.487C242.585 291.048 235.619 295.368 229.928 300.562C215.069 313.326 208.665 332.03 199.573 349.2C194.217 359.427 188.364 369.383 182.1 379.07C178.418 385.419 166.42 400.883 168.137 406.866C170.286 410.548 180.34 404.523 184.454 402.168C222.995 378.281 267.681 345.14 306.179 321.199C328.381 307.387 352.279 316.21 321.578 271.179C316.146 263.209 299.948 252.205 294.829 243.512C290.888 236.968 294.851 234.203 291.611 227.335C290.467 216.731 312.345 228.124 318.176 222.001L318.187 222.022Z" fill="black"/>
<path d="M377.872 169.13C344.59 169.13 323.317 196.386 318.522 228.674C311.708 221.547 303.242 218.653 297.831 222.227C291.233 226.579 291.687 238.879 298.825 249.689C304.548 258.36 312.842 263.425 319.299 262.853C324.634 290.768 341.912 310.573 372.916 310.573C410.949 310.573 438.259 291.534 438.259 253.501C438.259 215.467 415.906 169.13 377.883 169.13H377.872Z" stroke="black" stroke-width="7.55918" stroke-miterlimit="10"/>
<path d="M520.924 660.422C520.924 664.904 521.594 669.44 520.924 673.878C517.134 698.812 526.626 688.143 534.304 675.562C536.291 673.316 540.924 669.817 541.906 666.945L546.517 653.587L526.507 659.418L520.924 660.422Z" fill="black"/>
<ellipse opacity="0.35" cx="339.017" cy="257.746" rx="35.2634" ry="54.3247" transform="rotate(-22.1782 339.017 257.746)" fill="url(#paint1_radial_2438_1105)"/>
<ellipse opacity="0.35" cx="418.25" cy="247.217" rx="30.8289" ry="47.4931" transform="rotate(16.0597 418.25 247.217)" fill="url(#paint2_radial_2438_1105)"/>
<path d="M386.419 228.533C386.419 228.533 389.515 251.111 389.515 259.462C389.515 267.812 378.87 264.886 378.87 264.886M339.85 219.615C339.85 219.615 344.598 215.679 348.277 214.71C351.795 213.782 357.591 214.71 357.591 214.71M397.951 212.034C397.951 212.034 401.944 210.289 404.666 210.328C407.27 210.365 411.122 212.067 411.122 212.067M363.607 279.98C363.607 279.98 366.567 283.303 372.786 284.839C379.005 286.375 384.665 284.839 384.665 284.839" stroke="black" stroke-width="6.4793" stroke-linecap="round"/>
<circle cx="357.128" cy="230.845" r="4.31953" fill="#0C0B0B"/>
<circle cx="405.722" cy="228.685" r="4.31953" fill="#0C0B0B"/>
<defs>
<linearGradient id="paint0_linear_2438_1105" x1="390.226" y1="925.34" x2="388.509" y2="873.397" gradientUnits="userSpaceOnUse">
<stop offset="0.24" stop-color="white" stop-opacity="0"/>
<stop offset="0.75" stop-color="#51EBF9"/>
</linearGradient>
<radialGradient id="paint1_radial_2438_1105" cx="0" cy="0" r="1" gradientTransform="matrix(20.0144 -22.2871 13.4366 25.775 339.017 257.746)" gradientUnits="userSpaceOnUse">
<stop offset="0.0865385" stop-color="#7B6178" stop-opacity="0.7"/>
<stop offset="0.653846" stop-color="#7B6178" stop-opacity="0.372581"/>
<stop offset="0.980769" stop-color="#7B6178" stop-opacity="0"/>
</radialGradient>
<radialGradient id="paint2_radial_2438_1105" cx="0" cy="0" r="1" gradientTransform="matrix(17.4975 -19.4844 11.7469 22.5337 418.25 247.217)" gradientUnits="userSpaceOnUse">
<stop offset="0.0865385" stop-color="#7B6178" stop-opacity="0.7"/>
<stop offset="0.653846" stop-color="#7B6178" stop-opacity="0.372581"/>
<stop offset="0.980769" stop-color="#7B6178" stop-opacity="0"/>
</radialGradient>
</defs>
</svg>
