<svg xmlns="http://www.w3.org/2000/svg" viewBox="0 0 1200 800" width="1200" height="800">
  <defs>
    <linearGradient id="g1" x1="0%" y1="0%" x2="100%" y2="100%">
      <stop offset="0%" stop-color="#6B22C0"/>
      <stop offset="100%" stop-color="#C040C8"/>
    </linearGradient>
    <linearGradient id="g2" x1="0%" y1="0%" x2="100%" y2="100%">
      <stop offset="0%" stop-color="#C040C8"/>
      <stop offset="100%" stop-color="#00C4BE"/>
    </linearGradient>
    <linearGradient id="g3" x1="0%" y1="0%" x2="100%" y2="100%">
      <stop offset="0%" stop-color="#6B22C0"/>
      <stop offset="100%" stop-color="#00C4BE"/>
    </linearGradient>
    <linearGradient id="g4" x1="0%" y1="0%" x2="100%" y2="100%">
      <stop offset="0%" stop-color="#3A1080"/>
      <stop offset="50%" stop-color="#6B22C0"/>
      <stop offset="100%" stop-color="#C040C8"/>
    </linearGradient>
  </defs>

  <!-- White/light background -->
  <rect width="1200" height="800" fill="#FAFAFA"/>

  <!-- Subtle tint overlay -->
  <rect width="1200" height="800" fill="#6B22C0" opacity="0.03"/>

  <!-- Pill shapes -->
  <rect x="870" y="-60" width="100" height="260" rx="50" fill="url(#g1)" opacity="0.12" transform="rotate(12 920 70)"/>
  <rect x="1020" y="220" width="80" height="200" rx="40" fill="url(#g2)" opacity="0.1" transform="rotate(-8 1060 320)"/>
  <rect x="-40" y="580" width="220" height="75" rx="37" fill="url(#g3)" opacity="0.12" transform="rotate(18 70 617)"/>

  <rect x="900" y="60" width="75" height="200" rx="37" fill="url(#g1)" opacity="0.22"/>
  <rect x="1000" y="170" width="60" height="160" rx="30" fill="url(#g2)" opacity="0.2"/>
  <rect x="80" y="580" width="240" height="72" rx="36" fill="url(#g3)" opacity="0.18"/>
  <rect x="940" y="560" width="50" height="130" rx="25" fill="url(#g4)" opacity="0.22"/>
  <rect x="40" y="60" width="65" height="170" rx="32" fill="url(#g1)" opacity="0.15"/>
  <rect x="140" y="20" width="180" height="58" rx="29" fill="url(#g2)" opacity="0.15"/>
</svg>
