<?xml version="1.0" encoding="UTF-8"?><svg id="_Шар_1" xmlns="http://www.w3.org/2000/svg" viewBox="0 0 400 200"><defs><style>.cls-1{fill:#22bbb8;}.cls-2{fill:#744d82;}</style></defs><polygon class="cls-1" points="134.86 128.11 130.19 128.11 126.54 121.57 123.93 116.9 120.27 110.36 106.98 86.56 109.32 82.38 124.94 110.36 128.6 116.9 131.21 121.57 134.86 128.11"/><polygon points="130.19 128.11 66.02 128.11 69.67 121.57 126.54 121.57 130.19 128.11"/><path d="M137.75,121.57l-2.61-4.67-3.65-6.54-18.9-33.83-3.27-5.85-3.27,5.85-2.34,4.18-3.27,5.85-13.29,23.8h-4.67l15.63-27.98,3.27-5.85,2.34-4.18,3.27-5.85-.03-.06h-6.47l-.03.06-2.34,4.18-3.27,5.85-18.9,33.83-3.65,6.54h51.65l-3.65-6.54-13.29-23.8,2.34-4.18,15.63,27.98,3.65,6.54,2.61,4.67,3.65,6.54h6.54l-3.65-6.54ZM113.73,110.36h-20.05l10.02-17.94,10.02,17.94Z"/><rect class="cls-2" x="298.51" y="21.63" width="22.4" height="22.4"/><path d="M19.28,66.43h44.89v4.97h-19.53v56.71h-5.83v-56.71h-19.53v-4.97Z"/><path d="M161.15,74.31h-.17v53.8h-5.83v-61.68h6.6l35.64,53.89h.17v-53.89h5.83v61.68h-6.77l-35.47-53.8Z"/><path d="M235.86,74.31h-.17v53.8h-5.83v-61.68h6.6l35.64,53.89h.17v-53.89h5.83v61.68h-6.77l-35.47-53.8Z"/><path d="M306.79,128.11v-61.68h5.83v61.68h-5.83Z"/><path d="M335.83,66.43h44.89v4.97h-19.53v56.71h-5.83v-56.71h-19.53v-4.97Z"/><path d="M28.95,159.12c.42-.05.93-.12,1.52-.22.59-.1,1.07-.24,1.44-.41.37-.17.6-.47.69-.88.09-.41.13-.79.13-1.14,0-1.15-.37-2.09-1.1-2.83-.74-.74-1.98-1.1-3.72-1.1-.77,0-1.49.07-2.13.21-.65.14-1.22.37-1.7.71s-.89.79-1.2,1.35c-.31.56-.52,1.27-.62,2.12h-2.28c.07-1.15.34-2.13.79-2.94.45-.81,1.03-1.47,1.74-1.98.71-.51,1.54-.89,2.47-1.12.94-.24,1.93-.36,2.98-.36.97,0,1.89.11,2.75.32.86.21,1.61.55,2.25,1.01.64.46,1.14,1.08,1.5,1.85.36.77.54,1.72.54,2.85v10.56c0,.87.16,1.43.47,1.67.31.24.94.18,1.89-.17v1.76c-.17.05-.43.12-.77.22-.34.1-.67.15-.99.15-.35,0-.69-.04-1.01-.11-.37-.05-.67-.17-.9-.36s-.41-.41-.54-.67c-.14-.26-.23-.55-.28-.86-.05-.31-.07-.64-.07-.99-.95,1.05-2.03,1.85-3.26,2.4-1.22.55-2.55.82-3.97.82-.85,0-1.67-.11-2.45-.34-.79-.22-1.48-.57-2.08-1.05-.6-.47-1.07-1.05-1.42-1.74-.35-.69-.52-1.5-.52-2.45,0-3.29,2.26-5.24,6.78-5.84l3.11-.41ZM32.73,160.25c-.95.4-1.91.66-2.88.79-.97.13-1.95.22-2.92.3-1.72.13-3.06.51-4.02,1.16-.96.65-1.44,1.63-1.44,2.96,0,.6.12,1.12.36,1.55.24.44.55.8.94,1.09.39.29.84.5,1.35.64.51.14,1.03.21,1.55.21.9,0,1.77-.11,2.62-.34.85-.22,1.6-.57,2.27-1.03.66-.46,1.19-1.05,1.59-1.76.4-.71.6-1.55.6-2.53v-3.03Z"/><path d="M103.71,151.04h2.25v17.52c0,1.3-.13,2.54-.39,3.73-.26,1.19-.73,2.23-1.4,3.13-.67.9-1.6,1.62-2.77,2.15-1.17.54-2.68.8-4.53.8-1.42,0-2.65-.18-3.67-.54-1.02-.36-1.86-.82-2.51-1.37-.65-.55-1.14-1.15-1.48-1.82-.34-.66-.52-1.28-.54-1.85h2.4c.17.72.45,1.32.82,1.78.37.46.82.82,1.33,1.09.51.26,1.08.44,1.7.54.62.1,1.27.15,1.95.15,1.52,0,2.75-.26,3.67-.79.92-.52,1.62-1.21,2.1-2.06.47-.85.78-1.81.92-2.88s.19-2.17.17-3.29c-.72,1.2-1.72,2.1-2.98,2.71-1.26.61-2.58.92-3.95.92-1.47,0-2.75-.28-3.84-.84-1.09-.56-1.98-1.31-2.7-2.25-.71-.94-1.24-2.03-1.59-3.28-.35-1.25-.52-2.55-.52-3.89,0-1.42.16-2.76.49-4.01.32-1.25.84-2.33,1.55-3.24.71-.91,1.62-1.63,2.71-2.15,1.1-.52,2.43-.79,4.01-.79.62,0,1.26.09,1.91.26s1.28.42,1.89.75c.61.32,1.17.74,1.68,1.24.51.5.93,1.06,1.25,1.68h.07v-3.41ZM103.71,160.81c0-1.17-.14-2.27-.43-3.28-.29-1.01-.71-1.88-1.25-2.62-.55-.74-1.24-1.32-2.06-1.74s-1.76-.64-2.81-.64c-.95,0-1.82.17-2.62.51-.8.34-1.5.83-2.1,1.48-.6.65-1.07,1.44-1.4,2.38-.34.94-.51,2.02-.51,3.24-.05,1.22.05,2.36.3,3.43.25,1.06.65,1.99,1.2,2.79.55.8,1.25,1.43,2.1,1.89.85.46,1.86.69,3.03.69,1.02,0,1.94-.22,2.75-.66.81-.44,1.5-1.02,2.06-1.76.56-.74.99-1.6,1.29-2.58.3-.99.45-2.03.45-3.13Z"/><path d="M160.88,161.26c0,1.05.14,2.04.41,2.98.27.94.68,1.75,1.22,2.43.54.69,1.22,1.24,2.04,1.65.82.41,1.77.62,2.85.62,1.47,0,2.73-.39,3.78-1.16,1.05-.77,1.75-1.87,2.1-3.29h2.51c-.28.92-.64,1.78-1.09,2.56-.45.79-1.01,1.47-1.68,2.06-.67.59-1.47,1.04-2.4,1.37-.92.32-2,.49-3.22.49-1.55,0-2.88-.26-4.01-.79-1.12-.52-2.05-1.24-2.77-2.15-.72-.91-1.26-1.98-1.61-3.22-.35-1.24-.52-2.56-.52-3.99s.21-2.76.62-4.01c.41-1.25,1-2.34,1.76-3.28.76-.94,1.69-1.67,2.79-2.21,1.1-.54,2.35-.81,3.74-.81,2.67,0,4.77.92,6.29,2.75,1.52,1.83,2.27,4.5,2.25,7.99h-15.05ZM173.53,159.39c0-.95-.13-1.84-.39-2.68-.26-.84-.65-1.56-1.16-2.17-.51-.61-1.15-1.1-1.93-1.46-.77-.36-1.66-.54-2.66-.54s-1.88.19-2.64.56c-.76.37-1.41.87-1.95,1.5-.54.62-.97,1.35-1.29,2.17-.32.82-.54,1.7-.64,2.62h12.65Z"/><path d="M230.44,170.43h-2.25v-19.39h2.25v2.7c.9-.95,1.83-1.72,2.79-2.32.96-.6,2.12-.9,3.46-.9,1.2,0,2.31.21,3.33.62,1.02.41,1.88,1.13,2.58,2.15.47.7.75,1.42.84,2.15.09.74.13,1.5.13,2.3v12.69h-2.25v-12.65c0-1.75-.39-3.06-1.16-3.93-.77-.87-2.06-1.31-3.86-1.31-.7,0-1.34.11-1.91.32-.57.21-1.09.49-1.55.84-.46.35-.86.75-1.18,1.2-.32.45-.57.92-.75,1.42-.22.62-.36,1.22-.41,1.8-.05.57-.07,1.2-.07,1.87v10.45Z"/><path d="M310.63,157.14c-.4-1.45-1.09-2.58-2.06-3.39-.97-.81-2.21-1.22-3.71-1.22-1.15,0-2.13.24-2.96.71-.82.47-1.5,1.1-2.02,1.89-.52.79-.91,1.67-1.16,2.66-.25.99-.37,1.98-.37,2.98s.12,2.02.36,2.99c.24.97.62,1.85,1.14,2.62.52.77,1.2,1.39,2.02,1.85.82.46,1.82.69,3,.69,1.67,0,3.01-.46,4.02-1.38,1.01-.92,1.65-2.2,1.93-3.82h2.4c-.2,1.07-.52,2.05-.95,2.94-.44.89-1,1.65-1.68,2.28-.69.64-1.5,1.13-2.45,1.48-.95.35-2.03.52-3.26.52-1.55,0-2.88-.26-4.01-.79-1.12-.52-2.05-1.24-2.77-2.15-.72-.91-1.26-1.99-1.61-3.24-.35-1.25-.52-2.58-.52-4.01,0-1.35.19-2.64.58-3.87.39-1.24.95-2.33,1.7-3.28.75-.95,1.68-1.7,2.79-2.27,1.11-.56,2.39-.84,3.84-.84,2.25,0,4.06.54,5.45,1.61,1.38,1.07,2.25,2.75,2.6,5.02h-2.28Z"/><path d="M365.44,175.67c.3.05.6.1.92.15s.63.07.95.07c.62,0,1.14-.2,1.54-.6.4-.4.73-.88.99-1.44.26-.56.48-1.15.66-1.76.17-.61.37-1.13.6-1.55l-7.53-19.51h2.51l6.21,16.66,6.21-16.66h2.43l-7.23,19.13c-.45,1.22-.88,2.32-1.29,3.29-.41.97-.85,1.8-1.31,2.49-.46.69-.97,1.21-1.54,1.57-.56.36-1.23.54-2,.54-.4,0-.78-.03-1.14-.07-.36-.05-.69-.11-.99-.19v-2.13Z"/></svg>