<?xml version="1.0" encoding="UTF-8"?><svg id="_Шар_1" xmlns="http://www.w3.org/2000/svg" viewBox="0 0 400 400"><defs><style>.cls-1{fill:#fff;}.cls-2{fill:#22bbb8;}.cls-3{fill:#744d82;}</style></defs><polygon class="cls-3" points="336.58 310.63 316.09 310.63 300.08 281.96 288.63 261.48 272.62 232.8 214.34 128.48 224.58 110.14 293.1 232.8 309.11 261.48 320.56 281.96 336.58 310.63"/><polygon class="cls-1" points="316.09 310.63 34.75 310.63 50.77 281.96 300.08 281.96 316.09 310.63"/><path class="cls-1" d="M349.23,281.96l-11.45-20.48-16.02-28.67-82.85-148.33-14.34-25.67-14.34,25.67-10.24,18.34-14.34,25.67-58.28,104.33h-20.48l68.52-122.66,14.34-25.67,10.24-18.34,14.34-25.66-.15-.27h-28.38l-.15.27-10.24,18.33-14.34,25.67-82.86,148.33-16.02,28.67h226.42l-16.02-28.67-58.27-104.33,10.24-18.34,68.52,122.66,16.02,28.67,11.45,20.48,16.02,28.67h28.67l-16.02-28.67ZM243.94,232.8h-87.88l43.95-78.67,43.94,78.67Z"/><rect class="cls-2" x="189.76" y="339.31" width="20.48" height="20.48"/></svg>