<?xml version="1.0" encoding="UTF-8"?>
<svg xmlns="http://www.w3.org/2000/svg" viewBox="0 0 1813.39 1084.56" preserveAspectRatio="xMidYMid slice">
  <defs>
    <style>
      .g { fill: none; stroke: #e3dbe6; stroke-miterlimit: 10; stroke-width: .25px; }
    </style>
  </defs>
  <polyline class="g" points="5.44 361.71 1808.53 361.71"/>
  <polyline class="g" points="5.44 723.08 1808.53 723.08"/>
  <polyline class="g" points="2.95 903.18 1810.94 903.18"/>
  <polyline class="g" points="3.04 542.39 1810.36 542.39"/>
  <polyline class="g" points=".09 183.97 1813.3 183.97"/>
  <line class="g" x1="186.13" y1="2.26" x2="186.13" y2="1082.26"/>
  <line class="g" x1="5.44" y1="2.26" x2="5.44" y2="1082.26"/>
  <line class="g" x1="364.89" y1="2.26" x2="364.89" y2="1082.26"/>
  <line class="g" x1="545.09" y1="2.26" x2="545.09" y2="1082.26"/>
  <line class="g" x1="726.26" y1="2.26" x2="726.26" y2="1082.26"/>
  <line class="g" x1="906.94" y1="2.26" x2="906.94" y2="1082.26"/>
  <line class="g" x1="1087.62" y1="2.26" x2="1087.62" y2="1082.26"/>
  <line class="g" x1="1267.82" y1="2.26" x2="1267.82" y2="1082.26"/>
  <line class="g" x1="1448.99" y1="2.26" x2="1448.99" y2="1082.26"/>
  <line class="g" x1="1629.67" y1="2.26" x2="1629.67" y2="1082.26"/>
  <line class="g" x1="1808.53" y1="2.26" x2="1808.53" y2="1082.26"/>
  <!-- diagonals top-left to bottom-right -->
  <polyline class="g" points=".59 183.97 184.21 .34"/>
  <polyline class="g" points="3.52 542.39 545.57 .34"/>
  <polyline class="g" points="3.52 903.76 906.94 .34"/>
  <polyline class="g" points="184.21 1084.44 1268.31 .34"/>
  <polyline class="g" points="545.57 1084.44 1629.67 .34"/>
  <polyline class="g" points="906.94 1084.44 1810.36 181.03"/>
  <polyline class="g" points="1268.31 1084.44 1810.36 542.39"/>
  <polyline class="g" points="1629.67 1084.44 1810.94 903.18"/>
  <!-- diagonals top-right to bottom-left -->
  <polyline class="g" points="1629.43 .1 545.09 1084.44"/>
  <polyline class="g" points="1268.06 .09 183.72 1084.44"/>
  <polyline class="g" points="906.7 .1 3.28 903.51"/>
  <polyline class="g" points="545.33 .1 3.04 542.39"/>
  <polyline class="g" points="183.96 .09 .09 183.97"/>
  <polyline class="g" points="1810.11 542.14 1268.31 1084.44"/>
  <polyline class="g" points="1810.36 181.03 906.94 1084.44"/>
  <polyline class="g" points="1813.3 183.97 1629.43 .1"/>
</svg>
