<?xml version="1.0" encoding="UTF-8"?><svg id="_Шар_1" xmlns="http://www.w3.org/2000/svg" viewBox="0 0 400 400"><defs><style>.cls-1{fill:#22bbb8;}</style></defs><polygon class="cls-1" points="336.58 335.21 316.09 335.21 300.08 306.54 288.63 286.06 272.62 257.38 214.34 153.06 224.58 134.72 293.1 257.38 309.11 286.06 320.56 306.54 336.58 335.21"/><polygon points="316.09 335.21 34.75 335.21 50.77 306.54 300.08 306.54 316.09 335.21"/><path d="M349.23,306.54l-11.45-20.48-16.02-28.67-82.85-148.33-14.34-25.67-14.34,25.67-10.24,18.34-14.34,25.67-58.28,104.33h-20.48l68.52-122.66,14.34-25.67,10.24-18.34,14.34-25.66-.15-.27h-28.38l-.15.27-10.24,18.33-14.34,25.67-82.86,148.33-16.02,28.67h226.42l-16.02-28.67-58.27-104.33,10.24-18.34,68.52,122.66,16.02,28.67,11.45,20.48,16.02,28.67h28.67l-16.02-28.67ZM243.94,257.38h-87.88l43.95-78.67,43.94,78.67Z"/></svg>