<?xml version="1.0" encoding="UTF-8"?><svg id="_Шар_1" xmlns="http://www.w3.org/2000/svg" viewBox="0 0 400 400"><defs><style>.cls-1{fill:#fff;}.cls-2{fill:#22bbb8;}.cls-3{fill:#744d82;}</style></defs><polygon class="cls-3" points="294.33 225.38 280.19 225.38 269.12 205.58 261.22 191.43 250.16 171.63 209.91 99.57 216.98 86.9 264.3 171.63 275.37 191.43 283.27 205.58 294.33 225.38"/><polygon class="cls-1" points="280.19 225.38 85.86 225.38 96.92 205.58 269.12 205.58 280.19 225.38"/><path class="cls-1" d="M303.08,205.58l-7.91-14.15-11.06-19.81-57.23-102.45-9.9-17.73-9.9,17.73-7.07,12.66-9.9,17.73-40.26,72.06h-14.15l47.33-84.72,9.9-17.73,7.07-12.66,9.9-17.72-.1-.19h-19.6l-.1.19-7.07,12.66-9.9,17.73-57.23,102.45-11.06,19.81h156.39l-11.06-19.81-40.25-72.06,7.07-12.66,47.32,84.72,11.06,19.81,7.91,14.15,11.06,19.81h19.81l-11.06-19.81ZM230.35,171.63h-60.7l30.35-54.33,30.35,54.33Z"/><rect class="cls-2" x="192.93" y="245.19" width="14.15" height="14.15"/><path class="cls-1" d="M85.86,279.14h28.35v3.14h-12.34v35.82h-3.68v-35.82h-12.34v-3.14Z"/><path class="cls-1" d="M124.01,318.1l15.31-38.96h4.17l14.93,38.96h-3.79l-4.49-12.23h-17.75l-4.6,12.23h-3.79ZM133.64,302.73h15.26l-7.63-20.45-7.63,20.45Z"/><path class="cls-1" d="M175.47,284.12h-.11v33.98h-3.68v-38.96h4.17l22.51,34.03h.11v-34.03h3.68v38.96h-4.27l-22.4-33.98Z"/><path class="cls-1" d="M222.65,284.12h-.11v33.98h-3.68v-38.96h4.17l22.51,34.03h.11v-34.03h3.68v38.96h-4.27l-22.4-33.98Z"/><path class="cls-1" d="M267.45,318.1v-38.96h3.68v38.96h-3.68Z"/><path class="cls-1" d="M285.79,279.14h28.35v3.14h-12.34v35.82h-3.68v-35.82h-12.34v-3.14Z"/><path class="cls-1" d="M91.96,337.68c.27-.03.59-.08.96-.14.37-.06.67-.15.91-.26.24-.11.38-.3.44-.56.05-.26.08-.5.08-.72,0-.72-.23-1.32-.7-1.79-.47-.46-1.25-.7-2.35-.7-.49,0-.94.04-1.35.13-.41.09-.77.24-1.08.45s-.56.5-.76.85c-.2.35-.33.8-.39,1.34h-1.44c.05-.72.21-1.34.5-1.86.28-.51.65-.93,1.1-1.25.45-.32.97-.56,1.56-.71.59-.15,1.22-.22,1.88-.22.61,0,1.19.07,1.74.2.54.13,1.02.35,1.42.64.4.29.72.68.95,1.17.23.49.34,1.09.34,1.8v6.67c0,.55.1.9.3,1.05.2.15.59.11,1.19-.11v1.11c-.11.03-.27.08-.48.14-.21.06-.42.09-.63.09-.22,0-.43-.02-.64-.07-.24-.03-.43-.11-.57-.22s-.26-.26-.34-.43c-.09-.17-.15-.35-.18-.54-.03-.2-.05-.41-.05-.63-.6.66-1.29,1.17-2.06,1.51-.77.35-1.61.52-2.51.52-.54,0-1.05-.07-1.55-.21-.5-.14-.93-.36-1.31-.66-.38-.3-.68-.67-.9-1.1-.22-.43-.33-.95-.33-1.55,0-2.08,1.43-3.31,4.28-3.69l1.96-.26ZM94.35,338.39c-.6.25-1.21.42-1.82.5-.61.08-1.23.14-1.84.19-1.09.08-1.94.32-2.54.73-.61.41-.91,1.03-.91,1.87,0,.38.07.71.22.98.15.28.35.5.59.69.24.18.53.32.85.4.32.09.65.13.98.13.57,0,1.12-.07,1.66-.21.54-.14,1.01-.36,1.43-.65.42-.29.75-.66,1-1.11.25-.45.38-.98.38-1.6v-1.92Z"/><path class="cls-1" d="M139.18,332.58h1.42v11.07c0,.82-.08,1.6-.25,2.35-.17.75-.46,1.41-.89,1.97-.43.57-1.01,1.02-1.75,1.36-.74.34-1.69.51-2.86.51-.9,0-1.67-.11-2.32-.34-.65-.23-1.17-.52-1.58-.86-.41-.35-.72-.73-.93-1.15-.21-.42-.33-.81-.34-1.17h1.51c.11.46.28.83.52,1.12.24.29.52.52.84.69.32.17.68.28,1.08.34.39.06.8.09,1.23.09.96,0,1.73-.17,2.32-.5.58-.33,1.02-.76,1.32-1.3.3-.54.49-1.14.58-1.82s.12-1.37.11-2.08c-.46.76-1.08,1.33-1.88,1.71-.8.39-1.63.58-2.49.58-.93,0-1.74-.18-2.42-.53-.69-.35-1.25-.83-1.7-1.42-.45-.59-.78-1.28-1.01-2.07-.22-.79-.33-1.61-.33-2.46,0-.9.1-1.74.31-2.53.2-.79.53-1.47.98-2.05.45-.58,1.02-1.03,1.71-1.36.69-.33,1.54-.5,2.53-.5.39,0,.8.06,1.21.17s.81.27,1.19.47c.39.21.74.47,1.06.78.32.32.59.67.79,1.06h.05v-2.15ZM139.18,338.75c0-.74-.09-1.43-.27-2.07-.18-.64-.45-1.19-.79-1.66-.35-.46-.78-.83-1.3-1.1s-1.11-.4-1.77-.4c-.6,0-1.15.11-1.66.32-.5.21-.95.52-1.32.93-.38.41-.67.91-.89,1.5-.21.59-.32,1.27-.32,2.05-.03.77.03,1.49.19,2.16.16.67.41,1.26.76,1.76.35.5.79.9,1.32,1.19.54.29,1.17.44,1.92.44.65,0,1.23-.14,1.74-.41.51-.28.95-.65,1.3-1.11.35-.46.63-1.01.82-1.63.19-.62.28-1.28.28-1.97Z"/><path class="cls-1" d="M175.29,339.03c0,.66.09,1.29.26,1.88.17.59.43,1.1.77,1.54.34.43.77.78,1.29,1.04.52.26,1.12.39,1.8.39.93,0,1.73-.24,2.39-.73.66-.49,1.1-1.18,1.32-2.08h1.58c-.17.58-.4,1.12-.69,1.62-.28.5-.64.93-1.06,1.3-.43.37-.93.66-1.51.86-.58.2-1.26.31-2.03.31-.98,0-1.82-.17-2.53-.5-.71-.33-1.29-.78-1.75-1.36-.46-.58-.8-1.25-1.02-2.03-.22-.78-.33-1.62-.33-2.52s.13-1.74.39-2.53c.26-.79.63-1.48,1.11-2.07.48-.59,1.07-1.06,1.76-1.4.69-.34,1.48-.51,2.36-.51,1.69,0,3.01.58,3.97,1.74.96,1.16,1.43,2.84,1.42,5.05h-9.51ZM183.28,337.85c0-.6-.08-1.16-.25-1.69-.17-.53-.41-.98-.73-1.37-.32-.39-.73-.69-1.22-.92-.49-.23-1.05-.34-1.68-.34s-1.19.12-1.67.35c-.48.24-.89.55-1.23.95-.34.39-.61.85-.82,1.37-.21.52-.34,1.07-.4,1.66h7.99Z"/><path class="cls-1" d="M219.22,344.82h-1.42v-12.25h1.42v1.7c.57-.6,1.15-1.09,1.76-1.47.61-.38,1.34-.57,2.19-.57.76,0,1.46.13,2.1.39.65.26,1.19.71,1.63,1.36.3.44.48.89.53,1.36.05.47.08.95.08,1.45v8.02h-1.42v-7.99c0-1.1-.24-1.93-.73-2.48-.49-.55-1.3-.83-2.44-.83-.44,0-.84.07-1.21.2-.36.13-.69.31-.98.53-.29.22-.54.47-.74.76-.21.28-.36.58-.47.9-.14.39-.23.77-.26,1.14-.03.36-.05.76-.05,1.18v6.6Z"/><path class="cls-1" d="M269.87,336.43c-.25-.91-.69-1.63-1.3-2.14-.61-.51-1.4-.77-2.34-.77-.73,0-1.35.15-1.87.45-.52.3-.95.7-1.28,1.19-.33.5-.58,1.06-.73,1.68-.16.62-.24,1.25-.24,1.88s.07,1.28.22,1.89c.15.61.39,1.17.72,1.66.33.49.76.88,1.28,1.17.52.29,1.15.44,1.89.44,1.06,0,1.9-.29,2.54-.87.64-.58,1.04-1.39,1.22-2.41h1.51c-.13.68-.33,1.3-.6,1.86-.28.56-.63,1.04-1.06,1.44-.43.4-.95.71-1.55.93-.6.22-1.28.33-2.06.33-.98,0-1.82-.17-2.53-.5-.71-.33-1.29-.78-1.75-1.36-.46-.58-.8-1.26-1.02-2.05-.22-.79-.33-1.63-.33-2.53,0-.85.12-1.67.37-2.45.24-.78.6-1.47,1.08-2.07.47-.6,1.06-1.08,1.76-1.43.7-.35,1.51-.53,2.42-.53,1.42,0,2.57.34,3.44,1.02.87.68,1.42,1.73,1.64,3.17h-1.44Z"/><path class="cls-1" d="M304.49,348.14c.19.03.38.06.58.09s.4.05.6.05c.39,0,.72-.13.97-.38.25-.25.46-.56.63-.91.17-.35.3-.72.41-1.11.11-.39.24-.71.38-.98l-4.75-12.32h1.58l3.93,10.52,3.93-10.52h1.54l-4.56,12.08c-.28.77-.56,1.47-.82,2.08-.26.61-.54,1.14-.83,1.57-.29.43-.61.76-.97.99-.35.23-.78.34-1.27.34-.25,0-.49-.02-.72-.05-.23-.03-.44-.07-.63-.12v-1.35Z"/></svg>